{
.appVersion = "1350";
classes = (
{
automatic = 1;
code = "A A.ss01 B B.ss01 C C.ss01 D D.ss01 D.ss02 E E.ss01 F F.ss01 G G.ss01 H H.ss01 I J K L L.ss01 M M.ss01 N O O.ss01 P P.ss01 Q Q_u Q.ss01 R R_stroke R.ss01 S S.ss01 T T.ss01 U U.ss01 V V.ss01 W X Y Z a a_hook a_macr b b_strok c c_hook c_ra c_strok d d_strok e e_hook e_macr f f_f g g_ra g_ring g_stroke g.ss01 h h_strok h_ring i idotless i_hook i_macr i_ring j k l l_strok m m_macr m_urrot m_urrot.ss01 n n_macr n_urrot o o_hook o_macr o_ra o_tilde p p_bardes p_flour p_p_flour p_macr p_ra p_urrot q q_bardes q_etfin q_etfin_ra q_etfin_ring q_macr q_ra q_ring q_strok q_urrot r r_hook r_macr r_ra r_strok r.ss01 r_ring s longs longs_strok longs_longs longs_t t t_acute t_ra t_stroke t_tilde u u_macr v w x y z z.ss01 con etfin rum usmod usmod.ss01";
name = AllLetters;
}
);
copyright = "Copyright © 2019 by ANRT 2019. All rights reserved.";
customParameters = (
{
name = glyphOrder;
value = (
.notdef,
emspace,
enspace,
threeperemspace,
fourperemspace,
space,
thinspace,
hairspace,
A,
A.ss01,
B,
B.ss01,
C,
C.ss01,
D,
D.ss01,
D.ss02,
E,
E.ss01,
F,
F.ss01,
G,
G.ss01,
H,
H.ss01,
I,
J,
K,
L,
L.ss01,
M,
M.ss01,
N,
O,
O.ss01,
P,
P.ss01,
Q,
Q_u,
Q.ss01,
Q.ss02,
R,
R_stroke,
R.ss01,
R.ss02,
S,
S.ss01,
T,
T.ss01,
U,
U.ss01,
V,
V.ss01,
W,
X,
Y,
Z,
a,
a_hook,
a_macr,
b,
b_strok,
c,
c_hook,
c_ra,
c_strok,
d,
d_strok,
e,
e_hook,
e_macr,
f,
f_f,
g,
g_ra,
g_ring,
g_stroke,
g.ss01,
h,
h_strok,
h_ring,
i,
idotless,
i_hook,
i_macr,
i_ring,
j,
k,
l,
l_strok,
m,
m_macr,
m_urrot,
m_urrot.ss01,
n,
n_macr,
n_urrot,
o,
o_hook,
o_macr,
o_ra,
o_tilde,
p,
p_bardes,
p_flour,
p_p_flour,
p_macr,
p_ra,
p_urrot,
q,
q_bardes,
q_etfin,
q_etfin_ra,
q_etfin_ring,
q_macr,
q_ra,
q_ring,
q_strok,
q_urrot,
r,
r_hook,
r_macr,
r_ra,
r_strok,
r.ss01,
r_ring,
s,
longs,
longs_strok,
longs_longs,
longs_t,
t,
t_acute,
t_ra,
t_stroke,
t_tilde,
u,
u_macr,
v,
w,
x,
y,
z,
z.ss01,
ampersand,
ampersand.ss01,
con,
etfin,
rum,
usmod,
usmod.ss01,
us_ra,
comma,
hyphen,
period,

glyphs = (
{
color = 3;
glyphname = A;
lastChange = "2020-02-04 07:34:44 +0000";
layers = (
{
layerId = "31E65565-C22C-4792-86EE-013C6F95D489";
paths = (
{
closed = 1;
nodes = (
"595 311 OFFCURVE",
"498 502 OFFCURVE",
"403 700 CURVE",
"344 711 OFFCURVE",
"299 725 OFFCURVE",
"252 750 CURVE",
"227 719 LINE",
"258 686 OFFCURVE",
"267 681 OFFCURVE",
"252 633 CURVE SMOOTH",
"84 107 LINE SMOOTH",
"68 57 OFFCURVE",
"52 49 OFFCURVE",
"5 37 CURVE",
"5 -3 LINE",
"40 1 OFFCURVE",
"151 0 OFFCURVE",
"176 -3 CURVE",
"176 37 LINE",
"135 49 OFFCURVE",
"129 48 OFFCURVE",
"144 104 CURVE SMOOTH",
"163 176 OFFCURVE",
"184 247 OFFCURVE",
"205 322 CURVE",
"290 327 OFFCURVE",
"388 330 OFFCURVE",
"475 330 CURVE",
"510 252 OFFCURVE",
"543 179 OFFCURVE",
"574 102 CURVE SMOOTH",
"593 54 OFFCURVE",
"603 47 OFFCURVE",
"539 37 CURVE",
"539 -3 LINE",
"585 -1 OFFCURVE",
"736 0 OFFCURVE",
"784 -3 CURVE",
"784 37 LINE",
"733 44 OFFCURVE",
"730 50 OFFCURVE",
"698 112 CURVE SMOOTH"
);
},
{
closed = 1;
nodes = (
"248 472 OFFCURVE",
"278 570 OFFCURVE",
"310 660 CURVE",
"361 567 OFFCURVE",
"408 474 OFFCURVE",
"452 380 CURVE",
"372 377 OFFCURVE",
"291 374 OFFCURVE",
"219 373 CURVE"
);
}
);
width = 789;
}
);
unicode = 0041;
},
{
color = 3;
glyphname = A.ss01;
lastChange = "2020-02-04 07:29:53 +0000";
layers = (
{
layerId = "31E65565-C22C-4792-86EE-013C6F95D489";
paths = (
{
closed = 1;
nodes = (
"651 91 OFFCURVE",
"645 90 OFFCURVE",
"626 90 CURVE SMOOTH",
"589 90 OFFCURVE",
"569 204 OFFCURVE",
"569 294 CURVE SMOOTH",
"569 431 OFFCURVE",
"569 556 OFFCURVE",
"612 661 CURVE",
"592 676 LINE",
"507 609 LINE",
"470 684 OFFCURVE",
"409 715 OFFCURVE",
"327 715 CURVE SMOOTH",
"181 715 OFFCURVE",
"101 586 OFFCURVE",
"10 427 CURVE",
"33 413 LINE",
"121 544 OFFCURVE",
"183 611 OFFCURVE",
"302 611 CURVE SMOOTH",
"384 611 OFFCURVE",
"458 578 OFFCURVE",
"486 517 CURVE",
"485 500 OFFCURVE",
"483 483 OFFCURVE",
"482 466 CURVE",
"472 457 OFFCURVE",
"463 449 OFFCURVE",
"453 441 CURVE",
"256 441 LINE",
"271 373 LINE",
"373 373 LINE",
"281 296 OFFCURVE",
"205 231 OFFCURVE",
"109 121 CURVE",
"109 116 LINE",
"156 92 OFFCURVE",
"236 26 OFFCURVE",
"292 -10 CURVE",
"295 -9 LINE",
"357 52 OFFCURVE",
"424 138 OFFCURVE",
"480 242 CURVE",
"483 164 OFFCURVE",
"489 96 OFFCURVE",
"497 42 CURVE",
"527 23 OFFCURVE",
"552 5 OFFCURVE",
"591 -10 CURVE",
"623 18 OFFCURVE",
"653 45 OFFCURVE",
"680 71 CURVE",
"673 96 LINE"
);
},
{
closed = 1;
nodes = (
"207 165 LINE",
"261 229 OFFCURVE",
"337 300 OFFCURVE",
"422 373 CURVE",
"479 373 LINE",
"478 344 OFFCURVE",
"478 317 OFFCURVE",
"478 290 CURVE",
"429 210 OFFCURVE",
"373 143 OFFCURVE",
"310 93 CURVE"
);
}
);
width = 700;
}
);
},
{
color = 3;
glyphname = B;
lastChange = "2020-02-04 07:35:34 +0000";
layers = (
{
layerId = "31E65565-C22C-4792-86EE-013C6F95D489";
paths = (
{
closed = 1;
nodes = (
"492 436 OFFCURVE",
"545 500 OFFCURVE",
"545 571 CURVE SMOOTH",
"545 651 OFFCURVE",
"499 711 OFFCURVE",
"379 711 CURVE SMOOTH",
"311 711 OFFCURVE",
"233 703 OFFCURVE",
"155 703 CURVE SMOOTH",
"135 703 OFFCURVE",
"85 701 OFFCURVE",
"55 703 CURVE",
"50 663 LINE",
"90 653 OFFCURVE",
"98 634 OFFCURVE",
"101 586 CURVE SMOOTH",
"111 423 OFFCURVE",
"111 192 OFFCURVE",
"108 139 CURVE SMOOTH",
"105 83 OFFCURVE",
"102 48 OFFCURVE",
"92 17 CURVE",
"111 -11 LINE",
"141 -5 OFFCURVE",
"179 4 OFFCURVE",
"216 4 CURVE SMOOTH",
"251 4 OFFCURVE",
"306 -10 OFFCURVE",
"382 -10 CURVE SMOOTH",
"511 -10 OFFCURVE",
"641 67 OFFCURVE",
"641 219 CURVE SMOOTH",
"641 326 OFFCURVE",
"558 390 OFFCURVE",
"437 413 CURVE"
);
},
{
closed = 1;
nodes = (
"210 648 OFFCURVE",
"214 670 OFFCURVE",
"310 670 CURVE SMOOTH",
"407 670 OFFCURVE",
"440 624 OFFCURVE",
"440 541 CURVE SMOOTH",
"440 461 OFFCURVE",
"379 405 OFFCURVE",
"289 405 CURVE SMOOTH",
"253 405 OFFCURVE",
"228 408 OFFCURVE",
"205 415 CURVE",
"204 477 OFFCURVE",
"205 544 OFFCURVE",
"208 596 CURVE SMOOTH"
);
},
{
closed = 1;
nodes = (
"277 34 OFFCURVE",
"243 45 OFFCURVE",
"213 60 CURVE",
"208 159 OFFCURVE",
"203 260 OFFCURVE",
"205 359 CURVE",
"228 367 OFFCURVE",
"268 376 OFFCURVE",
"316 376 CURVE SMOOTH",
"435 376 OFFCURVE",
"538 329 OFFCURVE",
"538 209 CURVE SMOOTH",
"538 99 OFFCURVE",
"457 34 OFFCURVE",
"335 34 CURVE SMOOTH"
);
}
);
width = 651;
}
);
unicode = 0042;
},
{
color = 3;
glyphname = B.ss01;
lastChange = "2020-02-04 07:35:53 +0000";
layers = (
{
layerId = "31E65565-C22C-4792-86EE-013C6F95D489";
paths = (
{
closed = 1;
nodes = (
"602 433 OFFCURVE",
"578 428 OFFCURVE",
"547 416 CURVE",
"798 605 LINE",
"798 619 LINE",
"757 643 OFFCURVE",
"709 668 OFFCURVE",
"651 726 CURVE",
"647 726 LINE",
"443 553 LINE",
"404 728 LINE",
"375 721 LINE",
"500 176 LINE",
"486 182 OFFCURVE",
"472 188 OFFCURVE",
"457 193 CURVE",
"328 715 LINE",
"300 708 LINE",
"429 199 LINE",
"372 199 OFFCURVE",
"297 192 OFFCURVE",
"232 177 CURVE",
"272 288 OFFCURVE",
"296 363 OFFCURVE",
"296 422 CURVE SMOOTH",
"296 521 OFFCURVE",
"215 581 OFFCURVE",
"157 581 CURVE SMOOTH",
"69 581 OFFCURVE",
"14 466 OFFCURVE",
"52 411 CURVE",
"71 412 LINE",
"76 443 OFFCURVE",
"94 469 OFFCURVE",
"137 469 CURVE SMOOTH",
"240 469 OFFCURVE",
"257 347 OFFCURVE",
"195 166 CURVE",
"161 155 OFFCURVE",
"132 141 OFFCURVE",
"112 124 CURVE",
"82 -6 LINE",
"105 -13 LINE",
"163 71 OFFCURVE",
"261 119 OFFCURVE",
"387 119 CURVE SMOOTH",
"500 119 OFFCURVE",
"556 58 OFFCURVE",
"624 -14 CURVE",
"682 31 OFFCURVE",
"866 133 OFFCURVE",
"866 258 CURVE SMOOTH",
"866 389 OFFCURVE",
"758 433 OFFCURVE",
"633 433 CURVE SMOOTH"
);
},
{
closed = 1;
nodes = (
"610 613 OFFCURVE",
"649 588 OFFCURVE",
"676 558 CURVE",
"626 511 OFFCURVE",
"558 465 OFFCURVE",
"476 409 CURVE",
"451 518 LINE",
"480 542 OFFCURVE",
"558 599 OFFCURVE",
"591 621 CURVE"
);
},
{
closed = 1;
nodes = (
"607 102 OFFCURVE",
"573 133 OFFCURVE",
"533 158 CURVE",
"486 365 LINE",
"626 425 OFFCURVE",
"773 360 OFFCURVE",
"773 228 CURVE SMOOTH",
"773 144 OFFCURVE",
"733 104 OFFCURVE",
"643 71 CURVE"
);
}
);
width = 886;
}
);
},
{
color = 3;
glyphname = C;
lastChange = "2020-02-04 07:39:06 +0000";
layers = (
{
layerId = "31E65565-C22C-4792-86EE-013C6F95D489";
paths = (
{
closed = 1;
nodes = (
"569 670 OFFCURVE",
"659 590 OFFCURVE",
"691 486 CURVE",
"722 487 LINE",
"732 534 OFFCURVE",
"746 580 OFFCURVE",
"762 627 CURVE",
"683 668 OFFCURVE",
"571 710 OFFCURVE",
"451 710 CURVE SMOOTH",
"221 710 OFFCURVE",
"35 567 OFFCURVE",
"35 350 CURVE SMOOTH",
"35 127 OFFCURVE",
"164 -10 OFFCURVE",
"404 -10 CURVE SMOOTH",
"478 -10 OFFCURVE",
"541 12 OFFCURVE",
"589 42 CURVE",
"595 -42 LINE",
"622 -48 LINE",
"707 141 LINE",
"682 155 LINE",
"615 82 OFFCURVE",
"517 35 OFFCURVE",
"407 35 CURVE SMOOTH",
"247 35 OFFCURVE",
"153 190 OFFCURVE",
"153 350 CURVE SMOOTH",
"153 539 OFFCURVE",
"258 670 OFFCURVE",
"428 670 CURVE SMOOTH"
);
}
);
width = 777;
}
);
leftMetricsKey = O;
unicode = 0043;
},
{
color = 3;
glyphname = C.ss01;
lastChange = "2020-02-04 07:36:07 +0000";
layers = (
{
layerId = "31E65565-C22C-4792-86EE-013C6F95D489";
paths = (
{
closed = 1;
nodes = (
"489 658 OFFCURVE",
"536 598 OFFCURVE",
"575 557 CURVE",
"675 626 LINE",
"675 630 LINE",
"616 682 OFFCURVE",
"550 715 OFFCURVE",
"465 715 CURVE SMOOTH",
"424 715 OFFCURVE",
"381 700 OFFCURVE",
"346 672 CURVE",
"243 669 OFFCURVE",
"108 561 OFFCURVE",
"108 458 CURVE SMOOTH",
"108 355 OFFCURVE",
"188 301 OFFCURVE",
"188 207 CURVE SMOOTH",
"188 144 OFFCURVE",
"149 88 OFFCURVE",
"65 49 CURVE",
"60 -7 LINE",
"258 -1 OFFCURVE",
"420 -1 OFFCURVE",
"601 -7 CURVE",
"641 89 LINE",
"635 92 LINE",
"537 69 OFFCURVE",
"434 66 OFFCURVE",
"334 65 CURVE",
"388 109 OFFCURVE",
"491 200 OFFCURVE",
"491 288 CURVE SMOOTH",
"491 382 OFFCURVE",
"358 475 OFFCURVE",
"358 587 CURVE SMOOTH",
"358 632 OFFCURVE",
"389 658 OFFCURVE",
"425 658 CURVE SMOOTH"
);
},
{
closed = 1;
nodes = (
"388 160 OFFCURVE",
"315 72 OFFCURVE",
"219 64 CURVE",
"153 64 LINE",
"223 128 OFFCURVE",
"276 165 OFFCURVE",
"276 245 CURVE SMOOTH",
"276 321 OFFCURVE",
"208 377 OFFCURVE",
"208 485 CURVE SMOOTH",
"208 555 OFFCURVE",
"249 613 OFFCURVE",
"309 632 CURVE",
"290 604 OFFCURVE",
"278 570 OFFCURVE",
"278 531 CURVE SMOOTH",
"278 439 OFFCURVE",
"388 352 OFFCURVE",
"388 244 CURVE SMOOTH"
);
}
);
width = 705;
}
);
},
{
color = 3;
glyphname = D;
lastChange = "2020-02-04 07:38:21 +0000";
layers = (
{
layerId = "31E65565-C22C-4792-86EE-013C6F95D489";
paths = (
{
closed = 1;
nodes = (
"603 -10 OFFCURVE",
"767 140 OFFCURVE",
"767 350 CURVE SMOOTH",
"767 540 OFFCURVE",
"627 710 OFFCURVE",
"387 710 CURVE SMOOTH",
"306 710 OFFCURVE",
"221 697 OFFCURVE",
"161 698 CURVE SMOOTH",
"65 699 LINE",
"60 662 LINE",
"100 657 OFFCURVE",
"120 640 OFFCURVE",
"121 600 CURVE SMOOTH",
"124 489 OFFCURVE",
"126 249 OFFCURVE",
"117 122 CURVE SMOOTH",
"114 79 OFFCURVE",
"103 59 OFFCURVE",
"65 28 CURVE",
"79 -6 LINE",
"109 -1 OFFCURVE",
"141 10 OFFCURVE",
"191 10 CURVE SMOOTH",
"236 10 OFFCURVE",
"335 -10 OFFCURVE",
"393 -10 CURVE SMOOTH"
);
},
{
closed = 1;
nodes = (
"286 32 OFFCURVE",
"225 74 OFFCURVE",
"221 171 CURVE SMOOTH",
"215 307 OFFCURVE",
"214 459 OFFCURVE",
"219 555 CURVE SMOOTH",
"223 634 OFFCURVE",
"218 670 OFFCURVE",
"323 670 CURVE SMOOTH",
"522 670 OFFCURVE",
"660 510 OFFCURVE",
"660 310 CURVE SMOOTH",
"660 150 OFFCURVE",
"587 32 OFFCURVE",
"397 32 CURVE SMOOTH"
);
}
);
width = 802;
}
);
unicode = 0044;
},
{
color = 3;
glyphname = D.ss01;
lastChange = "2020-02-04 07:39:37 +0000";
layers = (
{
layerId = "31E65565-C22C-4792-86EE-013C6F95D489";
paths = (
{
closed = 1;
nodes = (
"515 709 OFFCURVE",
"415 677 OFFCURVE",
"325 677 CURVE SMOOTH",
"219 677 OFFCURVE",
"170 708 OFFCURVE",
"126 788 CURVE",
"101 788 LINE",
"62 657 LINE",
"94 605 OFFCURVE",
"189 576 OFFCURVE",
"290 574 CURVE",
"203 520 OFFCURVE",
"60 457 OFFCURVE",
"60 390 CURVE SMOOTH",
"60 309 OFFCURVE",
"186 266 OFFCURVE",
"186 177 CURVE SMOOTH",
"186 134 OFFCURVE",
"165 81 OFFCURVE",
"133 29 CURVE",
"108 19 OFFCURVE",
"84 10 OFFCURVE",
"64 1 CURVE",
"63 -5 LINE",
"87 -39 LINE",
"180 1 OFFCURVE",
"286 22 OFFCURVE",
"390 22 CURVE SMOOTH",
"501 22 OFFCURVE",
"650 -21 OFFCURVE",
"760 -15 CURVE",
"842 130 OFFCURVE",
"961 209 OFFCURVE",
"961 389 CURVE SMOOTH",
"961 599 OFFCURVE",
"811 709 OFFCURVE",
"641 709 CURVE SMOOTH"
);
},
{
closed = 1;
nodes = (
"679 61 OFFCURVE",
"614 75 OFFCURVE",
"545 86 CURVE",
"545 601 LINE",
"556 602 OFFCURVE",
"568 602 OFFCURVE",
"580 602 CURVE SMOOTH",
"760 602 OFFCURVE",
"852 493 OFFCURVE",
"852 333 CURVE SMOOTH",
"852 224 OFFCURVE",
"803 138 OFFCURVE",
"741 70 CURVE"
);
},
{
closed = 1;
nodes = (
"446 395 LINE",
"380 325 LINE",
"380 578 LINE",
"432 583 OFFCURVE",
"470 593 OFFCURVE",
"515 598 CURVE",
"515 325 LINE"
);
},
{
closed = 1;
nodes = (
"187 471 OFFCURVE",
"289 537 OFFCURVE",
"350 574 CURVE",
"350 90 LINE",
"298 82 OFFCURVE",
"244 67 OFFCURVE",
"195 51 CURVE",
"225 116 OFFCURVE",
"247 182 OFFCURVE",
"247 234 CURVE SMOOTH",
"247 308 OFFCURVE",
"187 359 OFFCURVE",
"187 413 CURVE SMOOTH"
);
},
{
closed = 1;
nodes = (
"380 296 LINE",
"451 226 LINE",
"515 297 LINE",
"515 91 LINE",
"489 95 OFFCURVE",
"462 97 OFFCURVE",
"435 97 CURVE SMOOTH",
"417 97 OFFCURVE",
"399 96 OFFCURVE",
"380 94 CURVE"
);
}
);
width = 1001;
}
);
},
{
color = 3;
glyphname = D.ss02;
lastChange = "2020-02-04 07:39:49 +0000";
layers = (
{
annotations = (
{
position = "{-12.227, -60.148}";
type = Plus;
},
{
position = "{-1.844, 58.469}";
type = Plus;
}
);
layerId = "31E65565-C22C-4792-86EE-013C6F95D489";
paths = (
{
closed = 1;
nodes = (
"467 716 OFFCURVE",
"369 710 OFFCURVE",
"300 710 CURVE SMOOTH",
"230 710 OFFCURVE",
"153 724 OFFCURVE",
"142 765 CURVE",
"122 775 LINE",
"45 665 LINE",
"96 615 OFFCURVE",
"194 602 OFFCURVE",
"291 602 CURVE SMOOTH",
"308 602 OFFCURVE",
"322 603 OFFCURVE",
"335 605 CURVE",
"261 564 OFFCURVE",
"217 523 OFFCURVE",
"182 485 CURVE SMOOTH",
"153 453 OFFCURVE",
"137 374 OFFCURVE",
"137 332 CURVE SMOOTH",
"137 134 OFFCURVE",
"287 -10 OFFCURVE",
"485 -10 CURVE SMOOTH",
"701 -10 OFFCURVE",
"898 161 OFFCURVE",
"898 371 CURVE SMOOTH",
"898 569 OFFCURVE",
"738 716 OFFCURVE",
"572 716 CURVE SMOOTH"
);
},
{
closed = 1;
nodes = (
"250 454 OFFCURVE",
"294 563 OFFCURVE",
"405 619 CURVE",
"431 624 OFFCURVE",
"462 628 OFFCURVE",
"509 628 CURVE",
"494 400 LINE",
"419 347 LINE",
"485 270 LINE",
"471 54 LINE",
"348 87 OFFCURVE",
"250 215 OFFCURVE",
"250 360 CURVE SMOOTH"
);
},
{
closed = 1;
nodes = (
"521 46 OFFCURVE",
"509 47 OFFCURVE",
"498 48 CURVE",
"517 276 LINE",
"583 326 LINE",
"527 393 LINE",
"547 626 LINE",
"692 609 OFFCURVE",
"785 494 OFFCURVE",
"785 342 CURVE SMOOTH",
"785 182 OFFCURVE",
"695 46 OFFCURVE",
"532 46 CURVE SMOOTH"
);
}
);
width = 933;
}
);
},
{
color = 3;
glyphname = E;
lastChange = "2020-02-04 07:40:05 +0000";
layers = (
{
layerId = "31E65565-C22C-4792-86EE-013C6F95D489";
paths = (
{
closed = 1;
nodes = (
"85 -3 OFFCURVE",
"155 0 OFFCURVE",
"215 0 CURVE SMOOTH",
"383 0 OFFCURVE",
"594 -2 OFFCURVE",
"738 -4 CURVE",
"845 143 LINE",
"826 165 LINE",
"718 78 OFFCURVE",
"576 45 OFFCURVE",
"400 45 CURVE SMOOTH",
"329 45 OFFCURVE",
"292 59 OFFCURVE",
"265 61 CURVE",
"265 298 LINE",
"490 298 LINE SMOOTH",
"582 298 OFFCURVE",
"592 256 OFFCURVE",
"610 147 CURVE",
"654 147 LINE",
"639 241 OFFCURVE",
"631 347 OFFCURVE",
"672 440 CURVE",
"633 457 LINE",
"593 377 OFFCURVE",
"593 353 OFFCURVE",
"522 353 CURVE SMOOTH",
"265 353 LINE",
"265 578 LINE SMOOTH",
"265 641 OFFCURVE",
"281 660 OFFCURVE",
"370 660 CURVE SMOOTH",
"532 660 OFFCURVE",
"655 656 OFFCURVE",
"666 513 CURVE",
"705 513 LINE",
"704 570 OFFCURVE",
"723 636 OFFCURVE",
"761 685 CURVE",
"755 705 LINE",
"604 701 OFFCURVE",
"365 700 OFFCURVE",
"214 700 CURVE SMOOTH",
"174 700 OFFCURVE",
"105 701 OFFCURVE",
"65 703 CURVE",
"65 663 LINE",
"127 646 OFFCURVE",
"165 635 OFFCURVE",
"165 573 CURVE SMOOTH",
"165 120 LINE SMOOTH",
"165 73 OFFCURVE",
"116 55 OFFCURVE",
"35 34 CURVE",
"35 -6 LINE"
);
}
);
width = 855;
}
);
unicode = 0045;
},
{
color = 3;
glyphname = E.ss01;
lastChange = "2020-02-04 07:40:20 +0000";
layers = (
{
layerId = "31E65565-C22C-4792-86EE-013C6F95D489";
paths = (
{
closed = 1;
nodes = (
"806 426 LINE",
"801 432 LINE",
"729 411 OFFCURVE",
"639 401 OFFCURVE",
"567 396 CURVE",
"748 574 LINE",
"747 580 LINE",
"687 615 OFFCURVE",
"626 673 OFFCURVE",
"593 718 CURVE",
"588 718 LINE",
"466 574 LINE",
"467 640 OFFCURVE",
"468 692 OFFCURVE",
"469 713 CURVE",
"464 719 LINE",
"228 710 OFFCURVE",
"35 558 OFFCURVE",
"35 351 CURVE SMOOTH",
"35 87 OFFCURVE",
"279 -7 OFFCURVE",
"397 -7 CURVE SMOOTH",
"430 -7 OFFCURVE",
"617 81 OFFCURVE",
"698 121 CURVE",
"688 157 LINE",
"583 116 OFFCURVE",
"515 94 OFFCURVE",
"468 88 CURVE",
"467 128 OFFCURVE",
"466 216 OFFCURVE",
"465 314 CURVE",
"541 328 OFFCURVE",
"693 319 OFFCURVE",
"777 338 CURVE"
);
},
{
closed = 1;
nodes = (
"343 157 OFFCURVE",
"370 196 OFFCURVE",
"397 230 CURVE",
"390 362 OFFCURVE",
"388 540 OFFCURVE",
"393 662 CURVE",
"407 663 OFFCURVE",
"421 664 OFFCURVE",
"436 664 CURVE",
"440 594 OFFCURVE",
"440 222 OFFCURVE",
"437 87 CURVE",
"394 88 OFFCURVE",
"353 98 OFFCURVE",
"316 115 CURVE"
);
},
{
closed = 1;
nodes = (
"138 505 OFFCURVE",
"208 601 OFFCURVE",
"314 642 CURVE",
"324 506 OFFCURVE",
"321 389 OFFCURVE",
"317 266 CURVE SMOOTH",
"316 232 OFFCURVE",
"309 187 OFFCURVE",
"285 130 CURVE",
"197 182 OFFCURVE",
"138 274 OFFCURVE",
"138 378 CURVE SMOOTH"
);
},
{
closed = 1;
nodes = (
"552 558 OFFCURVE",
"590 522 OFFCURVE",
"617 497 CURVE",
"465 334 LINE",
"465 399 OFFCURVE",
"465 468 OFFCURVE",
"466 529 CURVE",
"532 590 LINE"
);
}
);
width = 811;
}
);
leftMetricsKey = O;
},
{
color = 3;
glyphname = F;
lastChange = "2020-01-30 18:16:41 +0000";
layers = (
{
layerId = "31E65565-C22C-4792-86EE-013C6F95D489";
paths = (
{
closed = 1;
nodes = (
"135 -1 OFFCURVE",
"230 -1 OFFCURVE",
"324 -5 CURVE",
"324 30 LINE",
"266 48 OFFCURVE",
"224 50 OFFCURVE",
"224 115 CURVE SMOOTH",
"224 300 LINE",
"421 300 LINE SMOOTH",
"511 300 OFFCURVE",
"517 278 OFFCURVE",
"533 209 CURVE",
"573 209 LINE",
"566 279 OFFCURVE",
"565 351 OFFCURVE",
"573 427 CURVE",
"533 427 LINE",
"519 360 OFFCURVE",
"503 340 OFFCURVE",
"421 340 CURVE SMOOTH",
"224 340 LINE",
"224 548 LINE SMOOTH",
"224 631 OFFCURVE",
"262 657 OFFCURVE",
"331 657 CURVE SMOOTH",
"410 657 LINE SMOOTH",
"546 657 OFFCURVE",
"597 583 OFFCURVE",
"604 503 CURVE",
"644 503 LINE",
"644 565 OFFCURVE",
"646 625 OFFCURVE",
"664 686 CURVE",
"654 700 LINE",
"503 697 OFFCURVE",
"324 700 OFFCURVE",
"173 700 CURVE SMOOTH",
"143 700 OFFCURVE",
"74 701 OFFCURVE",
"44 703 CURVE",
"44 663 LINE",
"114 653 OFFCURVE",
"124 620 OFFCURVE",
"124 560 CURVE SMOOTH",
"124 115 LINE SMOOTH",
"124 55 OFFCURVE",
"91 47 OFFCURVE",
"40 30 CURVE",
"41 -5 LINE"
);
}
);
width = 674;
}
);
leftMetricsKey = H;
unicode = 0046;
},
{
color = 3;
glyphname = F.ss01;
lastChange = "2020-02-04 07:40:53 +0000";
layers = (
{
layerId = "31E65565-C22C-4792-86EE-013C6F95D489";
paths = (
{
closed = 1;
nodes = (
"502 387 OFFCURVE",
"488 386 OFFCURVE",
"473 386 CURVE",
"468 441 OFFCURVE",
"462 499 OFFCURVE",
"462 563 CURVE SMOOTH",
"462 628 OFFCURVE",
"473 662 OFFCURVE",
"516 662 CURVE SMOOTH",
"547 662 OFFCURVE",
"570 641 OFFCURVE",
"604 605 CURVE",
"608 605 LINE",
"676 672 LINE",
"648 701 OFFCURVE",
"578 716 OFFCURVE",
"536 716 CURVE SMOOTH",
"486 716 OFFCURVE",
"434 700 OFFCURVE",
"401 658 CURVE",
"376 666 OFFCURVE",
"356 667 OFFCURVE",
"336 667 CURVE SMOOTH",
"246 667 OFFCURVE",
"171 599 OFFCURVE",
"171 471 CURVE SMOOTH",
"171 445 OFFCURVE",
"174 412 OFFCURVE",
"178 376 CURVE",
"170 376 OFFCURVE",
"163 375 OFFCURVE",
"155 375 CURVE SMOOTH",
"80 371 OFFCURVE",
"35 334 OFFCURVE",
"10 262 CURVE",
"32 252 LINE",
"49 292 OFFCURVE",
"86 307 OFFCURVE",
"186 309 CURVE",
"193 250 OFFCURVE",
"200 192 OFFCURVE",
"200 155 CURVE SMOOTH",
"200 2 OFFCURVE",
"160 -42 OFFCURVE",
"40 -66 CURVE",
"45 -89 LINE",
"217 -65 OFFCURVE",
"291 31 OFFCURVE",
"291 155 CURVE SMOOTH",
"291 194 OFFCURVE",
"285 251 OFFCURVE",
"279 309 CURVE",
"391 309 LINE",
"397 257 OFFCURVE",
"403 206 OFFCURVE",
"401 139 CURVE SMOOTH",
"400 100 OFFCURVE",
"395 63 OFFCURVE",
"380 16 CURVE",
"402 8 LINE",
"409 23 OFFCURVE",
"414 35 OFFCURVE",
"423 35 CURVE SMOOTH",
"453 35 OFFCURVE",
"483 11 OFFCURVE",
"518 -9 CURVE",
"553 15 OFFCURVE",
"591 42 OFFCURVE",
"636 65 CURVE",
"622 88 LINE",
"604 80 OFFCURVE",
"578 80 OFFCURVE",
"564 80 CURVE SMOOTH",
"522 80 OFFCURVE",
"493 101 OFFCURVE",
"444 111 CURVE",
"454 161 OFFCURVE",
"479 214 OFFCURVE",
"479 276 CURVE SMOOTH",
"479 287 OFFCURVE",
"479 298 OFFCURVE",
"478 309 CURVE",
"643 309 LINE",
"644 338 OFFCURVE",
"643 359 OFFCURVE",
"649 411 CURVE",
"625 415 LINE",
"608 394 OFFCURVE",
"592 389 OFFCURVE",
"517 387 CURVE SMOOTH"
);
},
{
closed = 1;
nodes = (
"268 420 OFFCURVE",
"265 457 OFFCURVE",
"265 482 CURVE SMOOTH",
"265 569 OFFCURVE",
"299 630 OFFCURVE",
"384 630 CURVE",
"375 609 OFFCURVE",
"370 585 OFFCURVE",
"370 555 CURVE SMOOTH",
"370 485 OFFCURVE",
"375 432 OFFCURVE",
"381 383 CURVE",
"272 380 LINE"
);
}
);
width = 696;
}
);
},
{
color = 3;
glyphname = G;
lastChange = "2020-02-04 07:40:59 +0000";
layers = (
{
layerId = "31E65565-C22C-4792-86EE-013C6F95D489";
paths = (
{
closed = 1;
nodes = (
"524 -10 OFFCURVE",
"635 19 OFFCURVE",
"738 60 CURVE",
"738 89 LINE",
"717 96 OFFCURVE",
"685 96 OFFCURVE",
"685 141 CURVE SMOOTH",
"685 247 LINE SMOOTH",
"685 297 OFFCURVE",
"715 310 OFFCURVE",
"754 320 CURVE",
"754 356 LINE",
"663 347 OFFCURVE",
"588 347 OFFCURVE",
"495 356 CURVE",
"495 322 LINE",
"559 312 OFFCURVE",
"585 290 OFFCURVE",
"585 250 CURVE SMOOTH",
"585 101 LINE",
"554 69 OFFCURVE",
"482 35 OFFCURVE",
"414 35 CURVE SMOOTH",
"254 35 OFFCURVE",
"155 190 OFFCURVE",
"155 350 CURVE SMOOTH",
"155 540 OFFCURVE",
"272 665 OFFCURVE",
"420 665 CURVE SMOOTH",
"523 665 OFFCURVE",
"592 598 OFFCURVE",
"634 498 CURVE",
"674 499 LINE",
"682 561 OFFCURVE",
"687 613 OFFCURVE",
"701 675 CURVE",
"621 698 OFFCURVE",
"546 710 OFFCURVE",
"440 710 CURVE SMOOTH",
"237 710 OFFCURVE",
"35 570 OFFCURVE",
"35 340 CURVE SMOOTH",
"35 130 OFFCURVE",
"214 -10 OFFCURVE",
"414 -10 CURVE SMOOTH"
);
}
);
width = 784;
}
);
leftMetricsKey = O;
unicode = 0047;
},
{
color = 3;
glyphname = G.ss01;
lastChange = "2020-02-04 07:56:31 +0000";
layers = (
{
layerId = "31E65565-C22C-4792-86EE-013C6F95D489";
paths = (
{
closed = 1;
nodes = (
"480 484 OFFCURVE",
"410 394 OFFCURVE",
"350 318 CURVE",
"352 332 OFFCURVE",
"353 346 OFFCURVE",
"353 360 CURVE SMOOTH",
"353 439 OFFCURVE",
"304 496 OFFCURVE",
"304 559 CURVE SMOOTH",
"304 592 OFFCURVE",
"310 612 OFFCURVE",
"337 635 CURVE",
"391 604 OFFCURVE",
"447 530 OFFCURVE",
"461 530 CURVE SMOOTH",
"527 530 OFFCURVE",
"594 582 OFFCURVE",
"670 662 CURVE",
"670 667 LINE",
"586 689 LINE",
"576 660 OFFCURVE",
"560 595 OFFCURVE",
"526 595 CURVE SMOOTH",
"495 595 OFFCURVE",
"437 639 OFFCURVE",
"437 674 CURVE SMOOTH",
"437 689 OFFCURVE",
"450 696 OFFCURVE",
"459 703 CURVE",
"459 707 LINE",
"415 717 LINE",
"335 689 OFFCURVE",
"56 530 OFFCURVE",
"56 447 CURVE SMOOTH",
"56 390 OFFCURVE",
"137 302 OFFCURVE",
"137 217 CURVE SMOOTH",
"137 122 OFFCURVE",
"90 76 OFFCURVE",
"50 13 CURVE",
"69 -9 LINE",
"113 26 OFFCURVE",
"188 39 OFFCURVE",
"241 39 CURVE SMOOTH",
"369 39 OFFCURVE",
"488 -14 OFFCURVE",
"497 -9 CURVE SMOOTH",
"629 64 OFFCURVE",
"743 172 OFFCURVE",
"743 297 CURVE SMOOTH",
"743 431 OFFCURVE",
"634 484 OFFCURVE",
"497 484 CURVE SMOOTH"
);
},
{
closed = 1;
nodes = (
"160 516 OFFCURVE",
"178 538 OFFCURVE",
"223 571 CURVE",
"220 561 OFFCURVE",
"219 558 OFFCURVE",
"219 544 CURVE SMOOTH",
"219 483 OFFCURVE",
"269 413 OFFCURVE",
"269 322 CURVE SMOOTH",
"269 254 OFFCURVE",
"246 178 OFFCURVE",
"162 128 CURVE",
"199 182 OFFCURVE",
"206 232 OFFCURVE",
"206 276 CURVE SMOOTH",
"206 336 OFFCURVE",
"160 405 OFFCURVE",
"160 465 CURVE SMOOTH"
);
},
{
closed = 1;
nodes = (
"512 80 OFFCURVE",
"378 119 OFFCURVE",
"310 119 CURVE SMOOTH",
"262 119 OFFCURVE",
"235 119 OFFCURVE",
"181 98 CURVE",
"229 129 OFFCURVE",
"266 162 OFFCURVE",
"293 195 CURVE SMOOTH",
"296 199 LINE SMOOTH",
"300 204 OFFCURVE",
"303 209 OFFCURVE",
"307 213 CURVE",
"385 320 OFFCURVE",
"446 390 OFFCURVE",
"516 390 CURVE SMOOTH",
"586 390 OFFCURVE",
"635 335 OFFCURVE",
"635 250 CURVE SMOOTH",
"635 146 OFFCURVE",
"559 80 OFFCURVE",
"546 80 CURVE SMOOTH"
);
}
);
width = 763;
}
);
},
{
color = 3;
glyphname = H;
lastChange = "2020-02-04 07:37:45 +0000";
layers = (
{
layerId = "31E65565-C22C-4792-86EE-013C6F95D489";
paths = (
{
closed = 1;
nodes = (
"843 588 LINE SMOOTH",
"843 641 OFFCURVE",
"871 651 OFFCURVE",
"919 664 CURVE",
"919 704 LINE",
"822 700 OFFCURVE",
"775 700 OFFCURVE",
"688 704 CURVE",
"688 664 LINE",
"726 651 OFFCURVE",
"743 641 OFFCURVE",
"743 588 CURVE SMOOTH",
"743 396 LINE",
"226 399 LINE",
"227 593 LINE SMOOTH",
"227 634 OFFCURVE",
"259 646 OFFCURVE",
"274 664 CURVE",
"274 704 LINE",
"199 700 OFFCURVE",
"115 700 OFFCURVE",
"40 704 CURVE",
"40 664 LINE",
"78 651 OFFCURVE",
"125 641 OFFCURVE",
"125 588 CURVE SMOOTH",
"125 112 LINE SMOOTH",
"125 59 OFFCURVE",
"78 43 OFFCURVE",
"66 36 CURVE",
"66 -4 LINE",
"126 1 OFFCURVE",
"221 1 OFFCURVE",
"320 -4 CURVE",
"320 36 LINE",
"272 49 OFFCURVE",
"225 59 OFFCURVE",
"225 112 CURVE SMOOTH",
"226 351 LINE",
"743 348 LINE",
"743 112 LINE SMOOTH",
"743 59 OFFCURVE",
"696 49 OFFCURVE",
"668 36 CURVE",
"668 -4 LINE",
"733 1 OFFCURVE",
"817 1 OFFCURVE",
"922 -4 CURVE",
"922 36 LINE",
"877 54 OFFCURVE",
"845 66 OFFCURVE",
"845 107 CURVE SMOOTH"
);
}
);
width = 962;
}
);
unicode = 0048;
},
{
color = 3;
glyphname = H.ss01;
lastChange = "2020-02-04 08:00:40 +0000";
layers = (
{
layerId = "31E65565-C22C-4792-86EE-013C6F95D489";
paths = (
{
closed = 1;
nodes = (
"525 659 OFFCURVE",
"452 589 OFFCURVE",
"408 513 CURVE",
"409 707 LINE",
"310 697 OFFCURVE",
"100 728 OFFCURVE",
"53 611 CURVE",
"45 511 LINE",
"74 511 LINE",
"121 596 OFFCURVE",
"171 627 OFFCURVE",
"233 639 CURVE",
"227 424 LINE",
"145 372 LINE",
"145 369 LINE",
"177 359 OFFCURVE",
"201 344 OFFCURVE",
"221 322 CURVE",
"145 271 LINE",
"146 267 LINE",
"178 258 OFFCURVE",
"230 224 OFFCURVE",
"235 202 CURVE SMOOTH",
"239 186 OFFCURVE",
"245 139 OFFCURVE",
"220 92 CURVE",
"189 81 OFFCURVE",
"150 62 OFFCURVE",
"115 37 CURVE",
"115 33 LINE",
"202 -19 LINE",
"239 3 OFFCURVE",
"272 15 OFFCURVE",
"313 15 CURVE SMOOTH",
"356 15 OFFCURVE",
"404 -5 OFFCURVE",
"449 -19 CURVE",
"452 -19 LINE",
"498 0 OFFCURVE",
"578 81 OFFCURVE",
"629 130 CURVE",
"613 158 LINE",
"556 105 OFFCURVE",
"501 66 OFFCURVE",
"477 66 CURVE SMOOTH",
"458 66 OFFCURVE",
"432 72 OFFCURVE",
"404 79 CURVE",
"407 446 LINE",
"446 524 OFFCURVE",
"494 583 OFFCURVE",
"567 583 CURVE SMOOTH",
"681 583 OFFCURVE",
"751 429 OFFCURVE",
"751 297 CURVE SMOOTH",
"751 184 OFFCURVE",
"721 102 OFFCURVE",
"652 -3 CURVE",
"684 -19 LINE",
"773 122 OFFCURVE",
"845 215 OFFCURVE",
"845 383 CURVE SMOOTH",
"845 525 OFFCURVE",
"753 659 OFFCURVE",
"612 659 CURVE SMOOTH"
);
},
{
closed = 1;
nodes = (
"293 144 OFFCURVE",
"318 178 OFFCURVE",
"318 246 CURVE SMOOTH",
"318 645 LINE",
"381 645 LINE",
"381 85 LINE",
"344 94 OFFCURVE",
"304 104 OFFCURVE",
"269 104 CURVE"
);
},
{
closed = 1;
nodes = (
"566 257 LINE",
"638 338 LINE",
"561 416 LINE",
"485 336 LINE"
);
}
);
width = 890;
}
);
},
{
color = 6;
glyphname = I;
lastChange = "2020-01-30 18:16:41 +0000";
layers = (
{
layerId = "31E65565-C22C-4792-86EE-013C6F95D489";
paths = (
{
closed = 1;
nodes = (
"400 722 LINE",
"399 722 LINE",
"289 690 OFFCURVE",
"234 713 OFFCURVE",
"84 713 CURVE",
"5 600 LINE",
"31 586 LINE",
"81 627 OFFCURVE",
"217 622 OFFCURVE",
"304 619 CURVE",
"288 548 OFFCURVE",
"277 487 OFFCURVE",
"273 415 CURVE",
"183 349 LINE",
"183 344 LINE",
"222 336 OFFCURVE",
"255 321 OFFCURVE",
"277 294 CURVE",
"282 253 OFFCURVE",
"288 214 OFFCURVE",
"288 169 CURVE SMOOTH",
"288 46 OFFCURVE",
"159 -60 OFFCURVE",
"115 -83 CURVE",
"127 -115 LINE",
"184 -100 OFFCURVE",
"391 48 OFFCURVE",
"391 150 CURVE SMOOTH",
"391 234 OFFCURVE",
"374 308 OFFCURVE",
"374 445 CURVE SMOOTH",
"374 535 OFFCURVE",
"371 599 OFFCURVE",
"418 708 CURVE"
);
}
);
width = 463;
}
);
unicode = 0049;
},
{
color = 3;
glyphname = J;
lastChange = "2020-02-04 08:01:56 +0000";
layers = (
{
layerId = "31E65565-C22C-4792-86EE-013C6F95D489";
paths = (
{
closed = 1;
nodes = (
"434 717 LINE",
"433 717 LINE",
"341 665 OFFCURVE",
"193 719 OFFCURVE",
"55 719 CURVE",
"5 615 LINE",
"29 602 LINE",
"75 651 OFFCURVE",
"274 606 OFFCURVE",
"352 601 CURVE",
"339 546 OFFCURVE",
"319 483 OFFCURVE",
"309 423 CURVE",
"196 368 LINE",
"196 362 LINE",
"238 354 OFFCURVE",
"273 339 OFFCURVE",
"299 313 CURVE",
"206 258 LINE",
"206 255 LINE",
"265 235 OFFCURVE",
"322 221 OFFCURVE",
"340 154 CURVE SMOOTH",
"339 158 LINE SMOOTH",
"344 139 OFFCURVE",
"348 120 OFFCURVE",
"348 97 CURVE SMOOTH",
"348 13 OFFCURVE",
"307 -40 OFFCURVE",
"226 -40 CURVE SMOOTH",
"133 -40 OFFCURVE",
"69 36 OFFCURVE",
"49 72 CURVE",
"17 49 LINE",
"49 -11 OFFCURVE",
"117 -88 OFFCURVE",
"225 -88 CURVE SMOOTH",
"339 -88 OFFCURVE",
"435 4 OFFCURVE",
"435 89 CURVE SMOOTH",
"435 161 OFFCURVE",
"409 234 OFFCURVE",
"409 360 CURVE SMOOTH",
"409 444 OFFCURVE",
"408 604 OFFCURVE",
"451 704 CURVE"
);
}
);
width = 496;
}
);
unicode = 004A;
},
{
color = 6;
glyphname = K;
lastChange = "2020-02-04 08:02:25 +0000";
layers = (
{
layerId = "31E65565-C22C-4792-86EE-013C6F95D489";
paths = (
{
closed = 1;
nodes = (
"644 700 LINE",
"598 694 OFFCURVE",
"499 696 OFFCURVE",
"409 700 CURVE",
"409 662 LINE",
"453 657 OFFCURVE",
"474 647 OFFCURVE",
"443 599 CURVE SMOOTH",
"300 375 LINE",
"187 375 LINE",
"187 560 LINE SMOOTH",
"187 642 OFFCURVE",
"192 653 OFFCURVE",
"257 663 CURVE",
"257 703 LINE",
"200 701 OFFCURVE",
"112 700 OFFCURVE",
"52 703 CURVE",
"52 663 LINE",
"83 642 OFFCURVE",
"87 615 OFFCURVE",
"87 570 CURVE SMOOTH",
"87 100 LINE SMOOTH",
"87 60 OFFCURVE",
"80 46 OFFCURVE",
"40 32 CURVE",
"40 -3 LINE",
"73 -1 OFFCURVE",
"175 -2 OFFCURVE",
"237 -2 CURVE",
"237 32 LINE",
"200 46 OFFCURVE",
"187 60 OFFCURVE",
"187 100 CURVE SMOOTH",
"187 335 LINE",
"266 335 LINE",
"428 98 LINE SMOOTH",
"460 51 OFFCURVE",
"438 40 OFFCURVE",
"394 35 CURVE",
"394 -3 LINE",
"484 1 OFFCURVE",
"590 3 OFFCURVE",
"636 -3 CURVE",
"636 35 LINE",
"611 47 OFFCURVE",
"602 47 OFFCURVE",
"560 105 CURVE SMOOTH",
"355 386 LINE",
"525 592 LINE SMOOTH",
"569 645 OFFCURVE",
"619 650 OFFCURVE",
"644 662 CURVE"
);
}
);
width = 649;
}
);
leftMetricsKey = L;
unicode = 004B;
},
{
color = 3;
glyphname = L;
lastChange = "2020-02-04 08:02:15 +0000";
layers = (
{
layerId = "31E65565-C22C-4792-86EE-013C6F95D489";
paths = (
{
closed = 1;
nodes = (
"71 -1 OFFCURVE",
"113 0 OFFCURVE",
"155 0 CURVE SMOOTH",
"648 0 LINE",
"690 43 OFFCURVE",
"718 106 OFFCURVE",
"718 200 CURVE",
"688 200 LINE",
"673 91 OFFCURVE",
"639 57 OFFCURVE",
"576 57 CURVE SMOOTH",
"175 56 LINE",
"175 560 LINE SMOOTH",
"175 642 OFFCURVE",
"180 653 OFFCURVE",
"245 663 CURVE",
"245 703 LINE",
"188 701 OFFCURVE",
"100 700 OFFCURVE",
"40 703 CURVE",
"40 663 LINE",
"71 642 OFFCURVE",
"75 615 OFFCURVE",
"75 570 CURVE SMOOTH",
"75 120 LINE SMOOTH",
"75 80 OFFCURVE",
"68 60 OFFCURVE",
"50 37 CURVE",
"50 -3 LINE"
);
}
);
width = 723;
}
);
unicode = 004C;
},
{
color = 3;
glyphname = L.ss01;
lastChange = "2020-02-04 08:02:38 +0000";
layers = (
{
layerId = "31E65565-C22C-4792-86EE-013C6F95D489";
paths = (
{
closed = 1;
nodes = (
"788 84 OFFCURVE",
"782 80 OFFCURVE",
"735 83 CURVE SMOOTH",
"698 86 OFFCURVE",
"638 96 OFFCURVE",
"576 106 CURVE",
"585 658 LINE",
"624 671 OFFCURVE",
"670 680 OFFCURVE",
"729 683 CURVE",
"730 709 LINE",
"569 713 OFFCURVE",
"541 688 OFFCURVE",
"412 681 CURVE SMOOTH",
"322 676 OFFCURVE",
"210 694 OFFCURVE",
"144 703 CURVE",
"104 686 OFFCURVE",
"45 604 OFFCURVE",
"30 524 CURVE",
"57 518 LINE",
"74 561 OFFCURVE",
"103 619 OFFCURVE",
"146 619 CURVE SMOOTH",
"212 619 OFFCURVE",
"275 599 OFFCURVE",
"363 593 CURVE",
"365 543 OFFCURVE",
"366 499 OFFCURVE",
"368 459 CURVE",
"261 399 LINE",
"261 396 LINE",
"300 383 OFFCURVE",
"345 373 OFFCURVE",
"371 343 CURVE",
"371 336 LINE",
"261 275 LINE",
"262 272 LINE",
"294 262 OFFCURVE",
"326 258 OFFCURVE",
"372 236 CURVE",
"372 186 OFFCURVE",
"371 151 OFFCURVE",
"368 122 CURVE",
"327 115 OFFCURVE",
"288 98 OFFCURVE",
"263 81 CURVE",
"257 -7 LINE",
"273 -7 LINE",
"294 25 OFFCURVE",
"360 47 OFFCURVE",
"408 47 CURVE SMOOTH",
"502 47 OFFCURVE",
"671 4 OFFCURVE",
"734 -15 CURVE",
"849 91 LINE",
"827 110 LINE"
);
},
{
closed = 1;
nodes = (
"520 115 OFFCURVE",
"492 119 OFFCURVE",
"467 121 CURVE",
"461 291 OFFCURVE",
"459 463 OFFCURVE",
"459 602 CURVE",
"485 614 OFFCURVE",
"516 631 OFFCURVE",
"556 647 CURVE",
"547 111 LINE"
);
}
);
width = 864;
}
);
},
{
color = 3;
glyphname = M;
lastChange = "2020-01-30 18:16:41 +0000";
layers = (
{
layerId = "31E65565-C22C-4792-86EE-013C6F95D489";
paths = (
{
closed = 1;
nodes = (
"911 703 LINE",
"789 699 OFFCURVE",
"721 699 OFFCURVE",
"616 703 CURVE",
"613 668 LINE",
"721 652 OFFCURVE",
"715 631 OFFCURVE",
"693 588 CURVE SMOOTH",
"482 177 LINE",
"262 582 LINE SMOOTH",
"239 624 OFFCURVE",
"253 637 OFFCURVE",
"345 647 CURVE",
"345 682 LINE",
"224 677 OFFCURVE",
"166 677 OFFCURVE",
"40 682 CURVE",
"40 647 LINE",
"130 636 OFFCURVE",
"130 625 OFFCURVE",
"126 527 CURVE SMOOTH",
"110 166 LINE SMOOTH",
"105 51 OFFCURVE",
"105 43 OFFCURVE",
"58 32 CURVE",
"58 -3 LINE",
"122 0 OFFCURVE",
"229 3 OFFCURVE",
"333 -3 CURVE",
"333 32 LINE",
"231 47 OFFCURVE",
"212 34 OFFCURVE",
"215 141 CURVE SMOOTH",
"228 543 LINE",
"492 50 LINE",
"515 50 LINE",
"603 209 OFFCURVE",
"678 366 OFFCURVE",
"784 525 CURVE",
"790 153 LINE SMOOTH",
"792 57 OFFCURVE",
"794 49 OFFCURVE",
"668 31 CURVE",
"669 -3 LINE",
"756 0 OFFCURVE",
"837 0 OFFCURVE",
"899 -3 CURVE",
"899 32 LINE",
"864 45 OFFCURVE",
"863 58 OFFCURVE",
"861 88 CURVE SMOOTH",
"834 591 LINE SMOOTH",
"831 641 OFFCURVE",
"834 657 OFFCURVE",
"911 668 CURVE"
);
}
);
width = 951;
}
);
leftMetricsKey = H;
rightMetricsKey = H;
unicode = 004D;
},
{
color = 3;
glyphname = M.ss01;
lastChange = "2020-01-30 18:16:41 +0000";
layers = (
{
layerId = "31E65565-C22C-4792-86EE-013C6F95D489";
paths = (
{
closed = 1;
nodes = (
"1170 575 OFFCURVE",
"1066 707 OFFCURVE",
"868 707 CURVE SMOOTH",
"734 707 OFFCURVE",
"658 632 OFFCURVE",
"609 517 CURVE",
"574 620 OFFCURVE",
"490 707 OFFCURVE",
"348 707 CURVE SMOOTH",
"174 707 OFFCURVE",
"30 547 OFFCURVE",
"30 321 CURVE SMOOTH",
"30 161 OFFCURVE",
"116 -6 OFFCURVE",
"315 -6 CURVE SMOOTH",
"330 -6 OFFCURVE",
"435 67 OFFCURVE",
"509 110 CURVE",
"499 79 OFFCURVE",
"486 43 OFFCURVE",
"470 -2 CURVE",
"474 -9 LINE",
"533 -20 OFFCURVE",
"599 -62 OFFCURVE",
"639 -87 CURVE",
"752 17 LINE",
"730 33 LINE",
"665 7 OFFCURVE",
"640 34 OFFCURVE",
"547 65 CURVE",
"567 108 OFFCURVE",
"591 173 OFFCURVE",
"608 247 CURVE",
"1026 247 LINE",
"988 150 OFFCURVE",
"925 67 OFFCURVE",
"925 4 CURVE",
"935 -34 OFFCURVE",
"948 -80 OFFCURVE",
"986 -128 CURVE",
"1018 -106 LINE",
"1000 -77 OFFCURVE",
"978 -34 OFFCURVE",
"978 4 CURVE SMOOTH",
"978 85 OFFCURVE",
"1170 224 OFFCURVE",
"1170 427 CURVE SMOOTH"
);
},
{
closed = 1;
nodes = (
"436 633 OFFCURVE",
"510 523 OFFCURVE",
"533 385 CURVE",
"132 385 LINE",
"141 527 OFFCURVE",
"203 633 OFFCURVE",
"323 633 CURVE SMOOTH"
);
},
{
closed = 1;
nodes = (
"966 617 OFFCURVE",
"1051 517 OFFCURVE",
"1054 386 CURVE",
"627 386 LINE",
"627 404 LINE SMOOTH",
"627 424 OFFCURVE",
"625 444 OFFCURVE",
"622 464 CURVE",
"674 563 OFFCURVE",
"732 617 OFFCURVE",
"831 617 CURVE SMOOTH"
);
},
{
closed = 1;
nodes = (
"619 300 OFFCURVE",
"623 331 OFFCURVE",
"626 363 CURVE",
"1053 363 LINE",
"1052 331 OFFCURVE",
"1044 300 OFFCURVE",
"1034 270 CURVE",
"613 270 LINE"
);
},
{
closed = 1;
nodes = (
"540 269 LINE",
"138 269 LINE",
"133 293 OFFCURVE",
"131 319 OFFCURVE",
"131 348 CURVE SMOOTH",
"131 362 LINE",
"536 362 LINE",
"539 341 OFFCURVE",
"540 318 OFFCURVE",
"540 296 CURVE SMOOTH"
);
},
{
closed = 1;
nodes = (
"467 113 OFFCURVE",
"413 83 OFFCURVE",
"326 83 CURVE SMOOTH",
"246 83 OFFCURVE",
"171 135 OFFCURVE",
"143 246 CURVE",
"538 246 LINE",
"536 213 OFFCURVE",
"531 185 OFFCURVE",
"523 155 CURVE"
);
}
);
width = 1200;
}
);
},
{
color = 3;
glyphname = N;
lastChange = "2020-02-04 08:02:54 +0000";
layers = (
{
layerId = "31E65565-C22C-4792-86EE-013C6F95D489";
paths = (
{
closed = 1;
nodes = (
"558 144 OFFCURVE",
"727 342 OFFCURVE",
"727 463 CURVE SMOOTH",
"727 603 OFFCURVE",
"627 709 OFFCURVE",
"431 709 CURVE SMOOTH",
"348 709 OFFCURVE",
"250 667 OFFCURVE",
"180 610 CURVE",
"128 574 OFFCURVE",
"77 526 OFFCURVE",
"45 486 CURVE",
"45 484 LINE",
"62 468 OFFCURVE",
"79 450 OFFCURVE",
"90 424 CURVE",
"61 378 LINE",
"61 375 LINE",
"79 366 OFFCURVE",
"97 352 OFFCURVE",
"113 324 CURVE",
"116 316 LINE",
"92 274 LINE",
"116 258 OFFCURVE",
"128 250 OFFCURVE",
"158 223 CURVE",
"158 221 OFFCURVE",
"159 220 OFFCURVE",
"160 218 CURVE",
"132 188 LINE",
"133 186 LINE",
"161 181 OFFCURVE",
"183 168 OFFCURVE",
"196 151 CURVE",
"222 104 OFFCURVE",
"243 65 OFFCURVE",
"243 34 CURVE SMOOTH",
"243 -20 OFFCURVE",
"179 -15 OFFCURVE",
"123 6 CURVE",
"112 -25 LINE",
"136 -42 OFFCURVE",
"169 -52 OFFCURVE",
"196 -52 CURVE SMOOTH",
"273 -52 OFFCURVE",
"299 -6 OFFCURVE",
"299 67 CURVE SMOOTH",
"299 164 OFFCURVE",
"182 307 OFFCURVE",
"182 447 CURVE SMOOTH",
"182 564 OFFCURVE",
"285 649 OFFCURVE",
"382 653 CURVE",
"378 569 OFFCURVE",
"376 485 OFFCURVE",
"375 401 CURVE",
"315 344 LINE",
"375 291 LINE",
"375 190 OFFCURVE",
"377 88 OFFCURVE",
"382 -13 CURVE",
"446 -5 OFFCURVE",
"545 6 OFFCURVE",
"625 1 CURVE",
"634 -9 OFFCURVE",
"638 -23 OFFCURVE",
"642 -33 CURVE",
"667 -32 LINE",
"669 0 OFFCURVE",
"681 49 OFFCURVE",
"687 81 CURVE",
"683 86 LINE",
"639 88 OFFCURVE",
"593 87 OFFCURVE",
"497 76 CURVE"
);
},
{
closed = 1;
nodes = (
"617 295 OFFCURVE",
"507 118 OFFCURVE",
"409 20 CURVE",
"405 103 OFFCURVE",
"403 187 OFFCURVE",
"403 271 CURVE",
"477 346 LINE",
"403 413 LINE",
"404 493 OFFCURVE",
"406 573 OFFCURVE",
"410 652 CURVE",
"556 643 OFFCURVE",
"617 543 OFFCURVE",
"617 428 CURVE SMOOTH"
);
}
);
width = 772;
}
);
unicode = 004E;
},
{
color = 3;
glyphname = O;
lastChange = "2020-02-04 07:37:14 +0000";
layers = (
{
layerId = "31E65565-C22C-4792-86EE-013C6F95D489";
paths = (
{
closed = 1;
nodes = (
"606 -10 OFFCURVE",
"775 146 OFFCURVE",
"775 348 CURVE SMOOTH",
"775 558 OFFCURVE",
"611 710 OFFCURVE",
"408 710 CURVE SMOOTH",
"204 710 OFFCURVE",
"35 554 OFFCURVE",
"35 352 CURVE SMOOTH",
"35 142 OFFCURVE",
"199 -10 OFFCURVE",
"402 -10 CURVE SMOOTH"
);
},
{
closed = 1;
nodes = (
"245 30 OFFCURVE",
"149 200 OFFCURVE",
"149 374 CURVE SMOOTH",
"149 525 OFFCURVE",
"228 670 OFFCURVE",
"399 670 CURVE SMOOTH",
"561 670 OFFCURVE",
"662 503 OFFCURVE",
"662 329 CURVE SMOOTH",
"662 178 OFFCURVE",
"580 30 OFFCURVE",
"408 30 CURVE SMOOTH"
);
}
);
width = 810;
}
);
unicode = 004F;
},
{
color = 3;
glyphname = O.ss01;
lastChange = "2020-02-04 08:10:31 +0000";
layers = (
{
layerId = "31E65565-C22C-4792-86EE-013C6F95D489";
paths = (
{
closed = 1;
nodes = (
"35 141 OFFCURVE",
"185 -10 OFFCURVE",
"389 -10 CURVE SMOOTH",
"593 -10 OFFCURVE",
"789 151 OFFCURVE",
"789 358 CURVE SMOOTH",
"789 554 OFFCURVE",
"649 709 OFFCURVE",
"436 709 CURVE SMOOTH",
"235 709 OFFCURVE",
"35 547 OFFCURVE",
"35 337 CURVE SMOOTH"
);
},
{
closed = 1;
nodes = (
"146 525 OFFCURVE",
"262 663 OFFCURVE",
"432 663 CURVE",
"404 386 LINE",
"330 333 LINE",
"388 254 LINE",
"367 39 LINE",
"225 63 OFFCURVE",
"146 185 OFFCURVE",
"146 346 CURVE SMOOTH"
);
},
{
closed = 1;
nodes = (
"417 255 LINE",
"492 314 LINE",
"432 386 LINE",
"463 660 LINE",
"588 638 OFFCURVE",
"676 522 OFFCURVE",
"676 349 CURVE SMOOTH",
"676 155 OFFCURVE",
"577 25 OFFCURVE",
"392 36 CURVE"
);
}
);
width = 824;
}
);
leftMetricsKey = O;
rightMetricsKey = O;
},
{
color = 3;
glyphname = P;
lastChange = "2020-02-04 08:04:11 +0000";
layers = (
{
layerId = "31E65565-C22C-4792-86EE-013C6F95D489";
paths = (
{
closed = 1;
nodes = (
"117 0 OFFCURVE",
"213 0 OFFCURVE",
"310 -4 CURVE",
"310 30 LINE",
"233 50 OFFCURVE",
"215 53 OFFCURVE",
"215 106 CURVE SMOOTH",
"217 533 LINE SMOOTH",
"217 612 OFFCURVE",
"232 660 OFFCURVE",
"347 660 CURVE SMOOTH",
"513 660 OFFCURVE",
"590 544 OFFCURVE",
"590 437 CURVE SMOOTH",
"590 291 OFFCURVE",
"485 245 OFFCURVE",
"338 270 CURVE",
"343 247 LINE",
"384 236 OFFCURVE",
"410 235 OFFCURVE",
"434 235 CURVE SMOOTH",
"554 235 OFFCURVE",
"694 309 OFFCURVE",
"694 470 CURVE SMOOTH",
"694 633 OFFCURVE",
"578 700 OFFCURVE",
"379 700 CURVE SMOOTH",
"40 700 LINE",
"40 660 LINE",
"98 653 OFFCURVE",
"115 647 OFFCURVE",
"115 594 CURVE SMOOTH",
"115 106 LINE SMOOTH",
"115 53 OFFCURVE",
"110 47 OFFCURVE",
"80 30 CURVE",
"80 -4 LINE"
);
}
);
width = 709;
}
);
leftMetricsKey = H;
unicode = 0050;
},
{
color = 3;
glyphname = P.ss01;
lastChange = "2020-02-04 08:10:52 +0000";
layers = (
{
layerId = "31E65565-C22C-4792-86EE-013C6F95D489";
paths = (
{
closed = 1;
nodes = (
"239 680 OFFCURVE",
"185 700 OFFCURVE",
"116 708 CURVE",
"45 608 LINE",
"67 590 LINE",
"103 616 OFFCURVE",
"158 612 OFFCURVE",
"178 584 CURVE",
"178 448 OFFCURVE",
"178 317 OFFCURVE",
"177 200 CURVE",
"135 167 OFFCURVE",
"104 150 OFFCURVE",
"62 121 CURVE",
"77 82 LINE",
"115 100 OFFCURVE",
"147 112 OFFCURVE",
"176 117 CURVE",
"175 -43 OFFCURVE",
"173 -169 OFFCURVE",
"169 -235 CURVE",
"287 -235 LINE",
"277 61 OFFCURVE",
"277 357 OFFCURVE",
"285 653 CURVE"
);
},
{
closed = 1;
nodes = (
"572 708 OFFCURVE",
"490 664 OFFCURVE",
"422 561 CURVE",
"422 650 LINE",
"380 650 LINE",
"380 -234 LINE",
"422 -234 LINE",
"422 98 LINE",
"487 53 OFFCURVE",
"547 11 OFFCURVE",
"644 -7 CURVE",
"771 13 OFFCURVE",
"1000 175 OFFCURVE",
"1000 383 CURVE SMOOTH",
"1000 576 OFFCURVE",
"888 708 OFFCURVE",
"685 708 CURVE SMOOTH"
);
},
{
closed = 1;
nodes = (
"590 90 OFFCURVE",
"493 155 OFFCURVE",
"422 219 CURVE",
"422 499 LINE",
"486 580 OFFCURVE",
"554 610 OFFCURVE",
"662 610 CURVE SMOOTH",
"830 610 OFFCURVE",
"906 483 OFFCURVE",
"906 360 CURVE SMOOTH",
"906 194 OFFCURVE",
"786 90 OFFCURVE",
"670 90 CURVE SMOOTH"
);
},
{
closed = 1;
nodes = (
"631 269 LINE",
"721 338 LINE",
"648 425 LINE",
"555 359 LINE"
);
}
);
width = 1035;
}
);
leftMetricsKey = H.ss01;
rightMetricsKey = O;
},
{
color = 3;
glyphname = Q;
lastChange = "2020-12-11 10:53:40 +0000";
layers = (
{
layerId = "31E65565-C22C-4792-86EE-013C6F95D489";
paths = (
{
closed = 1;
nodes = (
"654 710 OFFCURVE",
"435 710 CURVE SMOOTH",
"219 710 OFFCURVE",
"40 554 OFFCURVE",
"40 352 CURVE SMOOTH",
"40 157 OFFCURVE",
"191 11 OFFCURVE",
"385 -8 CURVE",
"656 -234 OFFCURVE",
"931 -297 OFFCURVE",
"1228 -222 CURVE",
"1218 -190 LINE",
"936 -255 OFFCURVE",
"691 -149 OFFCURVE",
"553 8 CURVE",
"710 54 OFFCURVE",
"825 186 OFFCURVE",
"825 348 CURVE SMOOTH",
"825 554 OFFCURVE"
);
},
{
closed = 1;
nodes = (
"426 30 OFFCURVE",
"418 30 OFFCURVE",
"409 31 CURVE SMOOTH",
"395 33 LINE SMOOTH",
"247 57 OFFCURVE",
"164 214 OFFCURVE",
"164 374 CURVE SMOOTH",
"164 525 OFFCURVE",
"244 670 OFFCURVE",
"426 670 CURVE SMOOTH",
"598 670 OFFCURVE",
"708 504 OFFCURVE",
"708 340 CURVE SMOOTH",
"708 169 OFFCURVE",
"618 30 OFFCURVE",
"435 30 CURVE SMOOTH"
);
}
);
width = 863;
}
);
unicode = 0051;
},
{
color = 3;
glyphname = Q_u;
lastChange = "2020-02-07 10:25:05 +0000";
layers = (
{
layerId = "31E65565-C22C-4792-86EE-013C6F95D489";
paths = (
{
closed = 1;
nodes = (
"1294 35 LINE",
"1275 45 OFFCURVE",
"1268 60 OFFCURVE",
"1265 105 CURVE SMOOTH",
"1261 158 OFFCURVE",
"1258 248 OFFCURVE",
"1258 311 CURVE SMOOTH",
"1258 339 OFFCURVE",
"1269 376 OFFCURVE",
"1274 399 CURVE",
"1264 409 LINE",
"1220 403 OFFCURVE",
"1164 400 OFFCURVE",
"1098 399 CURVE",
"1098 369 LINE",
"1136 369 OFFCURVE",
"1169 353 OFFCURVE",
"1169 313 CURVE SMOOTH",
"1169 119 LINE",
"1167 101 LINE",
"1144 66 OFFCURVE",
"1111 49 OFFCURVE",
"1078 49 CURVE SMOOTH",
"1010 49 OFFCURVE",
"995 98 OFFCURVE",
"990 153 CURVE SMOOTH",
"986 199 OFFCURVE",
"986 283 OFFCURVE",
"989 326 CURVE SMOOTH",
"991 354 OFFCURVE",
"996 361 OFFCURVE",
"1014 373 CURVE",
"1015 403 LINE",
"954 398 OFFCURVE",
"900 401 OFFCURVE",
"821 403 CURVE",
"794 584 OFFCURVE",
"632 710 OFFCURVE",
"435 710 CURVE SMOOTH",
"219 710 OFFCURVE",
"40 554 OFFCURVE",
"40 352 CURVE SMOOTH",
"40 157 OFFCURVE",
"191 11 OFFCURVE",
"385 -8 CURVE",
"656 -234 OFFCURVE",
"931 -297 OFFCURVE",
"1228 -222 CURVE",
"1218 -190 LINE",
"936 -255 OFFCURVE",
"691 -149 OFFCURVE",
"553 8 CURVE",
"710 54 OFFCURVE",
"825 186 OFFCURVE",
"825 348 CURVE SMOOTH",
"825 356 OFFCURVE",
"825 364 OFFCURVE",
"824 371 CURVE",
"885 362 OFFCURVE",
"888 353 OFFCURVE",
"890 326 CURVE SMOOTH",
"893 280 OFFCURVE",
"896 185 OFFCURVE",
"895 119 CURVE SMOOTH",
"894 41 OFFCURVE",
"921 -10 OFFCURVE",
"1040 -10 CURVE SMOOTH",
"1065 -10 OFFCURVE",
"1110 13 OFFCURVE",
"1164 45 CURVE",
"1164 0 LINE",
"1294 0 LINE"
);
},
{
closed = 1;
nodes = (
"426 30 OFFCURVE",
"418 30 OFFCURVE",
"409 31 CURVE SMOOTH",
"395 33 LINE SMOOTH",
"247 57 OFFCURVE",
"164 214 OFFCURVE",
"164 374 CURVE SMOOTH",
"164 525 OFFCURVE",
"244 670 OFFCURVE",
"426 670 CURVE SMOOTH",
"598 670 OFFCURVE",
"708 504 OFFCURVE",
"708 340 CURVE SMOOTH",
"708 169 OFFCURVE",
"618 30 OFFCURVE",
"435 30 CURVE SMOOTH"
);
}
);
width = 1319;
}
);
rightMetricsKey = u;
},
{
color = 3;
glyphname = Q.ss01;
lastChange = "2020-02-04 08:04:57 +0000";
layers = (
{
layerId = "31E65565-C22C-4792-86EE-013C6F95D489";
paths = (
{
closed = 1;
nodes = (
"704 160 OFFCURVE",
"802 272 OFFCURVE",
"802 389 CURVE SMOOTH",
"802 558 OFFCURVE",
"647 709 OFFCURVE",
"451 709 CURVE SMOOTH",
"191 709 OFFCURVE",
"35 533 OFFCURVE",
"35 323 CURVE SMOOTH",
"35 122 OFFCURVE",
"163 -6 OFFCURVE",
"311 -6 CURVE SMOOTH",
"387 -6 OFFCURVE",
"445 6 OFFCURVE",
"489 29 CURVE",
"516 61 OFFCURVE",
"558 100 OFFCURVE",
"594 157 CURVE",
"571 168 LINE",
"543 139 OFFCURVE",
"490 115 OFFCURVE",
"434 103 CURVE",
"373 289 LINE",
"417 364 LINE",
"335 408 LINE",
"275 591 LINE",
"314 607 OFFCURVE",
"357 616 OFFCURVE",
"403 616 CURVE SMOOTH",
"562 616 OFFCURVE",
"687 524 OFFCURVE",
"687 345 CURVE SMOOTH",
"687 198 OFFCURVE",
"596 75 OFFCURVE",
"539 16 CURVE",
"546 -8 LINE",
"614 4 OFFCURVE",
"663 2 OFFCURVE",
"752 -8 CURVE",
"800 98 LINE",
"778 107 LINE",
"739 80 OFFCURVE",
"703 82 OFFCURVE",
"640 82 CURVE"
);
},
{
closed = 1;
nodes = (
"260 322 LINE",
"347 277 LINE",
"406 97 LINE",
"385 94 OFFCURVE",
"364 92 OFFCURVE",
"344 92 CURVE SMOOTH",
"204 92 OFFCURVE",
"94 162 OFFCURVE",
"94 320 CURVE SMOOTH",
"94 432 OFFCURVE",
"154 528 OFFCURVE",
"248 579 CURVE",
"307 397 LINE"
);
}
);
width = 847;
}
);
leftMetricsKey = Q;
},
{
color = 3;
glyphname = Q.ss02;
lastChange = "2020-12-10 12:25:56 +0000";
layers = (
{
layerId = "31E65565-C22C-4792-86EE-013C6F95D489";
paths = (
{
closed = 1;
nodes = (
"888 -8 OFFCURVE",
"721 -5 OFFCURVE",
"614 53 CURVE",
"722 125 OFFCURVE",
"787 249 OFFCURVE",
"773 386 CURVE SMOOTH",
"751 595 OFFCURVE",
"572 729 OFFCURVE",
"370 708 CURVE SMOOTH",
"168 686 OFFCURVE",
"16 514 OFFCURVE",
"37 313 CURVE SMOOTH",
"59 104 OFFCURVE",
"238 -30 OFFCURVE",
"440 -9 CURVE SMOOTH",
"452 -8 OFFCURVE",
"464 -6 OFFCURVE",
"476 -4 CURVE",
"612 -68 OFFCURVE",
"773 -80 OFFCURVE",
"883 -52 CURVE",
"925 -27 OFFCURVE",
"970 0 OFFCURVE",
"1044 56 CURVE",
"1026 79 LINE"
);
},
{
closed = 1;
nodes = (
"137 497 OFFCURVE",
"196 649 OFFCURVE",
"366 667 CURVE SMOOTH",
"527 684 OFFCURVE",
"639 528 OFFCURVE",
"657 355 CURVE SMOOTH",
"673 205 OFFCURVE",
"613 50 OFFCURVE",
"442 32 CURVE SMOOTH",
"279 14 OFFCURVE",
"171 174 OFFCURVE",
"153 347 CURVE SMOOTH"
);
}
);
width = 1034;
}
);
leftMetricsKey = O;
},
{
color = 3;
glyphname = R;
lastChange = "2020-02-04 08:05:10 +0000";
layers = (
{
layerId = "31E65565-C22C-4792-86EE-013C6F95D489";
paths = (
{
closed = 1;
nodes = (
"755 19 OFFCURVE",
"730 77 OFFCURVE",
"652 162 CURVE SMOOTH",
"578 242 OFFCURVE",
"478 319 OFFCURVE",
"399 335 CURVE",
"471 364 OFFCURVE",
"548 424 OFFCURVE",
"550 509 CURVE SMOOTH",
"553 637 OFFCURVE",
"470 700 OFFCURVE",
"262 700 CURVE SMOOTH",
"196 700 OFFCURVE",
"106 698 OFFCURVE",
"42 702 CURVE",
"40 662 LINE",
"76 656 OFFCURVE",
"109 644 OFFCURVE",
"109 598 CURVE SMOOTH",
"109 577 OFFCURVE",
"110 130 OFFCURVE",
"107 82 CURVE SMOOTH",
"106 63 OFFCURVE",
"89 38 OFFCURVE",
"47 38 CURVE",
"50 -2 LINE",
"127 3 OFFCURVE",
"214 3 OFFCURVE",
"291 -2 CURVE",
"290 38 LINE",
"259 40 OFFCURVE",
"212 54 OFFCURVE",
"212 104 CURVE SMOOTH",
"212 312 LINE",
"306 311 LINE SMOOTH",
"415 310 OFFCURVE",
"482 205 OFFCURVE",
"540 138 CURVE SMOOTH",
"597 72 OFFCURVE",
"661 -11 OFFCURVE",
"780 -11 CURVE SMOOTH",
"823 -11 OFFCURVE",
"861 -4 OFFCURVE",
"893 12 CURVE",
"885 33 LINE"
);
},
{
closed = 1;
nodes = (
"210 342 LINE",
"210 657 LINE",
"376 665 OFFCURVE",
"446 572 OFFCURVE",
"444 486 CURVE SMOOTH",
"442 383 OFFCURVE",
"378 342 OFFCURVE",
"257 342 CURVE SMOOTH"
);
}
);
width = 898;
}
);
leftMetricsKey = H;
unicode = 0052;
},
{
color = 3;
glyphname = R_stroke;
lastChange = "2020-02-04 08:05:15 +0000";
layers = (
{
layerId = "31E65565-C22C-4792-86EE-013C6F95D489";
paths = (
{
closed = 1;
nodes = (
"755 19 OFFCURVE",
"730 77 OFFCURVE",
"652 162 CURVE SMOOTH",
"642 173 OFFCURVE",
"631 184 OFFCURVE",
"620 195 CURVE",
"694 286 OFFCURVE",
"762 373 OFFCURVE",
"835 450 CURVE",
"835 471 LINE",
"781 464 OFFCURVE",
"722 461 OFFCURVE",
"674 462 CURVE",
"674 432 LINE",
"730 413 OFFCURVE",
"725 412 OFFCURVE",
"699 372 CURVE SMOOTH",
"666 322 OFFCURVE",
"631 271 OFFCURVE",
"593 220 CURVE",
"530 277 OFFCURVE",
"459 323 OFFCURVE",
"399 335 CURVE",
"471 364 OFFCURVE",
"548 424 OFFCURVE",
"550 509 CURVE SMOOTH",
"553 637 OFFCURVE",
"470 700 OFFCURVE",
"262 700 CURVE SMOOTH",
"196 700 OFFCURVE",
"106 698 OFFCURVE",
"42 702 CURVE",
"40 662 LINE",
"76 656 OFFCURVE",
"109 644 OFFCURVE",
"109 598 CURVE SMOOTH",
"109 577 OFFCURVE",
"110 130 OFFCURVE",
"107 82 CURVE SMOOTH",
"106 63 OFFCURVE",
"89 38 OFFCURVE",
"47 38 CURVE",
"50 -2 LINE",
"127 3 OFFCURVE",
"214 3 OFFCURVE",
"291 -2 CURVE",
"290 38 LINE",
"259 40 OFFCURVE",
"212 54 OFFCURVE",
"212 104 CURVE SMOOTH",
"212 312 LINE",
"306 311 LINE SMOOTH",
"412 310 OFFCURVE",
"478 211 OFFCURVE",
"535 144 CURVE",
"434 19 OFFCURVE",
"315 -103 OFFCURVE",
"171 -198 CURVE",
"177 -244 LINE",
"187 -245 LINE",
"340 -126 OFFCURVE",
"456 -1 OFFCURVE",
"556 119 CURVE",
"610 57 OFFCURVE",
"672 -11 OFFCURVE",
"780 -11 CURVE SMOOTH",
"823 -11 OFFCURVE",
"861 -4 OFFCURVE",
"893 12 CURVE",
"885 33 LINE"
);
},
{
closed = 1;
nodes = (
"210 342 LINE",
"210 657 LINE",
"376 665 OFFCURVE",
"446 572 OFFCURVE",
"444 486 CURVE SMOOTH",
"442 383 OFFCURVE",
"378 342 OFFCURVE",
"257 342 CURVE SMOOTH"
);
}
);
width = 898;
}
);
},
{
color = 3;
glyphname = R.ss01;
lastChange = "2020-01-30 18:16:41 +0000";
layers = (
{
layerId = "31E65565-C22C-4792-86EE-013C6F95D489";
paths = (
{
closed = 1;
nodes = (
"660 83 OFFCURVE",
"656 83 OFFCURVE",
"638 83 CURVE SMOOTH",
"609 83 OFFCURVE",
"591 135 OFFCURVE",
"578 223 CURVE SMOOTH",
"564 320 OFFCURVE",
"508 400 OFFCURVE",
"420 409 CURVE",
"517 446 OFFCURVE",
"589 498 OFFCURVE",
"589 580 CURVE SMOOTH",
"589 660 OFFCURVE",
"535 710 OFFCURVE",
"423 710 CURVE SMOOTH",
"266 710 OFFCURVE",
"90 546 OFFCURVE",
"31 513 CURVE",
"30 440 LINE",
"36 438 LINE",
"78 466 OFFCURVE",
"115 497 OFFCURVE",
"149 526 CURVE",
"121 123 LINE SMOOTH",
"118 74 OFFCURVE",
"94 36 OFFCURVE",
"72 14 CURVE",
"86 -13 LINE",
"122 9 OFFCURVE",
"156 21 OFFCURVE",
"197 21 CURVE SMOOTH",
"231 21 OFFCURVE",
"279 1 OFFCURVE",
"323 -13 CURVE",
"326 -13 LINE",
"367 21 OFFCURVE",
"429 75 OFFCURVE",
"457 103 CURVE",
"441 124 LINE",
"421 109 OFFCURVE",
"369 77 OFFCURVE",
"343 73 CURVE",
"348 345 LINE",
"411 325 OFFCURVE",
"468 269 OFFCURVE",
"499 185 CURVE SMOOTH",
"534 92 OFFCURVE",
"540 2 OFFCURVE",
"621 -11 CURVE",
"698 73 LINE",
"677 94 LINE"
);
},
{
closed = 1;
nodes = (
"485 490 OFFCURVE",
"425 446 OFFCURVE",
"349 417 CURVE",
"354 640 LINE",
"361 641 OFFCURVE",
"370 641 OFFCURVE",
"378 641 CURVE SMOOTH",
"457 641 OFFCURVE",
"485 603 OFFCURVE",
"485 560 CURVE SMOOTH"
);
},
{
closed = 1;
nodes = (
"320 407 LINE",
"291 398 OFFCURVE",
"261 390 OFFCURVE",
"232 385 CURVE",
"244 599 LINE",
"269 615 OFFCURVE",
"295 627 OFFCURVE",
"324 634 CURVE"
);
},
{
closed = 1;
nodes = (
"284 80 OFFCURVE",
"251 93 OFFCURVE",
"216 102 CURVE",
"230 348 LINE",
"244 351 OFFCURVE",
"264 353 OFFCURVE",
"295 353 CURVE SMOOTH",
"303 353 OFFCURVE",
"311 352 OFFCURVE",
"319 351 CURVE",
"314 74 LINE"
);
}
);
width = 728;
}
);
},
{
color = 3;
glyphname = R.ss02;
lastChange = "2020-11-02 15:58:55 +0000";
layers = (
{
layerId = "31E65565-C22C-4792-86EE-013C6F95D489";
paths = (
{
closed = 1;
nodes = (
"366 224 OFFCURVE",
"502 -11 OFFCURVE",
"621 -11 CURVE SMOOTH",
"664 -11 OFFCURVE",
"702 -4 OFFCURVE",
"734 12 CURVE",
"726 33 LINE",
"653 11 OFFCURVE",
"459 241 OFFCURVE",
"387 347 CURVE",
"306 311 LINE"
);
},
{
closed = 1;
nodes = (
"210 342 LINE",
"210 657 LINE",
"376 665 OFFCURVE",
"446 572 OFFCURVE",
"444 486 CURVE SMOOTH",
"442 383 OFFCURVE",
"378 342 OFFCURVE",
"257 342 CURVE SMOOTH"
);
},
{
closed = 1;
nodes = (
"461 356 OFFCURVE",
"548 418 OFFCURVE",
"550 509 CURVE SMOOTH",
"553 637 OFFCURVE",
"470 700 OFFCURVE",
"262 700 CURVE SMOOTH",
"196 700 OFFCURVE",
"106 698 OFFCURVE",
"42 702 CURVE",
"40 662 LINE",
"76 656 OFFCURVE",
"109 644 OFFCURVE",
"109 598 CURVE SMOOTH",
"109 577 OFFCURVE",
"110 130 OFFCURVE",
"107 82 CURVE SMOOTH",
"106 63 OFFCURVE",
"89 38 OFFCURVE",
"47 38 CURVE",
"50 -2 LINE",
"127 3 OFFCURVE",
"214 3 OFFCURVE",
"331 -2 CURVE",
"330 38 LINE",
"259 40 OFFCURVE",
"212 54 OFFCURVE",
"212 104 CURVE SMOOTH",
"212 312 LINE",
"306 311 LINE",
"385 330 LINE"
);
}
);
width = 739;
}
);
leftMetricsKey = R;
rightMetricsKey = R;
},
{
color = 3;
glyphname = S;
lastChange = "2020-02-04 08:09:42 +0000";
layers = (
{
layerId = "31E65565-C22C-4792-86EE-013C6F95D489";
paths = (
{
closed = 1;
nodes = (
"488 -10 OFFCURVE",
"610 64 OFFCURVE",
"609 214 CURVE SMOOTH",
"608 357 OFFCURVE",
"491 394 OFFCURVE",
"309 425 CURVE SMOOTH",
"193 445 OFFCURVE",
"126 463 OFFCURVE",
"126 544 CURVE SMOOTH",
"126 624 OFFCURVE",
"190 670 OFFCURVE",
"292 670 CURVE SMOOTH",
"431 670 OFFCURVE",
"488 597 OFFCURVE",
"495 517 CURVE",
"530 511 LINE",
"592 658 LINE",
"588 668 LINE",
"508 681 OFFCURVE",
"415 710 OFFCURVE",
"322 710 CURVE SMOOTH",
"162 710 OFFCURVE",
"33 644 OFFCURVE",
"33 494 CURVE SMOOTH",
"33 362 OFFCURVE",
"132 333 OFFCURVE",
"294 315 CURVE SMOOTH",
"448 298 OFFCURVE",
"532 267 OFFCURVE",
"529 166 CURVE SMOOTH",
"527 87 OFFCURVE",
"461 24 OFFCURVE",
"321 24 CURVE SMOOTH",
"200 24 OFFCURVE",
"99 72 OFFCURVE",
"70 201 CURVE",
"30 201 LINE",
"30 30 LINE",
"107 19 OFFCURVE",
"208 -10 OFFCURVE",
"328 -10 CURVE SMOOTH"
);
}
);
width = 639;
}
);
unicode = 0053;
},
{
color = 3;
glyphname = S.ss01;
lastChange = "2020-02-04 08:05:29 +0000";
layers = (
{
layerId = "31E65565-C22C-4792-86EE-013C6F95D489";
paths = (
{
closed = 1;
nodes = (
"386 490 OFFCURVE",
"356 495 OFFCURVE",
"328 500 CURVE",
"368 542 OFFCURVE",
"416 585 OFFCURVE",
"455 625 CURVE",
"455 629 LINE",
"387 652 OFFCURVE",
"266 709 OFFCURVE",
"245 718 CURVE",
"216 691 OFFCURVE",
"128 613 OFFCURVE",
"80 545 CURVE",
"99 500 OFFCURVE",
"136 471 OFFCURVE",
"182 452 CURVE",
"98 442 OFFCURVE",
"30 379 OFFCURVE",
"30 320 CURVE SMOOTH",
"30 253 OFFCURVE",
"83 225 OFFCURVE",
"156 225 CURVE SMOOTH",
"238 225 OFFCURVE",
"277 243 OFFCURVE",
"336 243 CURVE SMOOTH",
"391 243 OFFCURVE",
"431 223 OFFCURVE",
"431 170 CURVE SMOOTH",
"431 131 OFFCURVE",
"400 93 OFFCURVE",
"346 71 CURVE",
"317 74 OFFCURVE",
"288 78 OFFCURVE",
"254 78 CURVE SMOOTH",
"180 78 OFFCURVE",
"87 40 OFFCURVE",
"42 11 CURVE",
"59 -15 LINE",
"113 16 OFFCURVE",
"150 34 OFFCURVE",
"197 34 CURVE SMOOTH",
"277 34 OFFCURVE",
"384 -6 OFFCURVE",
"424 -15 CURVE",
"499 36 OFFCURVE",
"617 96 OFFCURVE",
"669 187 CURVE",
"709 399 OFFCURVE",
"581 461 OFFCURVE",
"415 486 CURVE SMOOTH"
);
},
{
closed = 1;
nodes = (
"167 599 OFFCURVE",
"185 627 OFFCURVE",
"224 627 CURVE SMOOTH",
"262 627 OFFCURVE",
"332 606 OFFCURVE",
"332 566 CURVE SMOOTH",
"332 551 OFFCURVE",
"306 528 OFFCURVE",
"285 510 CURVE",
"218 525 OFFCURVE",
"167 546 OFFCURVE",
"167 579 CURVE SMOOTH"
);
},
{
closed = 1;
nodes = (
"416 64 OFFCURVE",
"403 65 OFFCURVE",
"391 66 CURVE",
"446 108 OFFCURVE",
"490 154 OFFCURVE",
"490 213 CURVE SMOOTH",
"490 280 OFFCURVE",
"439 320 OFFCURVE",
"358 320 CURVE SMOOTH",
"300 320 OFFCURVE",
"246 312 OFFCURVE",
"200 312 CURVE SMOOTH",
"151 312 OFFCURVE",
"115 328 OFFCURVE",
"115 363 CURVE SMOOTH",
"115 406 OFFCURVE",
"158 443 OFFCURVE",
"262 428 CURVE",
"291 422 OFFCURVE",
"322 417 OFFCURVE",
"353 413 CURVE SMOOTH",
"490 396 OFFCURVE",
"593 350 OFFCURVE",
"593 237 CURVE SMOOTH",
"593 139 OFFCURVE",
"521 64 OFFCURVE",
"429 64 CURVE SMOOTH"
);
}
);
width = 696;
}
);
},
{
color = 3;
glyphname = T;
lastChange = "2020-02-04 08:08:44 +0000";
layers = (
{
layerId = "31E65565-C22C-4792-86EE-013C6F95D489";
paths = (
{
closed = 1;
nodes = (
"634 727 LINE",
"609 683 OFFCURVE",
"608 680 OFFCURVE",
"539 680 CURVE SMOOTH",
"173 680 LINE SMOOTH",
"118 680 OFFCURVE",
"98 691 OFFCURVE",
"99 731 CURVE",
"60 737 LINE",
"10 555 LINE",
"51 546 LINE",
"69 608 OFFCURVE",
"114 605 OFFCURVE",
"185 605 CURVE SMOOTH",
"300 605 LINE",
"298 180 LINE SMOOTH",
"298 80 OFFCURVE",
"292 47 OFFCURVE",
"218 37 CURVE",
"218 -3 LINE",
"289 1 OFFCURVE",
"418 0 OFFCURVE",
"498 -3 CURVE",
"498 37 LINE",
"396 47 OFFCURVE",
"402 80 OFFCURVE",
"401 180 CURVE SMOOTH",
"395 605 LINE",
"508 605 LINE SMOOTH",
"596 605 OFFCURVE",
"622 609 OFFCURVE",
"632 548 CURVE",
"670 547 LINE",
"669 726 LINE"
);
}
);
width = 680;
}
);
unicode = 0054;
},
{
color = 3;
glyphname = T.ss01;
lastChange = "2020-01-30 18:16:41 +0000";
layers = (
{
layerId = "31E65565-C22C-4792-86EE-013C6F95D489";
paths = (
{
closed = 1;
nodes = (
"698 85 OFFCURVE",
"630 50 OFFCURVE",
"521 50 CURVE SMOOTH",
"360 50 OFFCURVE",
"215 126 OFFCURVE",
"215 307 CURVE SMOOTH",
"215 488 OFFCURVE",
"403 559 OFFCURVE",
"570 559 CURVE SMOOTH",
"638 559 OFFCURVE",
"687 551 OFFCURVE",
"771 517 CURVE",
"792 525 LINE",
"784 567 OFFCURVE",
"764 643 OFFCURVE",
"759 701 CURVE",
"700 694 LINE",
"721 626 LINE",
"613 690 OFFCURVE",
"472 731 OFFCURVE",
"312 731 CURVE SMOOTH",
"197 731 OFFCURVE",
"90 700 OFFCURVE",
"25 662 CURVE",
"26 591 LINE",
"40 591 LINE",
"89 631 OFFCURVE",
"206 669 OFFCURVE",
"310 669 CURVE SMOOTH",
"408 669 OFFCURVE",
"554 653 OFFCURVE",
"649 586 CURVE",
"403 630 OFFCURVE",
"90 524 OFFCURVE",
"90 283 CURVE SMOOTH",
"90 93 OFFCURVE",
"265 -8 OFFCURVE",
"474 -8 CURVE SMOOTH",
"600 -8 OFFCURVE",
"721 54 OFFCURVE",
"799 130 CURVE",
"775 156 LINE"
);
},
{
closed = 1;
nodes = (
"521 225 LINE",
"605 310 LINE",
"516 389 LINE",
"430 308 LINE"
);
}
);
width = 824;
}
);
},
{
color = 6;
glyphname = U;
lastChange = "2020-02-04 08:05:41 +0000";
layers = (
{
layerId = "31E65565-C22C-4792-86EE-013C6F95D489";
paths = (
{
closed = 1;
nodes = (
"551 -10 OFFCURVE",
"683 73 OFFCURVE",
"688 212 CURVE SMOOTH",
"691 293 OFFCURVE",
"688 471 OFFCURVE",
"688 544 CURVE SMOOTH",
"688 624 OFFCURVE",
"697 646 OFFCURVE",
"732 667 CURVE",
"732 702 LINE",
"701 701 OFFCURVE",
"647 700 OFFCURVE",
"590 702 CURVE",
"591 667 LINE",
"634 646 OFFCURVE",
"633 624 OFFCURVE",
"633 548 CURVE SMOOTH",
"633 233 LINE SMOOTH",
"633 96 OFFCURVE",
"540 34 OFFCURVE",
"409 34 CURVE SMOOTH",
"273 34 OFFCURVE",
"199 103 OFFCURVE",
"199 232 CURVE SMOOTH",
"199 561 LINE SMOOTH",
"199 614 OFFCURVE",
"204 644 OFFCURVE",
"239 664 CURVE",
"239 704 LINE",
"212 702 OFFCURVE",
"110 701 OFFCURVE",
"40 704 CURVE",
"40 664 LINE",
"81 643 OFFCURVE",
"85 616 OFFCURVE",
"85 571 CURVE SMOOTH",
"85 432 OFFCURVE",
"89 314 OFFCURVE",
"85 175 CURVE SMOOTH",
"82 133 OFFCURVE",
"164 -10 OFFCURVE",
"394 -10 CURVE SMOOTH"
);
}
);
width = 772;
}
);
unicode = 0055;
},
{
color = 6;
glyphname = U.ss01;
lastChange = "2020-02-04 08:06:16 +0000";
layers = (
{
layerId = "31E65565-C22C-4792-86EE-013C6F95D489";
paths = (
{
closed = 1;
nodes = (
"752 91 OFFCURVE",
"739 90 OFFCURVE",
"720 90 CURVE SMOOTH",
"683 90 OFFCURVE",
"661 204 OFFCURVE",
"661 294 CURVE SMOOTH",
"661 448 OFFCURVE",
"670 605 OFFCURVE",
"713 710 CURVE",
"693 725 LINE",
"589 653 LINE",
"583 259 LINE",
"572 156 OFFCURVE",
"507 69 OFFCURVE",
"404 52 CURVE",
"404 240 LINE",
"477 309 LINE",
"404 374 LINE",
"404 719 LINE",
"321 709 OFFCURVE",
"206 709 OFFCURVE",
"105 719 CURVE",
"57 612 LINE",
"76 605 LINE",
"135 625 OFFCURVE",
"207 626 OFFCURVE",
"273 626 CURVE",
"202 554 OFFCURVE",
"40 410 OFFCURVE",
"40 255 CURVE SMOOTH",
"40 103 OFFCURVE",
"138 -11 OFFCURVE",
"321 -11 CURVE SMOOTH",
"441 -11 OFFCURVE",
"531 58 OFFCURVE",
"581 140 CURVE",
"579 2 LINE SMOOTH",
"579 -7 OFFCURVE",
"613 4 OFFCURVE",
"692 -10 CURVE",
"702 -10 OFFCURVE",
"751 36 OFFCURVE",
"781 71 CURVE",
"774 96 LINE"
);
},
{
closed = 1;
nodes = (
"150 455 OFFCURVE",
"268 571 OFFCURVE",
"374 676 CURVE",
"374 380 LINE",
"301 307 LINE",
"374 241 LINE",
"374 49 LINE",
"367 49 LINE SMOOTH",
"222 49 OFFCURVE",
"150 151 OFFCURVE",
"150 292 CURVE SMOOTH"
);
}
);
width = 796;
}
);
},
{
color = 3;
glyphname = V;
lastChange = "2020-01-30 18:16:41 +0000";
layers = (
{
layerId = "31E65565-C22C-4792-86EE-013C6F95D489";
paths = (
{
closed = 1;
nodes = (
"480 663 LINE",
"566 627 OFFCURVE",
"587 617 OFFCURVE",
"549 528 CURVE SMOOTH",
"376 126 LINE",
"211 540 LINE SMOOTH",
"183 610 OFFCURVE",
"164 635 OFFCURVE",
"271 663 CURVE",
"271 703 LINE",
"199 701 OFFCURVE",
"91 699 OFFCURVE",
"10 703 CURVE",
"10 663 LINE",
"71 652 OFFCURVE",
"217 217 OFFCURVE",
"322 -10 CURVE",
"372 -10 LINE",
"617 543 LINE SMOOTH",
"642 599 OFFCURVE",
"663 639 OFFCURVE",
"697 663 CURVE",
"697 703 LINE",
"625 700 OFFCURVE",
"577 700 OFFCURVE",
"480 703 CURVE"
);
}
);
width = 707;
}
);
unicode = 0056;
},
{
color = 3;
glyphname = V.ss01;
lastChange = "2020-02-04 08:06:28 +0000";
layers = (
{
layerId = "31E65565-C22C-4792-86EE-013C6F95D489";
paths = (
{
closed = 1;
nodes = (
"631 717 OFFCURVE",
"567 708 OFFCURVE",
"496 672 CURVE",
"407 502 LINE",
"386 618 OFFCURVE",
"319 660 OFFCURVE",
"266 660 CURVE SMOOTH",
"187 660 OFFCURVE",
"161 615 OFFCURVE",
"72 506 CURVE",
"104 482 LINE",
"156 531 OFFCURVE",
"196 547 OFFCURVE",
"245 547 CURVE SMOOTH",
"279 547 OFFCURVE",
"345 531 OFFCURVE",
"370 431 CURVE",
"369 429 LINE SMOOTH",
"320 336 OFFCURVE",
"128 89 OFFCURVE",
"15 12 CURVE",
"36 -22 LINE",
"127 18 OFFCURVE",
"213 43 OFFCURVE",
"360 43 CURVE SMOOTH",
"461 43 OFFCURVE",
"584 25 OFFCURVE",
"687 -22 CURVE",
"704 -22 LINE",
"820 89 OFFCURVE",
"966 200 OFFCURVE",
"966 391 CURVE SMOOTH",
"966 576 OFFCURVE",
"846 706 OFFCURVE",
"671 715 CURVE SMOOTH"
);
},
{
closed = 1;
nodes = (
"718 78 OFFCURVE",
"585 151 OFFCURVE",
"419 151 CURVE SMOOTH",
"342 151 OFFCURVE",
"271 143 OFFCURVE",
"200 124 CURVE",
"278 195 OFFCURVE",
"398 407 OFFCURVE",
"500 564 CURVE",
"625 635 OFFCURVE",
"857 602 OFFCURVE",
"857 358 CURVE SMOOTH",
"857 228 OFFCURVE",
"801 143 OFFCURVE",
"737 78 CURVE"
);
},
{
closed = 1;
nodes = (
"618 254 LINE",
"699 334 LINE",
"614 411 LINE",
"530 332 LINE"
);
}
);
width = 996;
}
);
},
{
color = 6;
glyphname = W;
lastChange = "2020-01-30 18:16:41 +0000";
layers = (
{
layerId = "31E65565-C22C-4792-86EE-013C6F95D489";
paths = (
{
closed = 1;
nodes = (
"959 663 LINE",
"1045 627 OFFCURVE",
"1065 618 OFFCURVE",
"1028 528 CURVE SMOOTH",
"865 128 LINE",
"700 540 LINE SMOOTH",
"672 610 OFFCURVE",
"653 635 OFFCURVE",
"760 663 CURVE",
"760 703 LINE",
"667 700 OFFCURVE",
"573 700 OFFCURVE",
"480 703 CURVE",
"480 663 LINE",
"496 656 OFFCURVE",
"534 632 OFFCURVE",
"558 589 CURVE",
"559 586 OFFCURVE",
"561 583 OFFCURVE",
"562 580 CURVE",
"374 131 LINE",
"211 540 LINE SMOOTH",
"183 610 OFFCURVE",
"164 635 OFFCURVE",
"271 663 CURVE",
"271 703 LINE",
"199 701 OFFCURVE",
"91 699 OFFCURVE",
"10 703 CURVE",
"10 663 LINE",
"71 652 OFFCURVE",
"217 217 OFFCURVE",
"322 -10 CURVE",
"372 -10 LINE",
"598 500 LINE",
"692 284 OFFCURVE",
"733 158 OFFCURVE",
"811 -10 CURVE",
"861 -10 LINE",
"1106 543 LINE SMOOTH",
"1131 599 OFFCURVE",
"1152 639 OFFCURVE",
"1186 663 CURVE",
"1186 703 LINE",
"1114 700 OFFCURVE",
"1056 700 OFFCURVE",
"959 703 CURVE"
);
}
);
width = 1196;
}
);
unicode = 0057;
},
{
color = 6;
glyphname = X;
lastChange = "2020-02-04 08:08:11 +0000";
layers = (
{
anchors = (
{
name = bottom;
position = "{382, 25}";
},
{
name = top;
position = "{382, 722}";
}
);
layerId = "31E65565-C22C-4792-86EE-013C6F95D489";
paths = (
{
closed = 1;
nodes = (
"734 660 CURVE",
"734 700 LINE",
"504 700 LINE",
"504 660 LINE",
"529 654 LINE SMOOTH",
"565 645 OFFCURVE",
"596 627 OFFCURVE",
"554 583 CURVE SMOOTH",
"392 411 LINE",
"223 611 LINE SMOOTH",
"208 629 OFFCURVE",
"218 646 OFFCURVE",
"233 650 CURVE SMOOTH",
"268 660 LINE",
"268 700 LINE",
"10 700 LINE",
"10 660 LINE",
"29 654 OFFCURVE",
"51 644 OFFCURVE",
"83 605 CURVE SMOOTH",
"313 328 LINE",
"74 83 LINE SMOOTH",
"61 70 OFFCURVE",
"49 53 OFFCURVE",
"10 40 CURVE",
"10 0 LINE",
"213 0 LINE",
"213 40 LINE",
"174 51 OFFCURVE",
"157 59 OFFCURVE",
"172 77 CURVE SMOOTH",
"349 283 LINE",
"501 105 LINE SMOOTH",
"524 78 OFFCURVE",
"526 60 OFFCURVE",
"473 40 CURVE",
"473 0 LINE",
"723 0 LINE",
"723 40 LINE",
"701 52 OFFCURVE",
"675 76 OFFCURVE",
"658 96 CURVE SMOOTH",
"427 369 LINE",
"647 596 LINE SMOOTH",
"672 621 OFFCURVE",
"697 644 OFFCURVE"
);
}
);
width = 744;
}
);
unicode = 0058;
},
{
color = 6;
glyphname = Y;
lastChange = "2020-02-04 08:07:12 +0000";
layers = (
{
layerId = "31E65565-C22C-4792-86EE-013C6F95D489";
paths = (
{
closed = 1;
nodes = (
"490 660 LINE",
"539 653 LINE SMOOTH",
"566 649 OFFCURVE",
"583 631 OFFCURVE",
"566 608 CURVE SMOOTH",
"384 355 LINE",
"194 605 LINE SMOOTH",
"179 624 OFFCURVE",
"191 645 OFFCURVE",
"210 649 CURVE SMOOTH",
"265 660 LINE",
"265 700 LINE",
"10 700 LINE",
"10 660 LINE",
"41 636 OFFCURVE",
"56 627 OFFCURVE",
"83 590 CURVE SMOOTH",
"301 291 LINE",
"299 139 LINE SMOOTH",
"298 45 OFFCURVE",
"244 46 OFFCURVE",
"195 35 CURVE",
"195 0 LINE",
"511 0 LINE",
"511 35 LINE",
"471 46 OFFCURVE",
"409 41 OFFCURVE",
"410 139 CURVE SMOOTH",
"411 300 LINE",
"656 615 LINE SMOOTH",
"676 640 OFFCURVE",
"693 647 OFFCURVE",
"714 660 CURVE",
"714 700 LINE",
"490 700 LINE"
);
}
);
width = 724;
}
);
unicode = 0059;
},
{
color = 6;
glyphname = Z;
lastChange = "2020-01-30 18:16:41 +0000";
layers = (
{
anchors = (
{
name = bottom;
position = "{350, 25}";
},
{
name = top;
position = "{350, 722}";
}
);
layerId = "31E65565-C22C-4792-86EE-013C6F95D489";
paths = (
{
closed = 1;
nodes = (
"670 125 OFFCURVE",
"593 60 OFFCURVE",
"481 58 CURVE SMOOTH",
"181 53 LINE",
"637 586 LINE SMOOTH",
"659 612 OFFCURVE",
"684 638 OFFCURVE",
"717 662 CURVE",
"705 706 LINE",
"663 701 OFFCURVE",
"623 700 OFFCURVE",
"578 700 CURVE SMOOTH",
"100 700 LINE",
"13 560 LINE",
"48 546 LINE",
"100 592 OFFCURVE",
"165 639 OFFCURVE",
"228 640 CURVE SMOOTH",
"556 647 LINE",
"10 15 LINE",
"43 -10 LINE",
"57 -4 OFFCURVE",
"70 0 OFFCURVE",
"86 0 CURVE SMOOTH",
"272 0 OFFCURVE",
"469 0 OFFCURVE",
"655 -10 CURVE",
"746 164 LINE",
"710 173 LINE"
);
}
);
width = 756;
}
);
unicode = 005A;
},
{
color = 4;
glyphname = a;
lastChange = "2020-01-30 18:16:41 +0000";
layers = (
{
anchors = (
{
name = bottom;
position = "{189, 0}";
},
{
name = ogonek;
position = "{343, 10}";
},
{
name = top;
position = "{189, 400}";
}
);
layerId = "31E65565-C22C-4792-86EE-013C6F95D489";
paths = (
{
closed = 1;
nodes = (
"155 -10 OFFCURVE",
"209 23 OFFCURVE",
"244 70 CURVE",
"252 -10 LINE",
"296 -5 OFFCURVE",
"329 -1 OFFCURVE",
"364 0 CURVE",
"364 30 LINE",
"343 43 OFFCURVE",
"338 54 OFFCURVE",
"339 96 CURVE SMOOTH",
"342 302 LINE SMOOTH",
"343 367 OFFCURVE",
"294 410 OFFCURVE",
"210 410 CURVE SMOOTH",
"154 410 OFFCURVE",
"81 366 OFFCURVE",
"28 315 CURVE",
"43 292 LINE",
"79 321 OFFCURVE",
"117 337 OFFCURVE",
"160 337 CURVE SMOOTH",
"220 337 OFFCURVE",
"245 313 OFFCURVE",
"245 253 CURVE",
"193 235 OFFCURVE",
"138 221 OFFCURVE",
"77 193 CURVE SMOOTH",
"36 174 OFFCURVE",
"5 144 OFFCURVE",
"5 92 CURVE SMOOTH",
"5 27 OFFCURVE",
"56 -10 OFFCURVE",
"101 -10 CURVE SMOOTH"
);
},
{
closed = 1;
nodes = (
"114 66 OFFCURVE",
"100 94 OFFCURVE",
"100 122 CURVE SMOOTH",
"100 173 OFFCURVE",
"181 207 OFFCURVE",
"259 226 CURVE",
"259 99 OFFCURVE",
"210 66 OFFCURVE",
"162 66 CURVE SMOOTH"
);
}
);
width = 379;
}
);
unicode = 0061;
},
{
color = 4;
glyphname = a_hook;
lastChange = "2020-02-04 08:11:26 +0000";
layers = (
{
anchors = (
{
name = bottom;
position = "{173, 0}";
},
{
name = ogonek;
position = "{327, 10}";
},
{
name = top;
position = "{173, 400}";
}
);
layerId = "31E65565-C22C-4792-86EE-013C6F95D489";
paths = (
{
closed = 1;
nodes = (
"99 463 LINE",
"214 498 OFFCURVE",
"323 522 OFFCURVE",
"373 556 CURVE",
"373 599 OFFCURVE",
"317 667 OFFCURVE",
"285 706 CURVE",
"180 662 LINE",
"199 648 OFFCURVE",
"258 603 OFFCURVE",
"258 575 CURVE SMOOTH",
"258 538 OFFCURVE",
"177 522 OFFCURVE",
"79 491 CURVE"
);
},
{
closed = 1;
nodes = (
"329 332 LINE",
"303 378 OFFCURVE",
"259 401 OFFCURVE",
"224 409 CURVE",
"168 400 OFFCURVE",
"87 356 OFFCURVE",
"12 315 CURVE",
"17 292 LINE",
"63 313 OFFCURVE",
"123 337 OFFCURVE",
"166 337 CURVE SMOOTH",
"213 337 OFFCURVE",
"233 312 OFFCURVE",
"235 264 CURVE",
"166 226 OFFCURVE",
"48 173 OFFCURVE",
"5 142 CURVE",
"15 77 OFFCURVE",
"48 24 OFFCURVE",
"93 -12 CURVE",
"143 20 OFFCURVE",
"189 44 OFFCURVE",
"235 78 CURVE",
"235 58 OFFCURVE",
"236 28 OFFCURVE",
"236 -20 CURVE",
"280 -8 OFFCURVE",
"316 -1 OFFCURVE",
"341 0 CURVE",
"341 30 LINE",
"330 43 OFFCURVE",
"314 64 OFFCURVE",
"316 106 CURVE SMOOTH"
);
},
{
closed = 1;
nodes = (
"110 66 OFFCURVE",
"88 131 OFFCURVE",
"88 159 CURVE",
"120 184 OFFCURVE",
"175 210 OFFCURVE",
"235 226 CURVE",
"235 110 LINE",
"210 85 OFFCURVE",
"182 66 OFFCURVE",
"158 66 CURVE SMOOTH"
);
}
);
width = 378;
}
);
leftMetricsKey = a;
unicode = 1EA3;
},
{
color = 4;
glyphname = a_macr;
lastChange = "2020-02-04 08:11:35 +0000";
layers = (
{
anchors = (
{
name = _top;
position = "{181, 356}";
},
{
name = bottom;
position = "{189, 0}";
},
{
name = ogonek;
position = "{343, 10}";
},
{
name = top;
position = "{172, 629}";
}
);
layerId = "31E65565-C22C-4792-86EE-013C6F95D489";
paths = (
{
closed = 1;
nodes = (
"141 524 OFFCURVE",
"186 514 OFFCURVE",
"247 508 CURVE",
"363 662 LINE",
"335 670 LINE",
"261 589 OFFCURVE",
"229 608 OFFCURVE",
"151 608 CURVE",
"68 513 LINE",
"92 500 LINE"
);
},
{
closed = 1;
nodes = (
"155 -10 OFFCURVE",
"209 23 OFFCURVE",
"244 70 CURVE",
"252 -10 LINE",
"296 -5 OFFCURVE",
"329 -1 OFFCURVE",
"364 0 CURVE",
"364 30 LINE",
"343 43 OFFCURVE",
"338 54 OFFCURVE",
"339 96 CURVE SMOOTH",
"342 302 LINE SMOOTH",
"343 367 OFFCURVE",
"294 410 OFFCURVE",
"210 410 CURVE SMOOTH",
"154 410 OFFCURVE",
"81 366 OFFCURVE",
"28 315 CURVE",
"43 292 LINE",
"79 321 OFFCURVE",
"117 337 OFFCURVE",
"160 337 CURVE SMOOTH",
"220 337 OFFCURVE",
"245 313 OFFCURVE",
"245 253 CURVE",
"193 235 OFFCURVE",
"138 221 OFFCURVE",
"77 193 CURVE SMOOTH",
"36 174 OFFCURVE",
"5 144 OFFCURVE",
"5 92 CURVE SMOOTH",
"5 27 OFFCURVE",
"56 -10 OFFCURVE",
"101 -10 CURVE SMOOTH"
);
},
{
closed = 1;
nodes = (
"114 66 OFFCURVE",
"100 94 OFFCURVE",
"100 122 CURVE SMOOTH",
"100 173 OFFCURVE",
"181 207 OFFCURVE",
"259 226 CURVE",
"259 99 OFFCURVE",
"210 66 OFFCURVE",
"162 66 CURVE SMOOTH"
);
}
);
width = 379;
}
);
leftMetricsKey = a;
rightMetricsKey = a;
unicode = 0101;
},
{
color = 4;
glyphname = b;
lastChange = "2020-02-04 08:12:32 +0000";
layers = (
{
layerId = "31E65565-C22C-4792-86EE-013C6F95D489";
paths = (
{
closed = 1;
nodes = (
"268 -10 OFFCURVE",
"474 70 OFFCURVE",
"474 220 CURVE SMOOTH",
"474 331 OFFCURVE",
"409 410 OFFCURVE",
"290 410 CURVE SMOOTH",
"271 410 OFFCURVE",
"185 391 OFFCURVE",
"144 381 CURVE",
"146 545 LINE SMOOTH",
"147 589 OFFCURVE",
"152 661 OFFCURVE",
"156 700 CURVE",
"147 705 LINE",
"99 696 OFFCURVE",
"55 692 OFFCURVE",
"15 684 CURVE",
"15 654 LINE",
"42 651 OFFCURVE",
"50 621 OFFCURVE",
"51 591 CURVE SMOOTH",
"59 425 OFFCURVE",
"49 247 OFFCURVE",
"49 81 CURVE SMOOTH",
"49 61 OFFCURVE",
"111 -10 OFFCURVE",
"240 -10 CURVE SMOOTH"
);
},
{
closed = 1;
nodes = (
"175 53 OFFCURVE",
"145 96 OFFCURVE",
"145 215 CURVE SMOOTH",
"145 314 OFFCURVE",
"197 364 OFFCURVE",
"259 364 CURVE SMOOTH",
"320 364 OFFCURVE",
"376 308 OFFCURVE",
"376 222 CURVE SMOOTH",
"376 122 OFFCURVE",
"309 53 OFFCURVE",
"279 53 CURVE SMOOTH"
);
}
);
width = 504;
}
);
unicode = 0062;
},
{
color = 4;
glyphname = b_strok;
lastChange = "2020-01-30 18:16:41 +0000";
layers = (
{
layerId = "31E65565-C22C-4792-86EE-013C6F95D489";
paths = (
{
closed = 1;
nodes = (
"271 410 OFFCURVE",
"185 391 OFFCURVE",
"144 381 CURVE",
"145 438 LINE",
"262 495 OFFCURVE",
"356 576 OFFCURVE",
"365 694 CURVE",
"203 704 LINE",
"203 673 LINE",
"268 655 OFFCURVE",
"296 650 OFFCURVE",
"286 611 CURVE SMOOTH",
"270 550 OFFCURVE",
"213 505 OFFCURVE",
"145 469 CURVE",
"146 545 LINE SMOOTH",
"147 589 OFFCURVE",
"152 661 OFFCURVE",
"156 700 CURVE",
"147 705 LINE",
"99 696 OFFCURVE",
"55 692 OFFCURVE",
"15 684 CURVE",
"15 654 LINE",
"42 651 OFFCURVE",
"50 621 OFFCURVE",
"51 591 CURVE SMOOTH",
"59 425 OFFCURVE",
"49 247 OFFCURVE",
"49 81 CURVE SMOOTH",
"49 61 OFFCURVE",
"111 -10 OFFCURVE",
"240 -10 CURVE SMOOTH",
"268 -10 OFFCURVE",
"474 70 OFFCURVE",
"474 220 CURVE SMOOTH",
"474 331 OFFCURVE",
"409 410 OFFCURVE",
"290 410 CURVE SMOOTH"
);
},
{
closed = 1;
nodes = (
"175 53 OFFCURVE",
"145 96 OFFCURVE",
"145 215 CURVE SMOOTH",
"145 314 OFFCURVE",
"197 364 OFFCURVE",
"259 364 CURVE SMOOTH",
"320 364 OFFCURVE",
"376 308 OFFCURVE",
"376 222 CURVE SMOOTH",
"376 122 OFFCURVE",
"309 53 OFFCURVE",
"279 53 CURVE SMOOTH"
);
}
);
width = 504;
}
);
leftMetricsKey = b;
rightMetricsKey = b;
},
{
color = 4;
glyphname = c;
lastChange = "2020-01-30 18:16:41 +0000";
layers = (
{
layerId = "31E65565-C22C-4792-86EE-013C6F95D489";
paths = (
{
closed = 1;
nodes = (
"294 -9 OFFCURVE",
"345 14 OFFCURVE",
"384 33 CURVE",
"373 61 LINE",
"350 54 OFFCURVE",
"313 45 OFFCURVE",
"281 45 CURVE SMOOTH",
"201 45 OFFCURVE",
"132 106 OFFCURVE",
"132 209 CURVE SMOOTH",
"132 305 OFFCURVE",
"184 358 OFFCURVE",
"207 358 CURVE SMOOTH",
"267 358 OFFCURVE",
"308 293 OFFCURVE",
"315 293 CURVE",
"347 314 OFFCURVE",
"372 337 OFFCURVE",
"405 358 CURVE",
"398 387 LINE",
"336 384 OFFCURVE",
"312 410 OFFCURVE",
"234 410 CURVE SMOOTH",
"104 410 OFFCURVE",
"30 329 OFFCURVE",
"30 199 CURVE SMOOTH",
"30 69 OFFCURVE",
"103 -9 OFFCURVE",
"223 -9 CURVE SMOOTH"
);
}
);
width = 415;
}
);
unicode = 0063;
},
{
color = 4;
glyphname = c_hook;
lastChange = "2020-01-30 18:16:41 +0000";
layers = (
{
anchors = (
{
name = _top;
position = "{231, 400}";
},
{
name = top;
position = "{231, 716}";
}
);
layerId = "31E65565-C22C-4792-86EE-013C6F95D489";
paths = (
{
closed = 1;
nodes = (
"332 459 OFFCURVE",
"405 489 OFFCURVE",
"405 536 CURVE SMOOTH",
"405 588 OFFCURVE",
"357 620 OFFCURVE",
"327 636 CURVE",
"235 583 LINE",
"340 527 OFFCURVE",
"325 487 OFFCURVE",
"249 487 CURVE SMOOTH",
"186 487 OFFCURVE",
"141 510 OFFCURVE",
"114 527 CURVE",
"95 507 LINE",
"128 482 OFFCURVE",
"173 459 OFFCURVE",
"263 459 CURVE SMOOTH"
);
},
{
closed = 1;
nodes = (
"294 -9 OFFCURVE",
"345 14 OFFCURVE",
"384 33 CURVE",
"373 61 LINE",
"350 54 OFFCURVE",
"313 45 OFFCURVE",
"281 45 CURVE SMOOTH",
"201 45 OFFCURVE",
"132 106 OFFCURVE",
"132 209 CURVE SMOOTH",
"132 305 OFFCURVE",
"184 358 OFFCURVE",
"207 358 CURVE SMOOTH",
"267 358 OFFCURVE",
"308 293 OFFCURVE",
"315 293 CURVE",
"347 314 OFFCURVE",
"372 337 OFFCURVE",
"405 358 CURVE",
"398 387 LINE",
"336 384 OFFCURVE",
"312 410 OFFCURVE",
"234 410 CURVE SMOOTH",
"104 410 OFFCURVE",
"30 329 OFFCURVE",
"30 199 CURVE SMOOTH",
"30 69 OFFCURVE",
"103 -9 OFFCURVE",
"223 -9 CURVE SMOOTH"
);
}
);
width = 415;
}
);
leftMetricsKey = c;
rightMetricsKey = c;
},
{
color = 4;
glyphname = c_ra;
lastChange = "2020-01-30 18:16:41 +0000";
layers = (
{
layerId = "31E65565-C22C-4792-86EE-013C6F95D489";
paths = (
{
closed = 1;
nodes = (
"174 548 OFFCURVE",
"198 578 OFFCURVE",
"214 578 CURVE SMOOTH",
"237 578 OFFCURVE",
"263 550 OFFCURVE",
"288 529 CURVE",
"327 542 OFFCURVE",
"367 590 OFFCURVE",
"379 633 CURVE",
"358 641 LINE",
"352 621 OFFCURVE",
"342 614 OFFCURVE",
"323 614 CURVE SMOOTH",
"298 614 OFFCURVE",
"272 633 OFFCURVE",
"237 652 CURVE",
"213 617 OFFCURVE",
"191 597 OFFCURVE",
"178 584 CURVE",
"157 603 OFFCURVE",
"132 633 OFFCURVE",
"111 663 CURVE",
"33 565 LINE",
"55 552 LINE",
"66 568 OFFCURVE",
"74 572 OFFCURVE",
"79 572 CURVE SMOOTH",
"99 572 OFFCURVE",
"124 551 OFFCURVE",
"155 522 CURVE"
);
},
{
closed = 1;
nodes = (
"294 -9 OFFCURVE",
"345 14 OFFCURVE",
"384 33 CURVE",
"373 61 LINE",
"350 54 OFFCURVE",
"313 45 OFFCURVE",
"281 45 CURVE SMOOTH",
"201 45 OFFCURVE",
"132 106 OFFCURVE",
"132 209 CURVE SMOOTH",
"132 305 OFFCURVE",
"184 358 OFFCURVE",
"207 358 CURVE SMOOTH",
"267 358 OFFCURVE",
"308 293 OFFCURVE",
"315 293 CURVE",
"347 314 OFFCURVE",
"372 337 OFFCURVE",
"405 358 CURVE",
"398 387 LINE",
"336 384 OFFCURVE",
"312 410 OFFCURVE",
"234 410 CURVE SMOOTH",
"104 410 OFFCURVE",
"30 329 OFFCURVE",
"30 199 CURVE SMOOTH",
"30 69 OFFCURVE",
"103 -9 OFFCURVE",
"223 -9 CURVE SMOOTH"
);
}
);
width = 415;
}
);
leftMetricsKey = c;
},
{
color = 4;
glyphname = c_strok;
lastChange = "2020-01-30 18:16:41 +0000";
layers = (
{
layerId = "31E65565-C22C-4792-86EE-013C6F95D489";
paths = (
{
closed = 1;
nodes = (
"504 457 LINE",
"477 457 LINE",
"478 415 OFFCURVE",
"468 393 OFFCURVE",
"427 389 CURVE",
"429 464 OFFCURVE",
"432 471 OFFCURVE",
"466 493 CURVE",
"464 513 LINE",
"355 511 LINE",
"354 490 LINE",
"387 480 OFFCURVE",
"387 472 OFFCURVE",
"388 389 CURVE",
"336 393 OFFCURVE",
"302 410 OFFCURVE",
"244 410 CURVE SMOOTH",
"114 410 OFFCURVE",
"30 329 OFFCURVE",
"30 199 CURVE SMOOTH",
"30 69 OFFCURVE",
"103 -9 OFFCURVE",
"223 -9 CURVE SMOOTH",
"294 -9 OFFCURVE",
"333 25 OFFCURVE",
"372 63 CURVE",
"361 91 LINE",
"338 69 OFFCURVE",
"313 45 OFFCURVE",
"251 45 CURVE SMOOTH",
"171 45 OFFCURVE",
"132 106 OFFCURVE",
"132 209 CURVE SMOOTH",
"132 305 OFFCURVE",
"184 358 OFFCURVE",
"207 358 CURVE SMOOTH",
"259 358 OFFCURVE",
"326 334 OFFCURVE",
"388 306 CURVE",
"385 160 OFFCURVE",
"371 1 OFFCURVE",
"392 -123 CURVE",
"432 -117 LINE",
"399 7 OFFCURVE",
"415 158 OFFCURVE",
"424 300 CURVE",
"451 318 OFFCURVE",
"474 331 OFFCURVE",
"504 359 CURVE"
);
}
);
width = 514;
}
);
leftMetricsKey = c;
rightMetricsKey = c;
},
{
color = 4;
glyphname = d;
lastChange = "2020-01-30 18:16:41 +0000";
layers = (
{
layerId = "31E65565-C22C-4792-86EE-013C6F95D489";
paths = (
{
closed = 1;
nodes = (
"246 -10 OFFCURVE",
"310 58 OFFCURVE",
"350 81 CURVE",
"360 -9 LINE",
"404 3 OFFCURVE",
"449 12 OFFCURVE",
"493 20 CURVE",
"493 50 LINE",
"457 64 OFFCURVE",
"439 71 OFFCURVE",
"440 114 CURVE SMOOTH",
"446 522 LINE SMOOTH",
"447 622 OFFCURVE",
"456 662 OFFCURVE",
"466 707 CURVE",
"461 711 LINE",
"383 699 OFFCURVE",
"319 691 OFFCURVE",
"232 683 CURVE",
"233 653 LINE",
"256 652 LINE SMOOTH",
"360 650 OFFCURVE",
"350 628 OFFCURVE",
"351 563 CURVE SMOOTH",
"355 356 LINE",
"335 366 OFFCURVE",
"292 381 OFFCURVE",
"232 381 CURVE SMOOTH",
"154 381 OFFCURVE",
"25 318 OFFCURVE",
"25 174 CURVE SMOOTH",
"25 64 OFFCURVE",
"87 -10 OFFCURVE",
"236 -10 CURVE SMOOTH"
);
},
{
closed = 1;
nodes = (
"151 71 OFFCURVE",
"105 139 OFFCURVE",
"105 204 CURVE SMOOTH",
"105 294 OFFCURVE",
"168 331 OFFCURVE",
"216 331 CURVE SMOOTH",
"306 331 OFFCURVE",
"347 268 OFFCURVE",
"347 144 CURVE SMOOTH",
"347 134 OFFCURVE",
"296 71 OFFCURVE",
"236 71 CURVE SMOOTH"
);
}
);
width = 518;
}
);
leftMetricsKey = o;
rightMetricsKey = n;
unicode = 0064;
},
{
color = 4;
glyphname = d_strok;
lastChange = "2020-01-30 18:16:41 +0000";
layers = (
{
layerId = "31E65565-C22C-4792-86EE-013C6F95D489";
paths = (
{
closed = 1;
nodes = (
"445 449 LINE",
"453 449 OFFCURVE",
"462 450 OFFCURVE",
"470 451 CURVE",
"490 482 OFFCURVE",
"502 511 OFFCURVE",
"514 540 CURVE",
"492 547 LINE",
"481 536 OFFCURVE",
"465 526 OFFCURVE",
"446 518 CURVE",
"446 522 LINE SMOOTH",
"447 622 OFFCURVE",
"456 662 OFFCURVE",
"466 707 CURVE",
"461 711 LINE",
"383 699 OFFCURVE",
"319 691 OFFCURVE",
"232 683 CURVE",
"233 653 LINE",
"256 652 LINE SMOOTH",
"360 650 OFFCURVE",
"350 628 OFFCURVE",
"351 563 CURVE SMOOTH",
"352 493 LINE",
"267 478 OFFCURVE",
"162 476 OFFCURVE",
"72 478 CURVE",
"64 444 LINE",
"137 444 OFFCURVE",
"243 439 OFFCURVE",
"353 443 CURVE",
"355 356 LINE",
"335 366 OFFCURVE",
"292 381 OFFCURVE",
"232 381 CURVE SMOOTH",
"154 381 OFFCURVE",
"25 318 OFFCURVE",
"25 174 CURVE SMOOTH",
"25 64 OFFCURVE",
"87 -10 OFFCURVE",
"236 -10 CURVE SMOOTH",
"246 -10 OFFCURVE",
"310 58 OFFCURVE",
"350 81 CURVE",
"360 -9 LINE",
"404 3 OFFCURVE",
"449 12 OFFCURVE",
"493 20 CURVE",
"493 50 LINE",
"457 64 OFFCURVE",
"439 71 OFFCURVE",
"440 114 CURVE SMOOTH"
);
},
{
closed = 1;
nodes = (
"151 71 OFFCURVE",
"105 139 OFFCURVE",
"105 204 CURVE SMOOTH",
"105 294 OFFCURVE",
"168 331 OFFCURVE",
"216 331 CURVE SMOOTH",
"306 331 OFFCURVE",
"347 268 OFFCURVE",
"347 144 CURVE SMOOTH",
"347 134 OFFCURVE",
"296 71 OFFCURVE",
"236 71 CURVE SMOOTH"
);
}
);
width = 509;
}
);
},
{
color = 4;
glyphname = e;
lastChange = "2020-01-30 18:16:41 +0000";
layers = (
{
anchors = (
{
name = bottom;
position = "{188, 0}";
},
{
name = ogonek;
position = "{350, 10}";
},
{
name = top;
position = "{188, 400}";
}
);
layerId = "31E65565-C22C-4792-86EE-013C6F95D489";
paths = (
{
closed = 1;
nodes = (
"193 45 OFFCURVE",
"136 97 OFFCURVE",
"117 170 CURVE",
"199 218 OFFCURVE",
"297 258 OFFCURVE",
"386 307 CURVE",
"375 338 LINE",
"360 338 OFFCURVE",
"339 342 OFFCURVE",
"326 350 CURVE SMOOTH",
"313 358 OFFCURVE",
"268 408 OFFCURVE",
"205 408 CURVE SMOOTH",
"157 408 OFFCURVE",
"68 372 OFFCURVE",
"47 334 CURVE SMOOTH",
"37 316 OFFCURVE",
"15 289 OFFCURVE",
"15 201 CURVE SMOOTH",
"15 91 OFFCURVE",
"78 -10 OFFCURVE",
"217 -10 CURVE SMOOTH",
"289 -10 OFFCURVE",
"331 15 OFFCURVE",
"376 40 CURVE",
"363 65 LINE",
"334 55 OFFCURVE",
"305 45 OFFCURVE",
"267 45 CURVE SMOOTH"
);
},
{
closed = 1;
nodes = (
"203 346 OFFCURVE",
"230 329 OFFCURVE",
"244 279 CURVE",
"111 209 LINE",
"111 222 LINE SMOOTH",
"111 284 OFFCURVE",
"129 346 OFFCURVE",
"178 346 CURVE SMOOTH"
);
}
);
width = 396;
}
);
unicode = 0065;
},
{
color = 4;
glyphname = e_hook;
lastChange = "2020-01-30 18:16:41 +0000";
layers = (
{
anchors = (
{
name = _top;
position = "{405.061, 480.716}";
},
{
name = bottom;
position = "{188, 0}";
},
{
name = ogonek;
position = "{350, 10}";
},
{
name = top;
position = "{219.321, 668.757}";
}
);
layerId = "31E65565-C22C-4792-86EE-013C6F95D489";
paths = (
{
closed = 1;
nodes = (
"326 596 LINE",
"317 555 OFFCURVE",
"290 524 OFFCURVE",
"252 524 CURVE SMOOTH",
"215 524 OFFCURVE",
"174 549 OFFCURVE",
"144 592 CURVE",
"133 592 LINE",
"75 512 LINE",
"120 486 OFFCURVE",
"182 475 OFFCURVE",
"215 475 CURVE SMOOTH",
"285 475 OFFCURVE",
"338 526 OFFCURVE",
"363 586 CURVE"
);
},
{
closed = 1;
nodes = (
"193 45 OFFCURVE",
"136 97 OFFCURVE",
"117 170 CURVE",
"199 218 OFFCURVE",
"297 258 OFFCURVE",
"386 307 CURVE",
"375 338 LINE",
"360 338 OFFCURVE",
"339 342 OFFCURVE",
"326 350 CURVE SMOOTH",
"313 358 OFFCURVE",
"268 408 OFFCURVE",
"205 408 CURVE SMOOTH",
"157 408 OFFCURVE",
"68 372 OFFCURVE",
"47 334 CURVE SMOOTH",
"37 316 OFFCURVE",
"15 289 OFFCURVE",
"15 201 CURVE SMOOTH",
"15 91 OFFCURVE",
"78 -10 OFFCURVE",
"217 -10 CURVE SMOOTH",
"289 -10 OFFCURVE",
"331 15 OFFCURVE",
"376 40 CURVE",
"363 65 LINE",
"334 55 OFFCURVE",
"305 45 OFFCURVE",
"267 45 CURVE SMOOTH"
);
},
{
closed = 1;
nodes = (
"203 346 OFFCURVE",
"230 329 OFFCURVE",
"244 279 CURVE",
"111 209 LINE",
"111 222 LINE SMOOTH",
"111 284 OFFCURVE",
"129 346 OFFCURVE",
"178 346 CURVE SMOOTH"
);
}
);
width = 406;
}
);
},
{
color = 4;
glyphname = e_macr;
lastChange = "2020-01-30 18:16:41 +0000";
layers = (
{
anchors = (
{
name = _top;
position = "{217, 350}";
},
{
name = bottom;
position = "{188, 0}";
},
{
name = ogonek;
position = "{350, 10}";
},
{
name = top;
position = "{208, 623}";
}
);
layerId = "31E65565-C22C-4792-86EE-013C6F95D489";
paths = (
{
closed = 1;
nodes = (
"377 611 LINE",
"351 621 LINE",
"277 570 OFFCURVE",
"241 580 OFFCURVE",
"163 588 CURVE",
"90 498 LINE",
"114 485 LINE",
"143 509 OFFCURVE",
"228 498 OFFCURVE",
"289 492 CURVE"
);
},
{
closed = 1;
nodes = (
"193 45 OFFCURVE",
"136 97 OFFCURVE",
"117 170 CURVE",
"199 218 OFFCURVE",
"297 258 OFFCURVE",
"386 307 CURVE",
"375 338 LINE",
"360 338 OFFCURVE",
"339 342 OFFCURVE",
"326 350 CURVE SMOOTH",
"313 358 OFFCURVE",
"268 408 OFFCURVE",
"205 408 CURVE SMOOTH",
"157 408 OFFCURVE",
"68 372 OFFCURVE",
"47 334 CURVE SMOOTH",
"37 316 OFFCURVE",
"15 289 OFFCURVE",
"15 201 CURVE SMOOTH",
"15 91 OFFCURVE",
"78 -10 OFFCURVE",
"217 -10 CURVE SMOOTH",
"289 -10 OFFCURVE",
"331 15 OFFCURVE",
"376 40 CURVE",
"363 65 LINE",
"334 55 OFFCURVE",
"305 45 OFFCURVE",
"267 45 CURVE SMOOTH"
);
},
{
closed = 1;
nodes = (
"203 346 OFFCURVE",
"230 329 OFFCURVE",
"244 279 CURVE",
"111 209 LINE",
"111 222 LINE SMOOTH",
"111 284 OFFCURVE",
"129 346 OFFCURVE",
"178 346 CURVE SMOOTH"
);
}
);
width = 406;
}
);
unicode = 0113;
},
{
color = 4;
glyphname = f;
lastChange = "2020-01-30 18:16:41 +0000";
layers = (
{
layerId = "31E65565-C22C-4792-86EE-013C6F95D489";
paths = (
{
closed = 1;
nodes = (
"247 25 LINE",
"175 38 OFFCURVE",
"158 37 OFFCURVE",
"157 103 CURVE SMOOTH",
"155 332 LINE",
"192 337 OFFCURVE",
"234 344 OFFCURVE",
"274 347 CURVE",
"274 391 LINE",
"155 390 LINE",
"151 436 OFFCURVE",
"149 481 OFFCURVE",
"152 557 CURVE SMOOTH",
"155 615 OFFCURVE",
"175 653 OFFCURVE",
"220 653 CURVE SMOOTH",
"258 653 OFFCURVE",
"281 632 OFFCURVE",
"304 595 CURVE",
"354 600 LINE",
"354 700 LINE",
"317 702 OFFCURVE",
"281 710 OFFCURVE",
"230 710 CURVE SMOOTH",
"110 710 OFFCURVE",
"65 600 OFFCURVE",
"65 497 CURVE SMOOTH",
"65 455 OFFCURVE",
"67 424 OFFCURVE",
"68 392 CURVE",
"66 390 LINE",
"38 390 LINE",
"38 337 LINE",
"48 336 OFFCURVE",
"58 334 OFFCURVE",
"67 330 CURVE",
"69 251 OFFCURVE",
"69 157 OFFCURVE",
"65 78 CURVE SMOOTH",
"64 56 OFFCURVE",
"60 34 OFFCURVE",
"30 26 CURVE",
"30 -4 LINE",
"109 2 OFFCURVE",
"159 0 OFFCURVE",
"247 -5 CURVE"
);
}
);
width = 314;
}
);
unicode = 0066;
},
{
color = 4;
glyphname = f_f;
lastChange = "2020-02-04 08:13:17 +0000";
layers = (
{
annotations = (
{
position = "{231.293, 95.176}";
type = Plus;
}
);
layerId = "31E65565-C22C-4792-86EE-013C6F95D489";
paths = (
{
closed = 1;
nodes = (
"567 710 OFFCURVE",
"500 676 OFFCURVE",
"458 627 CURVE",
"419 644 OFFCURVE",
"363 658 OFFCURVE",
"306 658 CURVE SMOOTH",
"166 658 OFFCURVE",
"66 561 OFFCURVE",
"66 458 CURVE SMOOTH",
"66 416 OFFCURVE",
"67 424 OFFCURVE",
"68 392 CURVE",
"66 390 LINE",
"38 390 LINE",
"38 352 LINE",
"48 351 OFFCURVE",
"58 349 OFFCURVE",
"67 345 CURVE",
"69 266 OFFCURVE",
"69 147 OFFCURVE",
"65 68 CURVE SMOOTH",
"64 46 OFFCURVE",
"60 32 OFFCURVE",
"30 26 CURVE",
"30 -4 LINE",
"109 2 OFFCURVE",
"159 0 OFFCURVE",
"237 -5 CURVE",
"237 25 LINE",
"175 38 OFFCURVE",
"158 37 OFFCURVE",
"157 103 CURVE SMOOTH",
"155 347 LINE",
"189 347 OFFCURVE",
"354 346 OFFCURVE",
"414 348 CURVE",
"414 78 LINE SMOOTH",
"414 56 OFFCURVE",
"409 34 OFFCURVE",
"349 26 CURVE",
"349 -4 LINE",
"458 2 OFFCURVE",
"508 0 OFFCURVE",
"586 -5 CURVE",
"586 25 LINE",
"524 38 OFFCURVE",
"507 37 OFFCURVE",
"506 103 CURVE SMOOTH",
"504 347 LINE",
"541 348 OFFCURVE",
"620 348 OFFCURVE",
"660 347 CURVE",
"694 383 LINE",
"693 394 LINE",
"630 392 OFFCURVE",
"566 388 OFFCURVE",
"503 390 CURVE",
"497 426 OFFCURVE",
"491 471 OFFCURVE",
"492 527 CURVE SMOOTH",
"494 615 OFFCURVE",
"563 656 OFFCURVE",
"628 656 CURVE SMOOTH",
"676 656 OFFCURVE",
"722 640 OFFCURVE",
"745 584 CURVE",
"827 584 LINE",
"828 598 LINE",
"820 649 OFFCURVE",
"763 710 OFFCURVE",
"639 710 CURVE SMOOTH"
);
},
{
closed = 1;
nodes = (
"155 444 LINE SMOOTH",
"155 542 OFFCURVE",
"211 612 OFFCURVE",
"306 612 CURVE SMOOTH",
"358 612 OFFCURVE",
"398 589 OFFCURVE",
"422 562 CURVE",
"417 547 OFFCURVE",
"414 530 OFFCURVE",
"414 514 CURVE SMOOTH",
"414 391 LINE",
"155 390 LINE"
);
}
);
width = 708;
}
);
},
{
color = 4;
glyphname = g;
lastChange = "2020-02-04 08:13:34 +0000";
layers = (
{
layerId = "31E65565-C22C-4792-86EE-013C6F95D489";
paths = (
{
closed = 1;
nodes = (
"397 -290 OFFCURVE",
"502 -221 OFFCURVE",
"502 -128 CURVE SMOOTH",
"502 -40 OFFCURVE",
"393 -14 OFFCURVE",
"383 -14 CURVE SMOOTH",
"375 -14 OFFCURVE",
"339 -21 OFFCURVE",
"306 -21 CURVE SMOOTH",
"291 -21 OFFCURVE",
"219 11 OFFCURVE",
"204 36 CURVE",
"211 47 OFFCURVE",
"245 63 OFFCURVE",
"262 63 CURVE SMOOTH",
"362 63 OFFCURVE",
"464 120 OFFCURVE",
"464 230 CURVE SMOOTH",
"464 274 OFFCURVE",
"441 313 OFFCURVE",
"422 332 CURVE",
"501 340 LINE",
"501 400 LINE",
"362 400 LINE SMOOTH",
"323 400 OFFCURVE",
"294 410 OFFCURVE",
"251 410 CURVE SMOOTH",
"131 410 OFFCURVE",
"39 350 OFFCURVE",
"39 240 CURVE SMOOTH",
"39 167 OFFCURVE",
"101 108 OFFCURVE",
"179 80 CURVE",
"160 70 OFFCURVE",
"139 66 OFFCURVE",
"107 58 CURVE",
"107 28 LINE",
"146 17 OFFCURVE",
"191 -11 OFFCURVE",
"200 -39 CURVE",
"159 -51 OFFCURVE",
"120 -57 OFFCURVE",
"75 -61 CURVE",
"39 -75 OFFCURVE",
"10 -108 OFFCURVE",
"10 -153 CURVE SMOOTH",
"10 -253 OFFCURVE",
"137 -290 OFFCURVE",
"247 -290 CURVE SMOOTH"
);
},
{
closed = 1;
nodes = (
"191 106 OFFCURVE",
"136 152 OFFCURVE",
"136 218 CURVE SMOOTH",
"136 285 OFFCURVE",
"191 328 OFFCURVE",
"253 328 CURVE SMOOTH",
"323 328 OFFCURVE",
"374 286 OFFCURVE",
"374 219 CURVE SMOOTH",
"374 154 OFFCURVE",
"324 106 OFFCURVE",
"255 106 CURVE SMOOTH"
);
},
{
closed = 1;
nodes = (
"177 -255 OFFCURVE",
"104 -223 OFFCURVE",
"104 -162 CURVE SMOOTH",
"104 -98 OFFCURVE",
"200 -59 OFFCURVE",
"278 -58 CURVE SMOOTH",
"352 -57 OFFCURVE",
"429 -88 OFFCURVE",
"429 -149 CURVE SMOOTH",
"429 -209 OFFCURVE",
"362 -255 OFFCURVE",
"267 -255 CURVE SMOOTH"
);
}
);
width = 517;
}
);
unicode = 0067;
},
{
color = 4;
glyphname = g_ra;
lastChange = "2020-02-04 08:14:28 +0000";
layers = (
{
layerId = "31E65565-C22C-4792-86EE-013C6F95D489";
paths = (
{
closed = 1;
nodes = (
"136 567 OFFCURVE",
"161 546 OFFCURVE",
"192 517 CURVE",
"211 543 OFFCURVE",
"226 569 OFFCURVE",
"242 569 CURVE SMOOTH",
"265 569 OFFCURVE",
"297 542 OFFCURVE",
"322 521 CURVE",
"361 534 OFFCURVE",
"443 571 OFFCURVE",
"492 636 CURVE",
"474 655 LINE",
"432 618 OFFCURVE",
"401 599 OFFCURVE",
"358 599 CURVE SMOOTH",
"332 599 OFFCURVE",
"309 621 OFFCURVE",
"274 647 CURVE",
"253 621 OFFCURVE",
"228 597 OFFCURVE",
"215 584 CURVE",
"194 603 OFFCURVE",
"169 628 OFFCURVE",
"148 658 CURVE",
"66 564 LINE",
"92 547 LINE",
"103 563 OFFCURVE",
"111 567 OFFCURVE",
"116 567 CURVE SMOOTH"
);
},
{
closed = 1;
nodes = (
"245 0 LINE SMOOTH",
"168 -1 OFFCURVE",
"151 28 OFFCURVE",
"151 46 CURVE SMOOTH",
"151 60 OFFCURVE",
"171 79 OFFCURVE",
"200 83 CURVE",
"211 83 LINE SMOOTH",
"351 83 OFFCURVE",
"427 152 OFFCURVE",
"427 259 CURVE SMOOTH",
"427 298 OFFCURVE",
"414 323 OFFCURVE",
"403 349 CURVE",
"446 351 OFFCURVE",
"505 342 OFFCURVE",
"548 340 CURVE",
"571 393 LINE",
"565 400 LINE",
"432 392 OFFCURVE",
"300 410 OFFCURVE",
"244 410 CURVE SMOOTH",
"129 410 OFFCURVE",
"35 347 OFFCURVE",
"35 241 CURVE SMOOTH",
"35 174 OFFCURVE",
"72 117 OFFCURVE",
"140 94 CURVE",
"46 34 LINE",
"46 -10 OFFCURVE",
"96 -51 OFFCURVE",
"150 -66 CURVE",
"95 -90 OFFCURVE",
"47 -127 OFFCURVE",
"47 -170 CURVE SMOOTH",
"47 -253 OFFCURVE",
"160 -288 OFFCURVE",
"308 -288 CURVE SMOOTH",
"440 -288 OFFCURVE",
"564 -209 OFFCURVE",
"564 -119 CURVE SMOOTH",
"564 -46 OFFCURVE",
"497 4 OFFCURVE",
"370 2 CURVE SMOOTH"
);
},
{
closed = 1;
nodes = (
"305 370 OFFCURVE",
"339 306 OFFCURVE",
"339 244 CURVE SMOOTH",
"339 174 OFFCURVE",
"311 111 OFFCURVE",
"230 111 CURVE SMOOTH",
"148 111 OFFCURVE",
"123 184 OFFCURVE",
"123 247 CURVE SMOOTH",
"123 322 OFFCURVE",
"168 370 OFFCURVE",
"231 370 CURVE SMOOTH"
);
},
{
closed = 1;
nodes = (
"193 -256 OFFCURVE",
"133 -205 OFFCURVE",
"133 -161 CURVE SMOOTH",
"133 -121 OFFCURVE",
"161 -88 OFFCURVE",
"214 -70 CURVE",
"269 -69 OFFCURVE",
"335 -66 OFFCURVE",
"386 -67 CURVE SMOOTH",
"461 -68 OFFCURVE",
"495 -109 OFFCURVE",
"495 -158 CURVE SMOOTH",
"495 -221 OFFCURVE",
"418 -256 OFFCURVE",
"308 -256 CURVE SMOOTH"
);
}
);
width = 581;
}
);
},
{
color = 4;
glyphname = g_ring;
lastChange = "2020-02-04 08:14:43 +0000";
layers = (
{
layerId = "31E65565-C22C-4792-86EE-013C6F95D489";
paths = (
{
closed = 1;
nodes = (
"331 508 OFFCURVE",
"391 555 OFFCURVE",
"392 633 CURVE SMOOTH",
"392 722 OFFCURVE",
"331 758 OFFCURVE",
"256 758 CURVE SMOOTH",
"182 758 OFFCURVE",
"121 707 OFFCURVE",
"121 628 CURVE SMOOTH",
"122 551 OFFCURVE",
"182 508 OFFCURVE",
"256 508 CURVE SMOOTH"
);
},
{
closed = 1;
nodes = (
"174 684 OFFCURVE",
"213 706 OFFCURVE",
"258 707 CURVE SMOOTH",
"304 707 OFFCURVE",
"343 677 OFFCURVE",
"342 626 CURVE SMOOTH",
"341 574 OFFCURVE",
"301 551 OFFCURVE",
"258 551 CURVE SMOOTH",
"213 551 OFFCURVE",
"172 581 OFFCURVE",
"173 633 CURVE SMOOTH"
);
},
{
closed = 1;
nodes = (
"178 45 OFFCURVE",
"158 52 OFFCURVE",
"158 59 CURVE SMOOTH",
"158 73 OFFCURVE",
"176 81 OFFCURVE",
"203 83 CURVE SMOOTH",
"218 83 LINE SMOOTH",
"358 83 OFFCURVE",
"441 152 OFFCURVE",
"441 259 CURVE SMOOTH",
"441 298 OFFCURVE",
"421 323 OFFCURVE",
"410 349 CURVE",
"433 351 OFFCURVE",
"462 348 OFFCURVE",
"505 350 CURVE",
"512 403 LINE",
"506 410 LINE",
"373 402 OFFCURVE",
"307 410 OFFCURVE",
"251 410 CURVE SMOOTH",
"136 410 OFFCURVE",
"36 347 OFFCURVE",
"36 241 CURVE SMOOTH",
"36 176 OFFCURVE",
"74 120 OFFCURVE",
"140 96 CURVE",
"73 54 LINE",
"73 36 LINE",
"105 27 OFFCURVE",
"130 16 OFFCURVE",
"158 5 CURVE",
"96 -39 OFFCURVE",
"35 -87 OFFCURVE",
"35 -149 CURVE SMOOTH",
"35 -232 OFFCURVE",
"137 -288 OFFCURVE",
"285 -288 CURVE SMOOTH",
"417 -288 OFFCURVE",
"541 -207 OFFCURVE",
"541 -127 CURVE SMOOTH",
"541 -32 OFFCURVE",
"406 -5 OFFCURVE",
"282 22 CURVE SMOOTH"
);
},
{
closed = 1;
nodes = (
"312 370 OFFCURVE",
"346 306 OFFCURVE",
"346 244 CURVE SMOOTH",
"346 174 OFFCURVE",
"318 111 OFFCURVE",
"237 111 CURVE SMOOTH",
"155 111 OFFCURVE",
"130 184 OFFCURVE",
"130 247 CURVE SMOOTH",
"130 322 OFFCURVE",
"175 370 OFFCURVE",
"238 370 CURVE SMOOTH"
);
},
{
closed = 1;
nodes = (
"175 -254 OFFCURVE",
"122 -217 OFFCURVE",
"122 -137 CURVE SMOOTH",
"122 -93 OFFCURVE",
"150 -48 OFFCURVE",
"196 -9 CURVE",
"210 -13 OFFCURVE",
"225 -18 OFFCURVE",
"242 -22 CURVE SMOOTH",
"387 -58 OFFCURVE",
"448 -93 OFFCURVE",
"448 -154 CURVE SMOOTH",
"448 -227 OFFCURVE",
"368 -254 OFFCURVE",
"290 -254 CURVE SMOOTH"
);
}
);
width = 546;
}
);
},
{
color = 4;
glyphname = g_stroke;
lastChange = "2020-02-04 08:14:55 +0000";
layers = (
{
layerId = "31E65565-C22C-4792-86EE-013C6F95D489";
paths = (
{
closed = 1;
nodes = (
"646 393 LINE",
"644 400 LINE",
"615 398 OFFCURVE",
"583 397 OFFCURVE",
"549 397 CURVE",
"551 421 OFFCURVE",
"554 445 OFFCURVE",
"557 470 CURVE",
"500 470 LINE",
"498 446 OFFCURVE",
"496 422 OFFCURVE",
"495 397 CURVE",
"395 398 OFFCURVE",
"295 402 OFFCURVE",
"260 402 CURVE SMOOTH",
"152 402 OFFCURVE",
"58 342 OFFCURVE",
"58 243 CURVE SMOOTH",
"58 189 OFFCURVE",
"86 141 OFFCURVE",
"136 115 CURVE",
"48 74 LINE",
"48 56 LINE",
"64 51 OFFCURVE",
"105 31 OFFCURVE",
"135 14 CURVE",
"72 -16 OFFCURVE",
"10 -59 OFFCURVE",
"10 -139 CURVE SMOOTH",
"10 -240 OFFCURVE",
"132 -288 OFFCURVE",
"260 -288 CURVE SMOOTH",
"401 -288 OFFCURVE",
"490 -218 OFFCURVE",
"490 -107 CURVE SMOOTH",
"490 -12 OFFCURVE",
"393 40 OFFCURVE",
"297 41 CURVE SMOOTH",
"211 42 OFFCURVE",
"170 46 OFFCURVE",
"133 69 CURVE",
"151 84 OFFCURVE",
"166 93 OFFCURVE",
"183 99 CURVE",
"197 96 OFFCURVE",
"213 94 OFFCURVE",
"229 94 CURVE SMOOTH",
"361 94 OFFCURVE",
"439 159 OFFCURVE",
"439 260 CURVE SMOOTH",
"439 296 OFFCURVE",
"430 325 OFFCURVE",
"410 359 CURVE",
"441 359 OFFCURVE",
"468 359 OFFCURVE",
"494 357 CURVE",
"490 172 OFFCURVE",
"517 -26 OFFCURVE",
"548 -163 CURVE",
"588 -154 LINE",
"552 -23 OFFCURVE",
"532 152 OFFCURVE",
"545 350 CURVE",
"567 346 OFFCURVE",
"588 340 OFFCURVE",
"611 332 CURVE"
);
},
{
closed = 1;
nodes = (
"170 120 OFFCURVE",
"146 189 OFFCURVE",
"146 248 CURVE SMOOTH",
"146 319 OFFCURVE",
"189 364 OFFCURVE",
"248 364 CURVE SMOOTH",
"318 364 OFFCURVE",
"350 304 OFFCURVE",
"350 245 CURVE SMOOTH",
"350 179 OFFCURVE",
"323 120 OFFCURVE",
"247 120 CURVE SMOOTH"
);
},
{
closed = 1;
nodes = (
"416 -208 OFFCURVE",
"361 -260 OFFCURVE",
"265 -260 CURVE SMOOTH",
"170 -260 OFFCURVE",
"92 -226 OFFCURVE",
"92 -128 CURVE SMOOTH",
"92 -81 OFFCURVE",
"119 -23 OFFCURVE",
"185 7 CURVE",
"340 13 OFFCURVE",
"416 -36 OFFCURVE",
"416 -124 CURVE SMOOTH"
);
}
);
width = 651;
}
);
},
{
color = 4;
glyphname = g.ss01;
lastChange = "2020-02-04 08:15:18 +0000";
layers = (
{
layerId = "31E65565-C22C-4792-86EE-013C6F95D489";
paths = (
{
closed = 1;
nodes = (
"362 -6 OFFCURVE",
"302 -17 OFFCURVE",
"244 -17 CURVE SMOOTH",
"188 -17 OFFCURVE",
"141 8 OFFCURVE",
"141 36 CURVE SMOOTH",
"141 56 OFFCURVE",
"177 78 OFFCURVE",
"209 83 CURVE SMOOTH",
"211 83 LINE SMOOTH",
"351 83 OFFCURVE",
"427 152 OFFCURVE",
"427 259 CURVE SMOOTH",
"427 278 OFFCURVE",
"422 307 OFFCURVE",
"413 323 CURVE",
"456 331 OFFCURVE",
"495 335 OFFCURVE",
"538 337 CURVE",
"535 400 LINE",
"434 400 LINE SMOOTH",
"365 400 OFFCURVE",
"327 411 OFFCURVE",
"244 410 CURVE SMOOTH",
"131 408 OFFCURVE",
"35 347 OFFCURVE",
"35 241 CURVE SMOOTH",
"35 173 OFFCURVE",
"73 115 OFFCURVE",
"144 93 CURVE",
"46 34 LINE",
"46 -7 OFFCURVE",
"89 -40 OFFCURVE",
"139 -54 CURVE",
"77 -74 OFFCURVE",
"38 -91 OFFCURVE",
"38 -150 CURVE SMOOTH",
"38 -233 OFFCURVE",
"160 -288 OFFCURVE",
"308 -288 CURVE SMOOTH",
"440 -288 OFFCURVE",
"574 -219 OFFCURVE",
"574 -119 CURVE SMOOTH",
"574 -46 OFFCURVE",
"517 -6 OFFCURVE",
"431 -6 CURVE SMOOTH"
);
},
{
closed = 1;
nodes = (
"295 350 OFFCURVE",
"329 306 OFFCURVE",
"329 244 CURVE SMOOTH",
"329 174 OFFCURVE",
"282 121 OFFCURVE",
"221 121 CURVE SMOOTH",
"169 121 OFFCURVE",
"131 164 OFFCURVE",
"131 227 CURVE SMOOTH",
"131 302 OFFCURVE",
"178 350 OFFCURVE",
"241 350 CURVE SMOOTH"
);
},
{
closed = 1;
nodes = (
"214 -251 OFFCURVE",
"133 -195 OFFCURVE",
"133 -131 CURVE SMOOTH",
"133 -101 OFFCURVE",
"151 -79 OFFCURVE",
"192 -62 CURVE",
"250 -63 OFFCURVE",
"307 -63 OFFCURVE",
"365 -64 CURVE SMOOTH",
"440 -65 OFFCURVE",
"515 -88 OFFCURVE",
"515 -148 CURVE SMOOTH",
"515 -210 OFFCURVE",
"439 -251 OFFCURVE",
"329 -251 CURVE SMOOTH"
);
}
);
width = 579;
}
);
},
{
color = 4;
glyphname = h;
lastChange = "2020-02-04 08:15:26 +0000";
layers = (
{
layerId = "31E65565-C22C-4792-86EE-013C6F95D489";
paths = (
{
closed = 1;
nodes = (
"235 410 OFFCURVE",
"188 390 OFFCURVE",
"148 353 CURVE",
"148 419 OFFCURVE",
"149 485 OFFCURVE",
"151 551 CURVE SMOOTH",
"152 595 OFFCURVE",
"157 666 OFFCURVE",
"161 705 CURVE",
"152 710 LINE",
"104 701 OFFCURVE",
"60 695 OFFCURVE",
"20 689 CURVE",
"20 659 LINE",
"47 656 OFFCURVE",
"54 626 OFFCURVE",
"56 596 CURVE SMOOTH",
"65 421 OFFCURVE",
"65 245 OFFCURVE",
"56 70 CURVE SMOOTH",
"55 52 OFFCURVE",
"42 34 OFFCURVE",
"28 27 CURVE",
"28 -3 LINE",
"53 -1 OFFCURVE",
"84 0 OFFCURVE",
"112 0 CURVE SMOOTH",
"132 0 OFFCURVE",
"158 0 OFFCURVE",
"182 -3 CURVE",
"182 27 LINE",
"162 34 OFFCURVE",
"152 47 OFFCURVE",
"151 71 CURVE SMOOTH",
"149 139 OFFCURVE",
"148 208 OFFCURVE",
"148 276 CURVE",
"165 330 OFFCURVE",
"215 352 OFFCURVE",
"255 352 CURVE SMOOTH",
"345 352 OFFCURVE",
"401 267 OFFCURVE",
"401 177 CURVE SMOOTH",
"401 118 OFFCURVE",
"381 61 OFFCURVE",
"343 10 CURVE",
"368 -10 LINE",
"434 57 OFFCURVE",
"488 136 OFFCURVE",
"488 227 CURVE SMOOTH",
"488 327 OFFCURVE",
"411 410 OFFCURVE",
"301 410 CURVE SMOOTH"
);
}
);
width = 523;
}
);
leftMetricsKey = l;
unicode = 0068;
},
{
color = 4;
glyphname = h_strok;
lastChange = "2020-01-30 18:16:41 +0000";
layers = (
{
layerId = "31E65565-C22C-4792-86EE-013C6F95D489";
paths = (
{
closed = 1;
nodes = (
"478 142 OFFCURVE",
"477 175 OFFCURVE",
"480 270 CURVE SMOOTH",
"483 359 OFFCURVE",
"430 410 OFFCURVE",
"311 410 CURVE SMOOTH",
"244 410 OFFCURVE",
"194 380 OFFCURVE",
"157 352 CURVE",
"157 414 OFFCURVE",
"158 475 OFFCURVE",
"160 536 CURVE",
"240 537 OFFCURVE",
"329 537 OFFCURVE",
"423 536 CURVE",
"444 547 OFFCURVE",
"468 579 OFFCURVE",
"484 608 CURVE",
"462 612 LINE",
"437 575 OFFCURVE",
"300 572 OFFCURVE",
"160 565 CURVE",
"162 609 OFFCURVE",
"166 670 OFFCURVE",
"170 705 CURVE",
"161 710 LINE",
"113 701 OFFCURVE",
"69 695 OFFCURVE",
"29 689 CURVE",
"29 659 LINE",
"56 656 OFFCURVE",
"63 626 OFFCURVE",
"65 596 CURVE SMOOTH",
"66 584 OFFCURVE",
"66 572 OFFCURVE",
"67 560 CURVE",
"23 557 LINE",
"20 532 LINE",
"35 533 OFFCURVE",
"51 533 OFFCURVE",
"68 534 CURVE",
"74 379 OFFCURVE",
"73 224 OFFCURVE",
"65 70 CURVE SMOOTH",
"64 52 OFFCURVE",
"51 34 OFFCURVE",
"37 27 CURVE",
"37 -3 LINE",
"75 0 OFFCURVE",
"157 1 OFFCURVE",
"191 -3 CURVE",
"191 27 LINE",
"171 34 OFFCURVE",
"161 47 OFFCURVE",
"160 71 CURVE SMOOTH",
"158 144 OFFCURVE",
"157 217 OFFCURVE",
"157 290 CURVE",
"184 327 OFFCURVE",
"230 351 OFFCURVE",
"266 351 CURVE SMOOTH",
"341 351 OFFCURVE",
"391 296 OFFCURVE",
"393 208 CURVE SMOOTH",
"396 97 OFFCURVE",
"376 43 OFFCURVE",
"357 27 CURVE",
"356 -3 LINE",
"409 1 OFFCURVE",
"445 0 OFFCURVE",
"536 -3 CURVE",
"537 27 LINE",
"486 43 OFFCURVE",
"484 56 OFFCURVE",
"481 96 CURVE SMOOTH"
);
}
);
width = 542;
}
);
leftMetricsKey = h;
},
{
color = 4;
glyphname = h_ring;
lastChange = "2020-02-04 08:26:27 +0000";
layers = (
{
layerId = "31E65565-C22C-4792-86EE-013C6F95D489";
paths = (
{
closed = 1;
nodes = (
"214 367 OFFCURVE",
"175 357 OFFCURVE",
"139 343 CURVE",
"139 437 OFFCURVE",
"139 532 OFFCURVE",
"141 611 CURVE SMOOTH",
"142 655 OFFCURVE",
"150 659 OFFCURVE",
"187 672 CURVE",
"188 698 LINE",
"40 710 LINE",
"47 521 OFFCURVE",
"62 239 OFFCURVE",
"47 2 CURVE",
"175 -3 LINE",
"180 27 LINE",
"160 34 OFFCURVE",
"145 47 OFFCURVE",
"144 71 CURVE SMOOTH",
"142 131 OFFCURVE",
"141 200 OFFCURVE",
"140 272 CURVE",
"173 307 OFFCURVE",
"213 327 OFFCURVE",
"261 327 CURVE SMOOTH",
"364 327 OFFCURVE",
"432 262 OFFCURVE",
"432 186 CURVE SMOOTH",
"432 107 OFFCURVE",
"393 72 OFFCURVE",
"325 52 CURVE",
"307 66 OFFCURVE",
"296 78 OFFCURVE",
"279 97 CURVE",
"251 82 LINE",
"269 51 OFFCURVE",
"288 17 OFFCURVE",
"302 -10 CURVE",
"404 10 OFFCURVE",
"520 67 OFFCURVE",
"520 190 CURVE SMOOTH",
"520 304 OFFCURVE",
"420 367 OFFCURVE",
"265 367 CURVE SMOOTH"
);
},
{
closed = 1;
nodes = (
"478 443 OFFCURVE",
"548 493 OFFCURVE",
"548 570 CURVE SMOOTH",
"548 640 OFFCURVE",
"498 697 OFFCURVE",
"414 697 CURVE SMOOTH",
"341 697 OFFCURVE",
"281 639 OFFCURVE",
"281 569 CURVE SMOOTH",
"281 490 OFFCURVE",
"341 444 OFFCURVE",
"414 443 CURVE SMOOTH"
);
},
{
closed = 1;
nodes = (
"448 643 OFFCURVE",
"487 614 OFFCURVE",
"487 566 CURVE SMOOTH",
"487 519 OFFCURVE",
"457 485 OFFCURVE",
"408 485 CURVE SMOOTH",
"362 485 OFFCURVE",
"326 519 OFFCURVE",
"326 566 CURVE SMOOTH",
"326 608 OFFCURVE",
"358 641 OFFCURVE",
"402 642 CURVE SMOOTH"
);
}
);
width = 573;
}
);
rightMetricsKey = p;
},
{
color = 4;
glyphname = i;
lastChange = "2020-01-30 18:16:41 +0000";
layers = (
{
layerId = "31E65565-C22C-4792-86EE-013C6F95D489";
paths = (
{
closed = 1;
nodes = (
"136 512 OFFCURVE",
"158 534 OFFCURVE",
"158 562 CURVE SMOOTH",
"158 589 OFFCURVE",
"136 611 OFFCURVE",
"109 611 CURVE SMOOTH",
"82 611 OFFCURVE",
"60 589 OFFCURVE",
"60 562 CURVE SMOOTH",
"60 534 OFFCURVE",
"82 512 OFFCURVE",
"109 512 CURVE SMOOTH"
);
},
{
closed = 1;
nodes = (
"95 -5 OFFCURVE",
"152 0 OFFCURVE",
"203 0 CURVE",
"203 30 LINE",
"165 44 OFFCURVE",
"163 58 OFFCURVE",
"162 95 CURVE SMOOTH",
"160 158 OFFCURVE",
"160 220 OFFCURVE",
"162 283 CURVE SMOOTH",
"163 324 OFFCURVE",
"166 375 OFFCURVE",
"169 405 CURVE",
"162 411 LINE",
"114 402 OFFCURVE",
"70 396 OFFCURVE",
"30 390 CURVE",
"30 360 LINE",
"57 357 OFFCURVE",
"65 337 OFFCURVE",
"66 307 CURVE SMOOTH",
"68 239 OFFCURVE",
"68 170 OFFCURVE",
"64 102 CURVE SMOOTH",
"62 60 OFFCURVE",
"60 38 OFFCURVE",
"48 8 CURVE",
"53 -10 LINE"
);
}
);
width = 233;
}
);
unicode = 0069;
},
{
color = 4;
glyphname = idotless;
lastChange = "2020-01-30 18:16:41 +0000";
layers = (
{
layerId = "31E65565-C22C-4792-86EE-013C6F95D489";
paths = (
{
closed = 1;
nodes = (
"95 -5 OFFCURVE",
"152 0 OFFCURVE",
"203 0 CURVE",
"203 30 LINE",
"165 44 OFFCURVE",
"163 58 OFFCURVE",
"162 95 CURVE SMOOTH",
"160 158 OFFCURVE",
"160 220 OFFCURVE",
"162 283 CURVE SMOOTH",
"163 324 OFFCURVE",
"166 375 OFFCURVE",
"169 405 CURVE",
"162 411 LINE",
"114 402 OFFCURVE",
"70 396 OFFCURVE",
"30 390 CURVE",
"30 360 LINE",
"57 357 OFFCURVE",
"65 337 OFFCURVE",
"66 307 CURVE SMOOTH",
"68 239 OFFCURVE",
"68 170 OFFCURVE",
"64 102 CURVE SMOOTH",
"62 60 OFFCURVE",
"60 38 OFFCURVE",
"48 8 CURVE",
"53 -10 LINE"
);
}
);
width = 233;
}
);
unicode = 0131;
},
{
color = 4;
glyphname = i_hook;
lastChange = "2020-02-04 08:26:47 +0000";
layers = (
{
layerId = "31E65565-C22C-4792-86EE-013C6F95D489";
paths = (
{
closed = 1;
nodes = (
"172 498 OFFCURVE",
"231 532 OFFCURVE",
"231 597 CURVE SMOOTH",
"231 640 OFFCURVE",
"197 685 OFFCURVE",
"129 701 CURVE",
"65 620 LINE",
"117 606 OFFCURVE",
"160 591 OFFCURVE",
"160 556 CURVE SMOOTH",
"160 525 OFFCURVE",
"104 500 OFFCURVE",
"61 484 CURVE",
"65 454 LINE"
);
},
{
closed = 1;
nodes = (
"73 0 OFFCURVE",
"154 1 OFFCURVE",
"205 0 CURVE",
"205 30 LINE",
"187 44 OFFCURVE",
"182 58 OFFCURVE",
"181 95 CURVE SMOOTH",
"179 158 OFFCURVE",
"179 220 OFFCURVE",
"181 283 CURVE SMOOTH",
"182 324 OFFCURVE",
"185 375 OFFCURVE",
"188 405 CURVE",
"181 411 LINE",
"79 385 LINE",
"88 304 OFFCURVE",
"89 255 OFFCURVE",
"88 93 CURVE SMOOTH",
"88 51 OFFCURVE",
"77 43 OFFCURVE",
"30 23 CURVE",
"31 -5 LINE"
);
}
);
width = 261;
}
);
leftMetricsKey = i;
rightMetricsKey = i;
},
{
color = 4;
glyphname = i_macr;
lastChange = "2020-02-04 08:27:07 +0000";
layers = (
{
anchors = (
{
name = _top;
position = "{176, 341}";
},
{
name = top;
position = "{105, 607}";
}
);
layerId = "31E65565-C22C-4792-86EE-013C6F95D489";
paths = (
{
closed = 1;
nodes = (
"76 496 OFFCURVE",
"152 502 OFFCURVE",
"212 505 CURVE",
"233 538 OFFCURVE",
"257 597 OFFCURVE",
"266 660 CURVE",
"237 663 LINE",
"228 572 OFFCURVE",
"141 579 OFFCURVE",
"67 587 CURVE",
"30 474 LINE",
"55 465 LINE"
);
},
{
closed = 1;
nodes = (
"107 -5 OFFCURVE",
"164 0 OFFCURVE",
"195 0 CURVE",
"195 30 LINE",
"177 64 OFFCURVE",
"171 112 OFFCURVE",
"171 179 CURVE SMOOTH",
"171 263 OFFCURVE",
"171 327 OFFCURVE",
"181 405 CURVE",
"174 411 LINE",
"126 402 OFFCURVE",
"82 396 OFFCURVE",
"42 390 CURVE",
"42 360 LINE",
"69 357 OFFCURVE",
"77 337 OFFCURVE",
"78 307 CURVE SMOOTH",
"80 239 OFFCURVE",
"80 170 OFFCURVE",
"76 102 CURVE SMOOTH",
"74 60 OFFCURVE",
"72 38 OFFCURVE",
"60 8 CURVE",
"65 -10 LINE"
);
}
);
width = 251;
}
);
leftMetricsKey = i;
unicode = 012B;
},
{
color = 4;
glyphname = i_ring;
lastChange = "2020-02-04 08:27:20 +0000";
layers = (
{
layerId = "31E65565-C22C-4792-86EE-013C6F95D489";
paths = (
{
closed = 1;
nodes = (
"194 475 OFFCURVE",
"257 520 OFFCURVE",
"256 590 CURVE SMOOTH",
"255 654 OFFCURVE",
"212 705 OFFCURVE",
"136 705 CURVE SMOOTH",
"69 705 OFFCURVE",
"15 653 OFFCURVE",
"15 590 CURVE SMOOTH",
"15 518 OFFCURVE",
"69 477 OFFCURVE",
"136 476 CURVE SMOOTH"
);
},
{
closed = 1;
nodes = (
"99 516 OFFCURVE",
"68 546 OFFCURVE",
"68 586 CURVE SMOOTH",
"68 623 OFFCURVE",
"96 653 OFFCURVE",
"135 653 CURVE SMOOTH",
"172 653 OFFCURVE",
"208 628 OFFCURVE",
"208 586 CURVE SMOOTH",
"208 546 OFFCURVE",
"181 516 OFFCURVE",
"139 516 CURVE SMOOTH"
);
},
{
closed = 1;
nodes = (
"116 -1 OFFCURVE",
"134 10 OFFCURVE",
"173 27 CURVE",
"171 90 OFFCURVE",
"171 220 OFFCURVE",
"173 283 CURVE SMOOTH",
"174 324 OFFCURVE",
"177 367 OFFCURVE",
"180 397 CURVE",
"177 403 LINE",
"129 403 OFFCURVE",
"74 403 OFFCURVE",
"24 400 CURVE",
"24 370 LINE",
"81 362 OFFCURVE",
"76 362 OFFCURVE",
"77 317 CURVE SMOOTH",
"79 249 OFFCURVE",
"79 170 OFFCURVE",
"75 102 CURVE SMOOTH",
"73 60 OFFCURVE",
"68 28 OFFCURVE",
"66 -2 CURVE",
"84 -16 LINE"
);
}
);
width = 241;
}
);
},
{
color = 6;
glyphname = j;
lastChange = "2020-01-30 18:16:41 +0000";
layers = (
{
layerId = "31E65565-C22C-4792-86EE-013C6F95D489";
paths = (
{
closed = 1;
nodes = (
"146 512 OFFCURVE",
"168 534 OFFCURVE",
"168 562 CURVE SMOOTH",
"168 589 OFFCURVE",
"146 611 OFFCURVE",
"119 611 CURVE SMOOTH",
"92 611 OFFCURVE",
"70 589 OFFCURVE",
"70 562 CURVE SMOOTH",
"70 534 OFFCURVE",
"92 512 OFFCURVE",
"119 512 CURVE SMOOTH"
);
},
{
closed = 1;
nodes = (
"116 -95 OFFCURVE",
"168 2 OFFCURVE",
"167 105 CURVE SMOOTH",
"166 168 OFFCURVE",
"170 220 OFFCURVE",
"172 283 CURVE SMOOTH",
"173 324 OFFCURVE",
"176 375 OFFCURVE",
"179 405 CURVE",
"172 411 LINE",
"124 402 OFFCURVE",
"80 396 OFFCURVE",
"40 390 CURVE",
"40 360 LINE",
"67 357 OFFCURVE",
"75 337 OFFCURVE",
"76 307 CURVE SMOOTH",
"78 239 OFFCURVE",
"74 88 OFFCURVE",
"71 20 CURVE SMOOTH",
"69 -22 OFFCURVE",
"65 -94 OFFCURVE",
"30 -177 CURVE",
"59 -195 LINE"
);
}
);
width = 234;
}
);
leftMetricsKey = i;
unicode = 006A;
},
{
color = 4;
glyphname = k;
lastChange = "2020-02-04 08:27:45 +0000";
layers = (
{
layerId = "31E65565-C22C-4792-86EE-013C6F95D489";
paths = (
{
closed = 1;
nodes = (
"314 248 LINE",
"365 296 OFFCURVE",
"414 348 OFFCURVE",
"465 376 CURVE",
"466 401 LINE",
"266 400 LINE",
"265 375 LINE",
"343 354 OFFCURVE",
"330 314 OFFCURVE",
"307 288 CURVE SMOOTH",
"263 237 LINE",
"174 237 LINE",
"175 341 OFFCURVE",
"176 446 OFFCURVE",
"181 550 CURVE SMOOTH",
"183 594 OFFCURVE",
"185 665 OFFCURVE",
"189 704 CURVE",
"182 710 LINE",
"134 701 OFFCURVE",
"60 685 OFFCURVE",
"20 679 CURVE",
"20 649 LINE",
"47 646 OFFCURVE",
"84 636 OFFCURVE",
"86 586 CURVE SMOOTH",
"91 449 OFFCURVE",
"93 292 OFFCURVE",
"87 90 CURVE SMOOTH",
"86 55 OFFCURVE",
"74 41 OFFCURVE",
"32 27 CURVE",
"31 -3 LINE",
"92 0 OFFCURVE",
"192 -1 OFFCURVE",
"236 -3 CURVE",
"236 27 LINE",
"194 41 OFFCURVE",
"174 55 OFFCURVE",
"174 90 CURVE SMOOTH",
"174 205 LINE",
"254 205 LINE",
"382 0 LINE",
"421 -2 OFFCURVE",
"460 -6 OFFCURVE",
"499 -12 CURVE",
"506 14 LINE",
"485 24 OFFCURVE",
"458 46 OFFCURVE",
"441 70 CURVE SMOOTH"
);
}
);
width = 511;
}
);
leftMetricsKey = h;
unicode = 006B;
},
{
color = 4;
glyphname = l;
lastChange = "2020-02-04 08:28:18 +0000";
layers = (
{
layerId = "31E65565-C22C-4792-86EE-013C6F95D489";
paths = (
{
closed = 1;
nodes = (
"206 32 LINE",
"164 46 OFFCURVE",
"144 55 OFFCURVE",
"144 90 CURVE SMOOTH",
"144 243 OFFCURVE",
"145 397 OFFCURVE",
"151 550 CURVE SMOOTH",
"153 594 OFFCURVE",
"155 665 OFFCURVE",
"159 704 CURVE",
"152 710 LINE",
"104 701 OFFCURVE",
"60 695 OFFCURVE",
"20 689 CURVE",
"20 659 LINE",
"47 656 OFFCURVE",
"54 636 OFFCURVE",
"56 586 CURVE SMOOTH",
"61 449 OFFCURVE",
"61 302 OFFCURVE",
"58 150 CURVE SMOOTH",
"56 67 OFFCURVE",
"48 17 OFFCURVE",
"49 9 CURVE SMOOTH",
"50 -2 LINE",
"68 -1 OFFCURVE",
"93 0 OFFCURVE",
"111 0 CURVE SMOOTH",
"131 0 OFFCURVE",
"162 -1 OFFCURVE",
"206 -3 CURVE"
);
}
);
width = 211;
}
);
unicode = 006C;
},
{
color = 4;
glyphname = l_strok;
lastChange = "2020-02-04 08:28:40 +0000";
layers = (
{
layerId = "31E65565-C22C-4792-86EE-013C6F95D489";
paths = (
{
closed = 1;
nodes = (
"333 624 OFFCURVE",
"305 660 OFFCURVE",
"234 691 CURVE",
"165 628 LINE",
"163 619 LINE",
"217 601 OFFCURVE",
"256 582 OFFCURVE",
"256 526 CURVE SMOOTH",
"256 489 OFFCURVE",
"227 441 OFFCURVE",
"147 408 CURVE",
"148 455 OFFCURVE",
"149 503 OFFCURVE",
"151 550 CURVE SMOOTH",
"153 594 OFFCURVE",
"155 665 OFFCURVE",
"159 704 CURVE",
"152 710 LINE",
"104 701 OFFCURVE",
"60 695 OFFCURVE",
"20 689 CURVE",
"20 659 LINE",
"47 656 OFFCURVE",
"54 636 OFFCURVE",
"56 586 CURVE SMOOTH",
"58 520 OFFCURVE",
"60 452 OFFCURVE",
"60 382 CURVE",
"46 379 OFFCURVE",
"31 376 OFFCURVE",
"15 374 CURVE",
"17 368 LINE",
"45 353 LINE",
"50 353 OFFCURVE",
"55 354 OFFCURVE",
"60 355 CURVE",
"60 288 OFFCURVE",
"59 219 OFFCURVE",
"58 150 CURVE SMOOTH",
"56 67 OFFCURVE",
"48 17 OFFCURVE",
"49 9 CURVE SMOOTH",
"50 -2 LINE",
"68 -1 OFFCURVE",
"93 0 OFFCURVE",
"111 0 CURVE SMOOTH",
"131 0 OFFCURVE",
"162 -1 OFFCURVE",
"206 -3 CURVE",
"206 32 LINE",
"164 46 OFFCURVE",
"144 55 OFFCURVE",
"144 90 CURVE SMOOTH",
"144 185 OFFCURVE",
"144 281 OFFCURVE",
"146 376 CURVE",
"252 415 OFFCURVE",
"333 495 OFFCURVE",
"333 577 CURVE SMOOTH"
);
}
);
width = 333;
}
);
unicode = A769;
},
{
color = 4;
glyphname = m;
lastChange = "2020-01-30 18:16:41 +0000";
layers = (
{
layerId = "31E65565-C22C-4792-86EE-013C6F95D489";
paths = (
{
closed = 1;
nodes = (
"52 -1 OFFCURVE",
"155 -1 OFFCURVE",
"183 -3 CURVE",
"183 27 LINE",
"157 47 OFFCURVE",
"159 63 OFFCURVE",
"156 96 CURVE SMOOTH",
"153 126 OFFCURVE",
"154 201 OFFCURVE",
"159 244 CURVE SMOOTH",
"166 299 OFFCURVE",
"193 347 OFFCURVE",
"250 347 CURVE SMOOTH",
"309 347 OFFCURVE",
"328 303 OFFCURVE",
"331 235 CURVE SMOOTH",
"333 186 OFFCURVE",
"329 113 OFFCURVE",
"326 78 CURVE SMOOTH",
"323 47 OFFCURVE",
"312 37 OFFCURVE",
"286 27 CURVE",
"286 -3 LINE",
"338 1 OFFCURVE",
"425 0 OFFCURVE",
"474 -3 CURVE",
"474 27 LINE",
"451 36 OFFCURVE",
"436 45 OFFCURVE",
"433 71 CURVE SMOOTH",
"428 118 OFFCURVE",
"423 206 OFFCURVE",
"431 266 CURVE SMOOTH",
"437 310 OFFCURVE",
"465 347 OFFCURVE",
"514 347 CURVE SMOOTH",
"582 347 OFFCURVE",
"602 290 OFFCURVE",
"606 235 CURVE SMOOTH",
"609 189 OFFCURVE",
"607 138 OFFCURVE",
"604 96 CURVE SMOOTH",
"602 61 OFFCURVE",
"597 43 OFFCURVE",
"578 27 CURVE",
"578 -3 LINE",
"630 1 OFFCURVE",
"667 0 OFFCURVE",
"726 -3 CURVE",
"726 27 LINE",
"705 43 OFFCURVE",
"705 56 OFFCURVE",
"703 96 CURVE SMOOTH",
"701 142 OFFCURVE",
"700 193 OFFCURVE",
"702 261 CURVE SMOOTH",
"704 338 OFFCURVE",
"673 410 OFFCURVE",
"563 410 CURVE SMOOTH",
"518 410 OFFCURVE",
"470 387 OFFCURVE",
"422 338 CURVE",
"397 385 OFFCURVE",
"365 410 OFFCURVE",
"299 410 CURVE SMOOTH",
"248 410 OFFCURVE",
"198 384 OFFCURVE",
"158 342 CURVE",
"159 400 LINE",
"148 410 LINE",
"103 391 OFFCURVE",
"61 374 OFFCURVE",
"25 363 CURVE",
"25 333 LINE",
"52 327 OFFCURVE",
"60 321 OFFCURVE",
"60 282 CURVE SMOOTH",
"60 212 OFFCURVE",
"58 105 OFFCURVE",
"55 78 CURVE SMOOTH",
"52 53 OFFCURVE",
"47 40 OFFCURVE",
"32 27 CURVE",
"32 -3 LINE"
);
}
);
width = 751;
}
);
leftMetricsKey = n;
rightMetricsKey = n;
unicode = 006D;
},
{
color = 4;
glyphname = m_macr;
lastChange = "2020-02-04 08:28:52 +0000";
layers = (
{
anchors = (
{
name = _top;
position = "{440, 353}";
},
{
name = top;
position = "{431, 626}";
}
);
layerId = "31E65565-C22C-4792-86EE-013C6F95D489";
paths = (
{
closed = 1;
nodes = (
"622 629 LINE",
"594 637 LINE",
"520 586 OFFCURVE",
"464 605 OFFCURVE",
"386 605 CURVE",
"303 510 LINE",
"327 497 LINE",
"376 521 OFFCURVE",
"451 501 OFFCURVE",
"512 495 CURVE"
);
},
{
closed = 1;
nodes = (
"52 -1 OFFCURVE",
"155 -1 OFFCURVE",
"183 -3 CURVE",
"183 27 LINE",
"157 47 OFFCURVE",
"159 63 OFFCURVE",
"156 96 CURVE SMOOTH",
"153 126 OFFCURVE",
"154 201 OFFCURVE",
"159 244 CURVE SMOOTH",
"166 299 OFFCURVE",
"193 347 OFFCURVE",
"250 347 CURVE SMOOTH",
"309 347 OFFCURVE",
"328 303 OFFCURVE",
"331 235 CURVE SMOOTH",
"333 186 OFFCURVE",
"329 113 OFFCURVE",
"326 78 CURVE SMOOTH",
"323 47 OFFCURVE",
"312 37 OFFCURVE",
"286 27 CURVE",
"286 -3 LINE",
"338 1 OFFCURVE",
"425 0 OFFCURVE",
"474 -3 CURVE",
"474 27 LINE",
"451 36 OFFCURVE",
"436 45 OFFCURVE",
"433 71 CURVE SMOOTH",
"428 118 OFFCURVE",
"423 206 OFFCURVE",
"431 266 CURVE SMOOTH",
"437 310 OFFCURVE",
"465 347 OFFCURVE",
"514 347 CURVE SMOOTH",
"582 347 OFFCURVE",
"602 290 OFFCURVE",
"606 235 CURVE SMOOTH",
"609 189 OFFCURVE",
"607 138 OFFCURVE",
"604 96 CURVE SMOOTH",
"602 61 OFFCURVE",
"597 43 OFFCURVE",
"578 27 CURVE",
"578 -3 LINE",
"630 1 OFFCURVE",
"667 0 OFFCURVE",
"726 -3 CURVE",
"726 27 LINE",
"705 43 OFFCURVE",
"705 56 OFFCURVE",
"703 96 CURVE SMOOTH",
"701 142 OFFCURVE",
"700 193 OFFCURVE",
"702 261 CURVE SMOOTH",
"704 338 OFFCURVE",
"673 410 OFFCURVE",
"563 410 CURVE SMOOTH",
"518 410 OFFCURVE",
"470 387 OFFCURVE",
"422 338 CURVE",
"397 385 OFFCURVE",
"365 410 OFFCURVE",
"299 410 CURVE SMOOTH",
"248 410 OFFCURVE",
"198 384 OFFCURVE",
"158 342 CURVE",
"159 400 LINE",
"148 410 LINE",
"103 391 OFFCURVE",
"61 374 OFFCURVE",
"25 363 CURVE",
"25 333 LINE",
"52 327 OFFCURVE",
"60 321 OFFCURVE",
"60 282 CURVE SMOOTH",
"60 212 OFFCURVE",
"58 105 OFFCURVE",
"55 78 CURVE SMOOTH",
"52 53 OFFCURVE",
"47 40 OFFCURVE",
"32 27 CURVE",
"32 -3 LINE"
);
}
);
width = 751;
}
);
leftMetricsKey = m;
rightMetricsKey = m;
unicode = E5B8;
},
{
color = 4;
glyphname = m_urrot;
lastChange = "2020-01-30 18:16:41 +0000";
layers = (
{
layerId = "31E65565-C22C-4792-86EE-013C6F95D489";
paths = (
{
closed = 1;
nodes = (
"488 540 LINE",
"489 565 LINE",
"446 569 OFFCURVE",
"439 569 OFFCURVE",
"445 619 CURVE SMOOTH",
"459 745 LINE",
"455 750 LINE",
"325 745 LINE",
"324 714 LINE",
"360 714 OFFCURVE",
"368 714 OFFCURVE",
"369 667 CURVE SMOOTH",
"371 526 LINE",
"376 520 LINE"
);
},
{
closed = 1;
nodes = (
"52 -1 OFFCURVE",
"155 -1 OFFCURVE",
"183 -3 CURVE",
"183 27 LINE",
"157 47 OFFCURVE",
"159 63 OFFCURVE",
"156 96 CURVE SMOOTH",
"153 126 OFFCURVE",
"154 201 OFFCURVE",
"159 244 CURVE SMOOTH",
"166 299 OFFCURVE",
"193 347 OFFCURVE",
"250 347 CURVE SMOOTH",
"309 347 OFFCURVE",
"328 303 OFFCURVE",
"331 235 CURVE SMOOTH",
"333 186 OFFCURVE",
"329 113 OFFCURVE",
"326 78 CURVE SMOOTH",
"323 47 OFFCURVE",
"312 37 OFFCURVE",
"286 27 CURVE",
"286 -3 LINE",
"338 1 OFFCURVE",
"425 0 OFFCURVE",
"474 -3 CURVE",
"474 27 LINE",
"451 36 OFFCURVE",
"436 45 OFFCURVE",
"433 71 CURVE SMOOTH",
"428 118 OFFCURVE",
"423 206 OFFCURVE",
"431 266 CURVE SMOOTH",
"437 310 OFFCURVE",
"465 347 OFFCURVE",
"514 347 CURVE SMOOTH",
"582 347 OFFCURVE",
"602 290 OFFCURVE",
"606 235 CURVE SMOOTH",
"609 189 OFFCURVE",
"607 138 OFFCURVE",
"604 96 CURVE SMOOTH",
"602 61 OFFCURVE",
"597 43 OFFCURVE",
"578 27 CURVE",
"578 -3 LINE",
"630 1 OFFCURVE",
"667 0 OFFCURVE",
"726 -3 CURVE",
"726 27 LINE",
"705 43 OFFCURVE",
"705 56 OFFCURVE",
"703 96 CURVE SMOOTH",
"701 142 OFFCURVE",
"700 193 OFFCURVE",
"702 261 CURVE SMOOTH",
"704 338 OFFCURVE",
"673 410 OFFCURVE",
"563 410 CURVE SMOOTH",
"518 410 OFFCURVE",
"470 387 OFFCURVE",
"422 338 CURVE",
"397 385 OFFCURVE",
"365 410 OFFCURVE",
"299 410 CURVE SMOOTH",
"248 410 OFFCURVE",
"198 384 OFFCURVE",
"158 342 CURVE",
"159 400 LINE",
"148 410 LINE",
"103 391 OFFCURVE",
"61 374 OFFCURVE",
"25 363 CURVE",
"25 333 LINE",
"52 327 OFFCURVE",
"60 321 OFFCURVE",
"60 282 CURVE SMOOTH",
"60 212 OFFCURVE",
"58 105 OFFCURVE",
"55 78 CURVE SMOOTH",
"52 53 OFFCURVE",
"47 40 OFFCURVE",
"32 27 CURVE",
"32 -3 LINE"
);
}
);
width = 751;
}
);
leftMetricsKey = m;
rightMetricsKey = m;
},
{
color = 4;
glyphname = m_urrot.ss01;
lastChange = "2020-02-04 08:29:02 +0000";
layers = (
{
layerId = "31E65565-C22C-4792-86EE-013C6F95D489";
paths = (
{
closed = 1;
nodes = (
"575 492 OFFCURVE",
"633 522 OFFCURVE",
"678 552 CURVE",
"677 556 LINE",
"640 572 LINE",
"535 511 OFFCURVE",
"465 512 OFFCURVE",
"465 549 CURVE SMOOTH",
"465 570 OFFCURVE",
"510 597 OFFCURVE",
"571 629 CURVE",
"571 671 OFFCURVE",
"539 731 OFFCURVE",
"504 731 CURVE SMOOTH",
"470 731 OFFCURVE",
"428 720 OFFCURVE",
"404 706 CURVE",
"413 679 LINE",
"456 688 OFFCURVE",
"489 684 OFFCURVE",
"489 650 CURVE",
"459 618 OFFCURVE",
"403 612 OFFCURVE",
"403 552 CURVE SMOOTH",
"403 503 OFFCURVE",
"458 492 OFFCURVE",
"496 492 CURVE SMOOTH"
);
},
{
closed = 1;
nodes = (
"52 -1 OFFCURVE",
"155 -1 OFFCURVE",
"183 -3 CURVE",
"183 27 LINE",
"157 47 OFFCURVE",
"159 63 OFFCURVE",
"156 96 CURVE SMOOTH",
"153 126 OFFCURVE",
"154 201 OFFCURVE",
"159 244 CURVE SMOOTH",
"166 299 OFFCURVE",
"193 347 OFFCURVE",
"250 347 CURVE SMOOTH",
"309 347 OFFCURVE",
"328 303 OFFCURVE",
"331 235 CURVE SMOOTH",
"333 186 OFFCURVE",
"329 113 OFFCURVE",
"326 78 CURVE SMOOTH",
"323 47 OFFCURVE",
"312 37 OFFCURVE",
"286 27 CURVE",
"286 -3 LINE",
"338 1 OFFCURVE",
"425 0 OFFCURVE",
"474 -3 CURVE",
"474 27 LINE",
"451 36 OFFCURVE",
"436 45 OFFCURVE",
"433 71 CURVE SMOOTH",
"428 118 OFFCURVE",
"423 206 OFFCURVE",
"431 266 CURVE SMOOTH",
"437 310 OFFCURVE",
"465 347 OFFCURVE",
"514 347 CURVE SMOOTH",
"582 347 OFFCURVE",
"602 290 OFFCURVE",
"606 235 CURVE SMOOTH",
"609 189 OFFCURVE",
"607 138 OFFCURVE",
"604 96 CURVE SMOOTH",
"602 61 OFFCURVE",
"597 43 OFFCURVE",
"578 27 CURVE",
"578 -3 LINE",
"630 1 OFFCURVE",
"667 0 OFFCURVE",
"726 -3 CURVE",
"726 27 LINE",
"705 43 OFFCURVE",
"705 56 OFFCURVE",
"703 96 CURVE SMOOTH",
"701 142 OFFCURVE",
"700 193 OFFCURVE",
"702 261 CURVE SMOOTH",
"704 338 OFFCURVE",
"673 410 OFFCURVE",
"563 410 CURVE SMOOTH",
"518 410 OFFCURVE",
"470 387 OFFCURVE",
"422 338 CURVE",
"397 385 OFFCURVE",
"365 410 OFFCURVE",
"299 410 CURVE SMOOTH",
"248 410 OFFCURVE",
"198 384 OFFCURVE",
"158 342 CURVE",
"159 400 LINE",
"148 410 LINE",
"103 391 OFFCURVE",
"61 374 OFFCURVE",
"25 363 CURVE",
"25 333 LINE",
"52 327 OFFCURVE",
"60 321 OFFCURVE",
"60 282 CURVE SMOOTH",
"60 212 OFFCURVE",
"58 105 OFFCURVE",
"55 78 CURVE SMOOTH",
"52 53 OFFCURVE",
"47 40 OFFCURVE",
"32 27 CURVE",
"32 -3 LINE"
);
}
);
width = 751;
}
);
leftMetricsKey = m;
rightMetricsKey = m;
},
{
color = 4;
glyphname = n;
lastChange = "2020-01-30 18:16:41 +0000";
layers = (
{
layerId = "31E65565-C22C-4792-86EE-013C6F95D489";
paths = (
{
closed = 1;
nodes = (
"431 142 OFFCURVE",
"427 215 OFFCURVE",
"433 310 CURVE SMOOTH",
"436 359 OFFCURVE",
"383 410 OFFCURVE",
"294 410 CURVE SMOOTH",
"267 410 OFFCURVE",
"218 383 OFFCURVE",
"158 348 CURVE",
"159 400 LINE",
"149 409 LINE",
"109 392 OFFCURVE",
"67 376 OFFCURVE",
"25 363 CURVE",
"25 333 LINE",
"56 327 OFFCURVE",
"64 321 OFFCURVE",
"64 282 CURVE SMOOTH",
"64 212 OFFCURVE",
"62 105 OFFCURVE",
"59 78 CURVE SMOOTH",
"56 53 OFFCURVE",
"51 40 OFFCURVE",
"36 27 CURVE",
"36 -3 LINE",
"75 1 OFFCURVE",
"142 0 OFFCURVE",
"187 -3 CURVE",
"187 27 LINE",
"161 47 OFFCURVE",
"163 63 OFFCURVE",
"160 96 CURVE SMOOTH",
"157 122 OFFCURVE",
"158 232 OFFCURVE",
"158 287 CURVE",
"181 324 OFFCURVE",
"212 341 OFFCURVE",
"249 341 CURVE SMOOTH",
"294 341 OFFCURVE",
"330 314 OFFCURVE",
"335 276 CURVE SMOOTH",
"340 235 OFFCURVE",
"339 137 OFFCURVE",
"335 96 CURVE SMOOTH",
"332 61 OFFCURVE",
"329 43 OFFCURVE",
"310 27 CURVE",
"309 -3 LINE",
"362 1 OFFCURVE",
"398 0 OFFCURVE",
"459 -3 CURVE",
"460 27 LINE",
"439 43 OFFCURVE",
"437 56 OFFCURVE",
"434 96 CURVE SMOOTH"
);
}
);
width = 485;
}
);
unicode = 006E;
},
{
color = 4;
glyphname = n_macr;
lastChange = "2020-01-30 18:16:41 +0000";
layers = (
{
anchors = (
{
name = _top;
position = "{259, 421}";
},
{
name = top;
position = "{250, 630}";
}
);
layerId = "31E65565-C22C-4792-86EE-013C6F95D489";
paths = (
{
closed = 1;
nodes = (
"423 622 LINE",
"424 667 LINE",
"415 667 LINE",
"371 608 OFFCURVE",
"303 617 OFFCURVE",
"225 617 CURVE",
"122 541 LINE",
"146 531 LINE",
"185 547 OFFCURVE",
"240 534 OFFCURVE",
"301 530 CURVE"
);
},
{
closed = 1;
nodes = (
"471 142 OFFCURVE",
"468 212 OFFCURVE",
"473 307 CURVE SMOOTH",
"476 366 OFFCURVE",
"423 410 OFFCURVE",
"334 410 CURVE SMOOTH",
"270 410 OFFCURVE",
"218 383 OFFCURVE",
"158 348 CURVE",
"159 400 LINE",
"149 409 LINE",
"109 392 OFFCURVE",
"67 376 OFFCURVE",
"25 363 CURVE",
"25 333 LINE",
"56 327 OFFCURVE",
"64 321 OFFCURVE",
"64 282 CURVE SMOOTH",
"64 212 OFFCURVE",
"62 105 OFFCURVE",
"59 78 CURVE SMOOTH",
"56 53 OFFCURVE",
"51 40 OFFCURVE",
"36 27 CURVE",
"36 -3 LINE",
"75 1 OFFCURVE",
"142 0 OFFCURVE",
"187 -3 CURVE",
"187 27 LINE",
"161 47 OFFCURVE",
"163 63 OFFCURVE",
"160 96 CURVE SMOOTH",
"157 124 OFFCURVE",
"158 253 OFFCURVE",
"158 301 CURVE",
"183 325 OFFCURVE",
"224 346 OFFCURVE",
"279 346 CURVE SMOOTH",
"343 346 OFFCURVE",
"385 314 OFFCURVE",
"385 223 CURVE SMOOTH",
"385 156 OFFCURVE",
"383 55 OFFCURVE",
"350 27 CURVE",
"349 -3 LINE",
"402 1 OFFCURVE",
"438 0 OFFCURVE",
"499 -3 CURVE",
"500 27 LINE",
"479 43 OFFCURVE",
"477 56 OFFCURVE",
"474 96 CURVE SMOOTH"
);
}
);
width = 525;
}
);
leftMetricsKey = n;
rightMetricsKey = n;
unicode = E5DC;
},
{
color = 4;
glyphname = n_urrot;
lastChange = "2020-02-04 08:29:15 +0000";
layers = (
{
layerId = "31E65565-C22C-4792-86EE-013C6F95D489";
paths = (
{
closed = 1;
nodes = (
"211 495 LINE",
"216 489 LINE",
"328 509 LINE",
"329 534 LINE",
"286 538 OFFCURVE",
"279 538 OFFCURVE",
"285 588 CURVE SMOOTH",
"299 714 LINE",
"295 719 LINE",
"165 714 LINE",
"164 683 LINE",
"200 683 OFFCURVE",
"208 683 OFFCURVE",
"209 636 CURVE SMOOTH"
);
},
{
closed = 1;
nodes = (
"437 142 OFFCURVE",
"442 240 OFFCURVE",
"437 335 CURVE SMOOTH",
"435 374 OFFCURVE",
"381 413 OFFCURVE",
"345 413 CURVE SMOOTH",
"317 413 OFFCURVE",
"221 383 OFFCURVE",
"153 346 CURVE",
"154 365 OFFCURVE",
"155 384 OFFCURVE",
"157 400 CURVE",
"147 409 LINE",
"107 392 OFFCURVE",
"75 376 OFFCURVE",
"53 363 CURVE",
"57 275 OFFCURVE",
"58 67 OFFCURVE",
"50 -6 CURVE",
"185 -3 LINE",
"185 27 LINE",
"159 47 OFFCURVE",
"161 63 OFFCURVE",
"158 96 CURVE SMOOTH",
"154 130 OFFCURVE",
"150 222 OFFCURVE",
"152 305 CURVE",
"188 332 OFFCURVE",
"227 342 OFFCURVE",
"267 342 CURVE SMOOTH",
"346 342 OFFCURVE",
"352 288 OFFCURVE",
"351 179 CURVE SMOOTH",
"350 88 OFFCURVE",
"346 43 OFFCURVE",
"327 27 CURVE",
"326 -3 LINE",
"350 -1 OFFCURVE",
"442 -2 OFFCURVE",
"465 -3 CURVE",
"466 27 LINE",
"445 43 OFFCURVE",
"443 56 OFFCURVE",
"440 96 CURVE SMOOTH"
);
}
);
width = 491;
}
);
rightMetricsKey = n;
},
{
color = 4;
glyphname = o;
lastChange = "2020-02-04 08:31:10 +0000";
layers = (
{
anchors = (
{
name = bottom;
position = "{234, 0}";
},
{
name = center;
position = "{234, 200}";
},
{
name = ogonek;
position = "{421, 10}";
},
{
name = top;
position = "{234, 400}";
},
{
name = topright;
position = "{448, 400}";
}
);
layerId = "31E65565-C22C-4792-86EE-013C6F95D489";
paths = (
{
closed = 1;
nodes = (
"357 -10 OFFCURVE",
"443 80 OFFCURVE",
"443 197 CURVE SMOOTH",
"443 324 OFFCURVE",
"351 410 OFFCURVE",
"226 410 CURVE SMOOTH",
"103 410 OFFCURVE",
"25 314 OFFCURVE",
"25 197 CURVE SMOOTH",
"25 70 OFFCURVE",
"117 -10 OFFCURVE",
"242 -10 CURVE SMOOTH"
);
},
{
closed = 1;
nodes = (
"168 33 OFFCURVE",
"119 114 OFFCURVE",
"119 219 CURVE SMOOTH",
"119 319 OFFCURVE",
"166 366 OFFCURVE",
"228 366 CURVE SMOOTH",
"298 366 OFFCURVE",
"348 280 OFFCURVE",
"348 187 CURVE SMOOTH",
"348 101 OFFCURVE",
"304 33 OFFCURVE",
"244 33 CURVE SMOOTH"
);
}
);
width = 468;
}
);
unicode = 006F;
},
{
color = 4;
glyphname = o_hook;
lastChange = "2020-01-30 18:16:41 +0000";
layers = (
{
anchors = (
{
name = bottom;
position = "{234, 0}";
},
{
name = center;
position = "{234, 200}";
},
{
name = ogonek;
position = "{421, 10}";
},
{
name = top;
position = "{234, 400}";
},
{
name = topright;
position = "{448, 400}";
}
);
layerId = "31E65565-C22C-4792-86EE-013C6F95D489";
paths = (
{
closed = 1;
nodes = (
"391 457 OFFCURVE",
"413 536 OFFCURVE",
"358 626 CURVE",
"253 612 LINE",
"310 547 OFFCURVE",
"340 493 OFFCURVE",
"271 493 CURVE SMOOTH",
"240 493 OFFCURVE",
"195 511 OFFCURVE",
"165 524 CURVE",
"146 499 LINE",
"210 474 OFFCURVE",
"259 457 OFFCURVE",
"299 457 CURVE SMOOTH"
);
},
{
closed = 1;
nodes = (
"359 -10 OFFCURVE",
"443 80 OFFCURVE",
"443 197 CURVE SMOOTH",
"443 324 OFFCURVE",
"349 410 OFFCURVE",
"224 410 CURVE SMOOTH",
"101 410 OFFCURVE",
"25 314 OFFCURVE",
"25 197 CURVE SMOOTH",
"25 70 OFFCURVE",
"119 -10 OFFCURVE",
"244 -10 CURVE SMOOTH"
);
},
{
closed = 1;
nodes = (
"168 33 OFFCURVE",
"119 114 OFFCURVE",
"119 219 CURVE SMOOTH",
"119 319 OFFCURVE",
"166 366 OFFCURVE",
"228 366 CURVE SMOOTH",
"298 366 OFFCURVE",
"348 280 OFFCURVE",
"348 187 CURVE SMOOTH",
"348 101 OFFCURVE",
"304 33 OFFCURVE",
"244 33 CURVE SMOOTH"
);
}
);
width = 468;
}
);
},
{
color = 4;
glyphname = o_macr;
lastChange = "2020-01-30 18:16:41 +0000";
layers = (
{
anchors = (
{
name = _top;
position = "{234.092, 395.343}";
},
{
name = bottom;
position = "{234, 0}";
},
{
name = center;
position = "{234, 200}";
},
{
name = ogonek;
position = "{421, 10}";
},
{
name = top;
position = "{177.822, 662.633}";
},
{
name = topright;
position = "{448, 400}";
}
);
layerId = "31E65565-C22C-4792-86EE-013C6F95D489";
paths = (
{
closed = 1;
nodes = (
"142 550 OFFCURVE",
"219 543 OFFCURVE",
"280 548 CURVE",
"365 699 LINE",
"336 702 LINE",
"272 639 OFFCURVE",
"214 648 OFFCURVE",
"137 634 CURVE",
"72 526 LINE",
"98 518 LINE"
);
},
{
closed = 1;
nodes = (
"359 -10 OFFCURVE",
"443 80 OFFCURVE",
"443 197 CURVE SMOOTH",
"443 324 OFFCURVE",
"349 410 OFFCURVE",
"224 410 CURVE SMOOTH",
"101 410 OFFCURVE",
"25 314 OFFCURVE",
"25 197 CURVE SMOOTH",
"25 70 OFFCURVE",
"119 -10 OFFCURVE",
"244 -10 CURVE SMOOTH"
);
},
{
closed = 1;
nodes = (
"168 33 OFFCURVE",
"119 114 OFFCURVE",
"119 219 CURVE SMOOTH",
"119 319 OFFCURVE",
"166 366 OFFCURVE",
"228 366 CURVE SMOOTH",
"298 366 OFFCURVE",
"348 280 OFFCURVE",
"348 187 CURVE SMOOTH",
"348 101 OFFCURVE",
"304 33 OFFCURVE",
"244 33 CURVE SMOOTH"
);
}
);
width = 468;
}
);
unicode = 014D;
},
{
color = 4;
glyphname = o_ra;
lastChange = "2020-02-04 08:29:47 +0000";
layers = (
{
anchors = (
{
name = bottom;
position = "{244, 0}";
},
{
name = center;
position = "{244, 200}";
},
{
name = ogonek;
position = "{431, 10}";
},
{
name = top;
position = "{244, 400}";
},
{
name = topright;
position = "{458, 400}";
}
);
layerId = "31E65565-C22C-4792-86EE-013C6F95D489";
paths = (
{
closed = 1;
nodes = (
"454 575 OFFCURVE",
"425 555 OFFCURVE",
"384 555 CURVE SMOOTH",
"345 555 OFFCURVE",
"314 587 OFFCURVE",
"288 636 CURVE",
"278 638 LINE",
"259 617 OFFCURVE",
"217 575 OFFCURVE",
"182 575 CURVE SMOOTH",
"145 575 OFFCURVE",
"106 619 OFFCURVE",
"86 644 CURVE",
"77 647 LINE",
"47 611 OFFCURVE",
"30 558 OFFCURVE",
"30 514 CURVE",
"49 510 LINE",
"53 523 OFFCURVE",
"53 540 OFFCURVE",
"66 553 CURVE",
"91 538 OFFCURVE",
"127 514 OFFCURVE",
"147 504 CURVE",
"180 537 OFFCURVE",
"213 553 OFFCURVE",
"241 562 CURVE",
"266 541 OFFCURVE",
"284 516 OFFCURVE",
"300 492 CURVE",
"386 492 OFFCURVE",
"471 536 OFFCURVE",
"505 614 CURVE",
"488 633 LINE"
);
},
{
closed = 1;
nodes = (
"111 410 OFFCURVE",
"35 314 OFFCURVE",
"35 197 CURVE SMOOTH",
"35 70 OFFCURVE",
"129 -10 OFFCURVE",
"254 -10 CURVE SMOOTH",
"369 -10 OFFCURVE",
"453 80 OFFCURVE",
"453 197 CURVE SMOOTH",
"453 324 OFFCURVE",
"359 410 OFFCURVE",
"234 410 CURVE SMOOTH"
);
},
{
closed = 1;
nodes = (
"178 33 OFFCURVE",
"129 114 OFFCURVE",
"129 219 CURVE SMOOTH",
"129 319 OFFCURVE",
"176 366 OFFCURVE",
"238 366 CURVE SMOOTH",
"308 366 OFFCURVE",
"358 280 OFFCURVE",
"358 187 CURVE SMOOTH",
"358 101 OFFCURVE",
"314 33 OFFCURVE",
"254 33 CURVE SMOOTH"
);
}
);
width = 500;
}
);
},
{
color = 4;
glyphname = o_tilde;
lastChange = "2020-02-04 08:30:27 +0000";
layers = (
{
anchors = (
{
name = bottom;
position = "{234, 0}";
},
{
name = center;
position = "{234, 200}";
},
{
name = ogonek;
position = "{421, 10}";
},
{
name = top;
position = "{234, 400}";
},
{
name = topright;
position = "{448, 400}";
}
);
layerId = "31E65565-C22C-4792-86EE-013C6F95D489";
paths = (
{
closed = 1;
nodes = (
"131 508 OFFCURVE",
"141 523 OFFCURVE",
"168 523 CURVE SMOOTH",
"196 523 OFFCURVE",
"248 489 OFFCURVE",
"290 489 CURVE SMOOTH",
"322 489 OFFCURVE",
"345 557 OFFCURVE",
"356 606 CURVE",
"328 614 LINE",
"311 593 OFFCURVE",
"308 576 OFFCURVE",
"282 576 CURVE SMOOTH",
"251 576 OFFCURVE",
"201 606 OFFCURVE",
"164 606 CURVE SMOOTH",
"119 606 OFFCURVE",
"95 531 OFFCURVE",
"95 492 CURVE",
"121 484 LINE"
);
},
{
closed = 1;
nodes = (
"359 -10 OFFCURVE",
"443 80 OFFCURVE",
"443 197 CURVE SMOOTH",
"443 324 OFFCURVE",
"349 410 OFFCURVE",
"224 410 CURVE SMOOTH",
"101 410 OFFCURVE",
"25 314 OFFCURVE",
"25 197 CURVE SMOOTH",
"25 70 OFFCURVE",
"119 -10 OFFCURVE",
"244 -10 CURVE SMOOTH"
);
},
{
closed = 1;
nodes = (
"168 33 OFFCURVE",
"119 114 OFFCURVE",
"119 219 CURVE SMOOTH",
"119 319 OFFCURVE",
"166 366 OFFCURVE",
"228 366 CURVE SMOOTH",
"298 366 OFFCURVE",
"348 280 OFFCURVE",
"348 187 CURVE SMOOTH",
"348 101 OFFCURVE",
"304 33 OFFCURVE",
"244 33 CURVE SMOOTH"
);
}
);
width = 468;
}
);
leftMetricsKey = o;
rightMetricsKey = o;
},
{
color = 4;
glyphname = p;
lastChange = "2020-01-30 18:16:41 +0000";
layers = (
{
hints = (
{
place = "{-3.762, 0}";
type = Stem;
}
);
layerId = "31E65565-C22C-4792-86EE-013C6F95D489";
paths = (
{
closed = 1;
nodes = (
"50 -281 OFFCURVE",
"97 -280 OFFCURVE",
"114 -280 CURVE SMOOTH",
"133 -280 OFFCURVE",
"174 -282 OFFCURVE",
"199 -283 CURVE",
"199 -253 LINE",
"182 -244 OFFCURVE",
"164 -238 OFFCURVE",
"164 -207 CURVE SMOOTH",
"162 22 LINE",
"188 7 OFFCURVE",
"224 -8 OFFCURVE",
"270 -8 CURVE SMOOTH",
"392 -8 OFFCURVE",
"483 97 OFFCURVE",
"483 217 CURVE SMOOTH",
"483 327 OFFCURVE",
"420 408 OFFCURVE",
"320 408 CURVE SMOOTH",
"276 408 OFFCURVE",
"210 364 OFFCURVE",
"161 328 CURVE",
"164 401 LINE",
"152 410 LINE",
"107 394 OFFCURVE",
"72 381 OFFCURVE",
"25 370 CURVE",
"25 340 LINE",
"51 330 OFFCURVE",
"66 326 OFFCURVE",
"71 250 CURVE SMOOTH",
"77 163 OFFCURVE",
"74 -106 OFFCURVE",
"69 -195 CURVE SMOOTH",
"67 -231 OFFCURVE",
"58 -242 OFFCURVE",
"35 -253 CURVE",
"35 -283 LINE"
);
},
{
closed = 1;
nodes = (
"204 40 OFFCURVE",
"162 117 OFFCURVE",
"162 203 CURVE SMOOTH",
"162 299 OFFCURVE",
"211 340 OFFCURVE",
"260 340 CURVE SMOOTH",
"329 340 OFFCURVE",
"386 277 OFFCURVE",
"386 177 CURVE SMOOTH",
"386 109 OFFCURVE",
"359 40 OFFCURVE",
"289 40 CURVE SMOOTH"
);
}
);
width = 508;
}
);
leftMetricsKey = n;
rightMetricsKey = o;
unicode = 0070;
},
{
color = 4;
glyphname = p_bardes;
lastChange = "2020-02-04 08:30:45 +0000";
layers = (
{
hints = (
{
place = "{38.238, 0}";
type = Stem;
}
);
layerId = "31E65565-C22C-4792-86EE-013C6F95D489";
paths = (
{
closed = 1;
nodes = (
"414 -8 OFFCURVE",
"505 97 OFFCURVE",
"505 217 CURVE SMOOTH",
"505 327 OFFCURVE",
"442 408 OFFCURVE",
"342 408 CURVE SMOOTH",
"298 408 OFFCURVE",
"232 364 OFFCURVE",
"183 328 CURVE",
"186 401 LINE",
"174 410 LINE",
"129 394 OFFCURVE",
"94 381 OFFCURVE",
"47 370 CURVE",
"47 340 LINE",
"73 330 OFFCURVE",
"88 326 OFFCURVE",
"93 250 CURVE SMOOTH",
"97 196 OFFCURVE",
"97 73 OFFCURVE",
"95 -34 CURVE",
"81 -31 OFFCURVE",
"65 -29 OFFCURVE",
"49 -26 CURVE",
"40 -38 OFFCURVE",
"15 -64 OFFCURVE",
"5 -74 CURVE",
"20 -82 LINE",
"36 -80 OFFCURVE",
"61 -79 OFFCURVE",
"95 -81 CURVE",
"94 -128 OFFCURVE",
"92 -169 OFFCURVE",
"91 -195 CURVE SMOOTH",
"89 -231 OFFCURVE",
"80 -242 OFFCURVE",
"57 -253 CURVE",
"57 -283 LINE",
"72 -281 OFFCURVE",
"119 -280 OFFCURVE",
"136 -280 CURVE SMOOTH",
"155 -280 OFFCURVE",
"196 -282 OFFCURVE",
"221 -283 CURVE",
"221 -253 LINE",
"204 -244 OFFCURVE",
"186 -238 OFFCURVE",
"186 -207 CURVE SMOOTH",
"185 -91 LINE",
"242 -99 OFFCURVE",
"311 -111 OFFCURVE",
"392 -129 CURVE",
"398 -125 LINE",
"389 -96 LINE",
"325 -84 OFFCURVE",
"262 -69 OFFCURVE",
"185 -52 CURVE",
"184 22 LINE",
"210 7 OFFCURVE",
"246 -8 OFFCURVE",
"292 -8 CURVE SMOOTH"
);
},
{
closed = 1;
nodes = (
"351 340 OFFCURVE",
"408 277 OFFCURVE",
"408 177 CURVE SMOOTH",
"408 109 OFFCURVE",
"381 40 OFFCURVE",
"311 40 CURVE SMOOTH",
"226 40 OFFCURVE",
"184 117 OFFCURVE",
"184 203 CURVE SMOOTH",
"184 299 OFFCURVE",
"233 340 OFFCURVE",
"282 340 CURVE SMOOTH"
);
}
);
width = 530;
}
);
rightMetricsKey = o;
},
{
color = 4;
glyphname = p_flour;
lastChange = "2020-01-30 18:16:41 +0000";
layers = (
{
hints = (
{
place = "{106.238, 0}";
type = Stem;
}
);
layerId = "31E65565-C22C-4792-86EE-013C6F95D489";
paths = (
{
closed = 1;
nodes = (
"386 408 OFFCURVE",
"320 364 OFFCURVE",
"271 328 CURVE",
"274 401 LINE",
"262 410 LINE",
"217 394 OFFCURVE",
"182 381 OFFCURVE",
"135 370 CURVE",
"135 340 LINE",
"161 330 OFFCURVE",
"176 326 OFFCURVE",
"181 250 CURVE SMOOTH",
"184 214 OFFCURVE",
"184 145 OFFCURVE",
"184 72 CURVE",
"83 35 OFFCURVE",
"10 -30 OFFCURVE",
"10 -89 CURVE SMOOTH",
"10 -122 OFFCURVE",
"26 -155 OFFCURVE",
"55 -179 CURVE",
"104 -172 OFFCURVE",
"143 -161 OFFCURVE",
"181 -144 CURVE",
"180 -164 OFFCURVE",
"180 -182 OFFCURVE",
"179 -195 CURVE SMOOTH",
"177 -231 OFFCURVE",
"168 -242 OFFCURVE",
"145 -253 CURVE",
"145 -283 LINE",
"160 -281 OFFCURVE",
"207 -280 OFFCURVE",
"224 -280 CURVE SMOOTH",
"243 -280 OFFCURVE",
"284 -282 OFFCURVE",
"309 -283 CURVE",
"309 -253 LINE",
"292 -244 OFFCURVE",
"274 -238 OFFCURVE",
"274 -207 CURVE SMOOTH",
"272 22 LINE",
"298 7 OFFCURVE",
"334 -8 OFFCURVE",
"380 -8 CURVE SMOOTH",
"502 -8 OFFCURVE",
"593 97 OFFCURVE",
"593 217 CURVE SMOOTH",
"593 327 OFFCURVE",
"530 408 OFFCURVE",
"430 408 CURVE SMOOTH"
);
},
{
closed = 1;
nodes = (
"314 40 OFFCURVE",
"272 117 OFFCURVE",
"272 203 CURVE SMOOTH",
"272 299 OFFCURVE",
"321 340 OFFCURVE",
"370 340 CURVE SMOOTH",
"439 340 OFFCURVE",
"496 277 OFFCURVE",
"496 177 CURVE SMOOTH",
"496 109 OFFCURVE",
"469 40 OFFCURVE",
"399 40 CURVE SMOOTH"
);
},
{
closed = 1;
nodes = (
"111 -18 OFFCURVE",
"137 10 OFFCURVE",
"184 38 CURVE",
"184 -9 OFFCURVE",
"183 -56 OFFCURVE",
"182 -97 CURVE",
"134 -93 OFFCURVE",
"111 -78 OFFCURVE",
"111 -47 CURVE SMOOTH"
);
}
);
width = 618;
}
);
rightMetricsKey = o;
unicode = A752;
},
{
color = 4;
glyphname = p_p_flour;
lastChange = "2020-01-30 18:16:41 +0000";
layers = (
{
hints = (
{
place = "{932.238, 0}";
type = Stem;
},
{
place = "{612.238, 0}";
type = Stem;
}
);
layerId = "31E65565-C22C-4792-86EE-013C6F95D489";
paths = (
{
closed = 1;
nodes = (
"672 408 OFFCURVE",
"606 364 OFFCURVE",
"557 328 CURVE",
"560 401 LINE",
"548 410 LINE",
"440 377 OFFCURVE",
"353 353 OFFCURVE",
"267 328 CURVE",
"270 401 LINE",
"258 410 LINE",
"213 394 OFFCURVE",
"178 381 OFFCURVE",
"131 370 CURVE",
"131 340 LINE",
"157 330 OFFCURVE",
"172 326 OFFCURVE",
"177 250 CURVE SMOOTH",
"179 214 OFFCURVE",
"180 147 OFFCURVE",
"180 74 CURVE",
"76 37 OFFCURVE",
"0 -29 OFFCURVE",
"0 -89 CURVE SMOOTH",
"0 -122 OFFCURVE",
"16 -155 OFFCURVE",
"45 -179 CURVE",
"96 -172 OFFCURVE",
"137 -160 OFFCURVE",
"177 -141 CURVE",
"177 -162 OFFCURVE",
"176 -181 OFFCURVE",
"175 -195 CURVE SMOOTH",
"173 -231 OFFCURVE",
"164 -242 OFFCURVE",
"141 -253 CURVE",
"141 -283 LINE",
"156 -281 OFFCURVE",
"203 -280 OFFCURVE",
"220 -280 CURVE SMOOTH",
"239 -280 OFFCURVE",
"280 -282 OFFCURVE",
"305 -283 CURVE",
"305 -253 LINE",
"288 -244 OFFCURVE",
"270 -238 OFFCURVE",
"270 -207 CURVE SMOOTH",
"268 22 LINE",
"294 7 OFFCURVE",
"330 -8 OFFCURVE",
"366 -8 CURVE SMOOTH",
"393 -8 OFFCURVE",
"436 -2 OFFCURVE",
"470 24 CURVE",
"470 -67 OFFCURVE",
"468 -150 OFFCURVE",
"465 -195 CURVE SMOOTH",
"463 -231 OFFCURVE",
"454 -242 OFFCURVE",
"431 -253 CURVE",
"431 -283 LINE",
"446 -281 OFFCURVE",
"493 -280 OFFCURVE",
"510 -280 CURVE SMOOTH",
"529 -280 OFFCURVE",
"570 -282 OFFCURVE",
"595 -283 CURVE",
"595 -253 LINE",
"578 -244 OFFCURVE",
"560 -238 OFFCURVE",
"560 -207 CURVE SMOOTH",
"558 22 LINE",
"584 7 OFFCURVE",
"620 -8 OFFCURVE",
"666 -8 CURVE SMOOTH",
"788 -8 OFFCURVE",
"879 97 OFFCURVE",
"879 217 CURVE SMOOTH",
"879 327 OFFCURVE",
"816 408 OFFCURVE",
"716 408 CURVE SMOOTH"
);
},
{
closed = 1;
nodes = (
"600 40 OFFCURVE",
"558 117 OFFCURVE",
"558 203 CURVE SMOOTH",
"558 279 OFFCURVE",
"607 320 OFFCURVE",
"666 320 CURVE SMOOTH",
"725 320 OFFCURVE",
"782 267 OFFCURVE",
"782 177 CURVE SMOOTH",
"782 109 OFFCURVE",
"755 40 OFFCURVE",
"685 40 CURVE SMOOTH"
);
},
{
closed = 1;
nodes = (
"292 40 OFFCURVE",
"268 97 OFFCURVE",
"268 183 CURVE SMOOTH",
"268 249 OFFCURVE",
"302 310 OFFCURVE",
"366 310 CURVE SMOOTH",
"405 310 OFFCURVE",
"462 277 OFFCURVE",
"462 177 CURVE SMOOTH",
"462 109 OFFCURVE",
"435 40 OFFCURVE",
"365 40 CURVE SMOOTH"
);
},
{
closed = 1;
nodes = (
"101 -17 OFFCURVE",
"129 12 OFFCURVE",
"180 42 CURVE",
"180 -6 OFFCURVE",
"179 -55 OFFCURVE",
"178 -98 CURVE",
"126 -94 OFFCURVE",
"101 -80 OFFCURVE",
"101 -47 CURVE SMOOTH"
);
}
);
width = 904;
}
);
rightMetricsKey = p;
unicode = EED7;
},
{
color = 4;
glyphname = p_macr;
lastChange = "2020-02-04 08:31:37 +0000";
layers = (
{
anchors = (
{
name = _top;
position = "{333, 360}";
},
{
name = top;
position = "{324, 633}";
}
);
hints = (
{
place = "{-3.762, 0}";
type = Stem;
}
);
layerId = "31E65565-C22C-4792-86EE-013C6F95D489";
paths = (
{
closed = 1;
nodes = (
"512 628 LINE",
"487 644 LINE",
"403 564 OFFCURVE",
"367 612 OFFCURVE",
"289 612 CURVE",
"196 517 LINE",
"220 504 LINE",
"269 528 OFFCURVE",
"314 508 OFFCURVE",
"375 502 CURVE"
);
},
{
closed = 1;
nodes = (
"50 -281 OFFCURVE",
"97 -280 OFFCURVE",
"114 -280 CURVE SMOOTH",
"133 -280 OFFCURVE",
"174 -282 OFFCURVE",
"199 -283 CURVE",
"199 -253 LINE",
"182 -244 OFFCURVE",
"164 -238 OFFCURVE",
"164 -207 CURVE SMOOTH",
"162 22 LINE",
"188 7 OFFCURVE",
"224 -8 OFFCURVE",
"270 -8 CURVE SMOOTH",
"392 -8 OFFCURVE",
"483 97 OFFCURVE",
"483 217 CURVE SMOOTH",
"483 327 OFFCURVE",
"420 408 OFFCURVE",
"320 408 CURVE SMOOTH",
"276 408 OFFCURVE",
"210 364 OFFCURVE",
"161 328 CURVE",
"164 401 LINE",
"152 410 LINE",
"107 394 OFFCURVE",
"72 381 OFFCURVE",
"25 370 CURVE",
"25 340 LINE",
"51 330 OFFCURVE",
"66 326 OFFCURVE",
"71 250 CURVE SMOOTH",
"77 163 OFFCURVE",
"74 -106 OFFCURVE",
"69 -195 CURVE SMOOTH",
"67 -231 OFFCURVE",
"58 -242 OFFCURVE",
"35 -253 CURVE",
"35 -283 LINE"
);
},
{
closed = 1;
nodes = (
"204 40 OFFCURVE",
"162 117 OFFCURVE",
"162 203 CURVE SMOOTH",
"162 299 OFFCURVE",
"211 340 OFFCURVE",
"260 340 CURVE SMOOTH",
"329 340 OFFCURVE",
"386 277 OFFCURVE",
"386 177 CURVE SMOOTH",
"386 109 OFFCURVE",
"359 40 OFFCURVE",
"289 40 CURVE SMOOTH"
);
}
);
width = 517;
}
);
leftMetricsKey = p;
unicode = E665;
},
{
color = 4;
glyphname = p_ra;
lastChange = "2020-02-04 08:31:49 +0000";
layers = (
{
hints = (
{
place = "{-3.762, 0}";
type = Stem;
}
);
layerId = "31E65565-C22C-4792-86EE-013C6F95D489";
paths = (
{
closed = 1;
nodes = (
"105 558 OFFCURVE",
"126 524 OFFCURVE",
"156 504 CURVE",
"191 539 OFFCURVE",
"217 554 OFFCURVE",
"244 563 CURVE",
"276 544 OFFCURVE",
"314 509 OFFCURVE",
"329 502 CURVE",
"366 522 OFFCURVE",
"429 576 OFFCURVE",
"455 634 CURVE",
"438 653 LINE",
"404 595 OFFCURVE",
"375 576 OFFCURVE",
"354 576 CURVE SMOOTH",
"326 576 OFFCURVE",
"293 616 OFFCURVE",
"277 646 CURVE",
"267 648 LINE",
"238 607 OFFCURVE",
"214 575 OFFCURVE",
"199 575 CURVE SMOOTH",
"180 575 OFFCURVE",
"137 619 OFFCURVE",
"115 644 CURVE",
"106 647 LINE",
"86 621 OFFCURVE",
"48 574 OFFCURVE",
"38 559 CURVE",
"58 540 LINE",
"62 547 OFFCURVE",
"70 559 OFFCURVE",
"82 562 CURVE"
);
},
{
closed = 1;
nodes = (
"276 408 OFFCURVE",
"210 364 OFFCURVE",
"161 328 CURVE",
"164 401 LINE",
"152 410 LINE",
"107 394 OFFCURVE",
"72 381 OFFCURVE",
"25 370 CURVE",
"25 340 LINE",
"51 330 OFFCURVE",
"66 326 OFFCURVE",
"71 250 CURVE SMOOTH",
"77 163 OFFCURVE",
"74 -106 OFFCURVE",
"69 -195 CURVE SMOOTH",
"67 -231 OFFCURVE",
"58 -242 OFFCURVE",
"35 -253 CURVE",
"35 -283 LINE",
"50 -281 OFFCURVE",
"97 -280 OFFCURVE",
"114 -280 CURVE SMOOTH",
"133 -280 OFFCURVE",
"174 -282 OFFCURVE",
"199 -283 CURVE",
"199 -253 LINE",
"182 -244 OFFCURVE",
"164 -238 OFFCURVE",
"164 -207 CURVE SMOOTH",
"162 22 LINE",
"188 7 OFFCURVE",
"224 -8 OFFCURVE",
"270 -8 CURVE SMOOTH",
"392 -8 OFFCURVE",
"483 97 OFFCURVE",
"483 217 CURVE SMOOTH",
"483 327 OFFCURVE",
"420 408 OFFCURVE",
"320 408 CURVE SMOOTH"
);
},
{
closed = 1;
nodes = (
"204 40 OFFCURVE",
"162 117 OFFCURVE",
"162 203 CURVE SMOOTH",
"162 299 OFFCURVE",
"211 340 OFFCURVE",
"260 340 CURVE SMOOTH",
"329 340 OFFCURVE",
"386 277 OFFCURVE",
"386 177 CURVE SMOOTH",
"386 109 OFFCURVE",
"359 40 OFFCURVE",
"289 40 CURVE SMOOTH"
);
}
);
width = 508;
}
);
leftMetricsKey = p;
rightMetricsKey = p;
},
{
color = 4;
glyphname = p_urrot;
lastChange = "2020-02-04 08:31:55 +0000";
layers = (
{
hints = (
{
place = "{-3.762, 0}";
type = Stem;
}
);
layerId = "31E65565-C22C-4792-86EE-013C6F95D489";
paths = (
{
closed = 1;
nodes = (
"324 514 LINE",
"271 528 OFFCURVE",
"270 528 OFFCURVE",
"277 566 CURVE SMOOTH",
"294 654 LINE",
"290 659 LINE",
"160 654 LINE",
"159 623 LINE",
"195 623 OFFCURVE",
"209 623 OFFCURVE",
"204 576 CURVE SMOOTH",
"196 505 LINE",
"201 499 LINE",
"313 489 LINE"
);
},
{
closed = 1;
nodes = (
"50 -281 OFFCURVE",
"97 -280 OFFCURVE",
"114 -280 CURVE SMOOTH",
"133 -280 OFFCURVE",
"174 -282 OFFCURVE",
"199 -283 CURVE",
"199 -253 LINE",
"182 -244 OFFCURVE",
"164 -238 OFFCURVE",
"164 -207 CURVE SMOOTH",
"162 22 LINE",
"188 7 OFFCURVE",
"224 -8 OFFCURVE",
"270 -8 CURVE SMOOTH",
"392 -8 OFFCURVE",
"483 97 OFFCURVE",
"483 217 CURVE SMOOTH",
"483 327 OFFCURVE",
"420 408 OFFCURVE",
"320 408 CURVE SMOOTH",
"276 408 OFFCURVE",
"210 364 OFFCURVE",
"161 328 CURVE",
"164 401 LINE",
"152 410 LINE",
"107 394 OFFCURVE",
"72 381 OFFCURVE",
"25 370 CURVE",
"25 340 LINE",
"51 330 OFFCURVE",
"66 326 OFFCURVE",
"71 250 CURVE SMOOTH",
"77 163 OFFCURVE",
"74 -106 OFFCURVE",
"69 -195 CURVE SMOOTH",
"67 -231 OFFCURVE",
"58 -242 OFFCURVE",
"35 -253 CURVE",
"35 -283 LINE"
);
},
{
closed = 1;
nodes = (
"204 40 OFFCURVE",
"162 117 OFFCURVE",
"162 203 CURVE SMOOTH",
"162 299 OFFCURVE",
"211 340 OFFCURVE",
"260 340 CURVE SMOOTH",
"329 340 OFFCURVE",
"386 277 OFFCURVE",
"386 177 CURVE SMOOTH",
"386 109 OFFCURVE",
"359 40 OFFCURVE",
"289 40 CURVE SMOOTH"
);
}
);
width = 508;
}
);
leftMetricsKey = p;
rightMetricsKey = p;
},
{
color = 4;
glyphname = q;
lastChange = "2020-02-04 08:32:12 +0000";
layers = (
{
layerId = "31E65565-C22C-4792-86EE-013C6F95D489";
paths = (
{
closed = 1;
nodes = (
"374 -282 OFFCURVE",
"415 -280 OFFCURVE",
"434 -280 CURVE SMOOTH",
"451 -280 OFFCURVE",
"498 -281 OFFCURVE",
"513 -283 CURVE",
"513 -253 LINE",
"490 -242 OFFCURVE",
"481 -231 OFFCURVE",
"479 -195 CURVE SMOOTH",
"474 -106 OFFCURVE",
"476 163 OFFCURVE",
"482 250 CURVE SMOOTH",
"487 326 OFFCURVE",
"498 370 OFFCURVE",
"514 422 CURVE",
"485 431 LINE",
"465 404 OFFCURVE",
"441 378 OFFCURVE",
"414 342 CURVE",
"356 382 OFFCURVE",
"313 410 OFFCURVE",
"242 410 CURVE SMOOTH",
"152 410 OFFCURVE",
"30 331 OFFCURVE",
"30 201 CURVE SMOOTH",
"30 71 OFFCURVE",
"117 -10 OFFCURVE",
"267 -10 CURVE SMOOTH",
"276 -10 OFFCURVE",
"335 26 OFFCURVE",
"390 49 CURVE",
"384 -207 LINE SMOOTH",
"383 -238 OFFCURVE",
"366 -244 OFFCURVE",
"339 -253 CURVE",
"339 -283 LINE"
);
},
{
closed = 1;
nodes = (
"178 45 OFFCURVE",
"130 120 OFFCURVE",
"130 211 CURVE SMOOTH",
"130 290 OFFCURVE",
"179 360 OFFCURVE",
"262 360 CURVE SMOOTH",
"369 360 OFFCURVE",
"408 241 OFFCURVE",
"390 119 CURVE SMOOTH",
"390 118 LINE",
"345 60 OFFCURVE",
"301 45 OFFCURVE",
"278 45 CURVE SMOOTH"
);
}
);
width = 534;
}
);
unicode = 0071;
},
{
color = 4;
glyphname = q_bardes;
lastChange = "2020-02-04 08:32:28 +0000";
layers = (
{
layerId = "31E65565-C22C-4792-86EE-013C6F95D489";
paths = (
{
closed = 1;
nodes = (
"576 -19 OFFCURVE",
"531 -34 OFFCURVE",
"476 -45 CURVE",
"476 64 OFFCURVE",
"478 194 OFFCURVE",
"482 250 CURVE SMOOTH",
"487 326 OFFCURVE",
"498 370 OFFCURVE",
"514 422 CURVE",
"485 431 LINE",
"465 404 OFFCURVE",
"441 378 OFFCURVE",
"414 342 CURVE",
"356 382 OFFCURVE",
"313 410 OFFCURVE",
"242 410 CURVE SMOOTH",
"152 410 OFFCURVE",
"30 331 OFFCURVE",
"30 201 CURVE SMOOTH",
"30 71 OFFCURVE",
"117 -10 OFFCURVE",
"267 -10 CURVE SMOOTH",
"276 -10 OFFCURVE",
"335 26 OFFCURVE",
"390 49 CURVE",
"387 -59 LINE",
"335 -66 OFFCURVE",
"278 -72 OFFCURVE",
"222 -81 CURVE",
"214 -115 LINE",
"269 -109 OFFCURVE",
"323 -107 OFFCURVE",
"386 -103 CURVE",
"384 -207 LINE SMOOTH",
"383 -238 OFFCURVE",
"366 -244 OFFCURVE",
"339 -253 CURVE",
"339 -283 LINE",
"374 -282 OFFCURVE",
"415 -280 OFFCURVE",
"434 -280 CURVE SMOOTH",
"451 -280 OFFCURVE",
"498 -281 OFFCURVE",
"513 -283 CURVE",
"513 -253 LINE",
"490 -242 OFFCURVE",
"481 -231 OFFCURVE",
"479 -195 CURVE SMOOTH",
"478 -172 OFFCURVE",
"477 -137 OFFCURVE",
"476 -96 CURVE",
"503 -94 OFFCURVE",
"530 -91 OFFCURVE",
"560 -88 CURVE SMOOTH",
"579 -86 OFFCURVE",
"614 -55 OFFCURVE",
"634 -6 CURVE",
"602 8 LINE"
);
},
{
closed = 1;
nodes = (
"178 45 OFFCURVE",
"130 120 OFFCURVE",
"130 211 CURVE SMOOTH",
"130 290 OFFCURVE",
"179 360 OFFCURVE",
"262 360 CURVE SMOOTH",
"369 360 OFFCURVE",
"408 241 OFFCURVE",
"390 119 CURVE SMOOTH",
"390 118 LINE",
"345 60 OFFCURVE",
"301 45 OFFCURVE",
"278 45 CURVE SMOOTH"
);
}
);
width = 634;
}
);
leftMetricsKey = q;
unicode = A757;
},
{
color = 4;
glyphname = q_etfin;
lastChange = "2020-02-04 08:32:31 +0000";
layers = (
{
layerId = "31E65565-C22C-4792-86EE-013C6F95D489";
paths = (
{
closed = 1;
nodes = (
"722 146 OFFCURVE",
"657 186 OFFCURVE",
"610 201 CURVE",
"643 227 OFFCURVE",
"677 258 OFFCURVE",
"707 295 CURVE",
"707 334 OFFCURVE",
"610 412 OFFCURVE",
"595 412 CURVE SMOOTH",
"583 412 OFFCURVE",
"533 376 OFFCURVE",
"493 341 CURVE",
"499 370 OFFCURVE",
"506 395 OFFCURVE",
"514 422 CURVE",
"485 431 LINE",
"465 404 OFFCURVE",
"441 378 OFFCURVE",
"414 342 CURVE",
"356 382 OFFCURVE",
"313 410 OFFCURVE",
"242 410 CURVE SMOOTH",
"152 410 OFFCURVE",
"30 331 OFFCURVE",
"30 201 CURVE SMOOTH",
"30 71 OFFCURVE",
"117 -10 OFFCURVE",
"267 -10 CURVE SMOOTH",
"276 -10 OFFCURVE",
"335 26 OFFCURVE",
"390 49 CURVE",
"384 -207 LINE SMOOTH",
"383 -238 OFFCURVE",
"366 -244 OFFCURVE",
"339 -253 CURVE",
"339 -283 LINE",
"374 -282 OFFCURVE",
"415 -280 OFFCURVE",
"434 -280 CURVE SMOOTH",
"451 -280 OFFCURVE",
"498 -281 OFFCURVE",
"513 -283 CURVE",
"513 -253 LINE",
"490 -242 OFFCURVE",
"481 -231 OFFCURVE",
"479 -195 CURVE SMOOTH",
"478 -179 OFFCURVE",
"477 -158 OFFCURVE",
"477 -133 CURVE",
"577 -94 OFFCURVE",
"722 8 OFFCURVE",
"722 90 CURVE SMOOTH"
);
},
{
closed = 1;
nodes = (
"390 118 LINE",
"345 60 OFFCURVE",
"301 45 OFFCURVE",
"278 45 CURVE SMOOTH",
"178 45 OFFCURVE",
"130 120 OFFCURVE",
"130 211 CURVE SMOOTH",
"130 290 OFFCURVE",
"179 360 OFFCURVE",
"262 360 CURVE SMOOTH",
"369 360 OFFCURVE",
"408 241 OFFCURVE",
"390 119 CURVE SMOOTH"
);
},
{
closed = 1;
nodes = (
"588 225 OFFCURVE",
"528 174 OFFCURVE",
"478 156 CURVE",
"479 195 OFFCURVE",
"480 228 OFFCURVE",
"482 250 CURVE SMOOTH",
"483 267 OFFCURVE",
"484 282 OFFCURVE",
"486 296 CURVE",
"528 338 OFFCURVE",
"588 313 OFFCURVE",
"588 259 CURVE SMOOTH"
);
},
{
closed = 1;
nodes = (
"476 -28 OFFCURVE",
"476 50 OFFCURVE",
"477 117 CURVE",
"481 119 OFFCURVE",
"485 121 OFFCURVE",
"489 124 CURVE",
"512 136 OFFCURVE",
"528 139 OFFCURVE",
"550 139 CURVE SMOOTH",
"583 139 OFFCURVE",
"619 108 OFFCURVE",
"619 57 CURVE SMOOTH",
"619 7 OFFCURVE",
"566 -58 OFFCURVE",
"476 -92 CURVE"
);
}
);
width = 737;
}
);
leftMetricsKey = q;
},
{
color = 4;
glyphname = q_etfin_ra;
lastChange = "2020-02-04 08:32:35 +0000";
layers = (
{
layerId = "31E65565-C22C-4792-86EE-013C6F95D489";
paths = (
{
closed = 1;
nodes = (
"330 571 OFFCURVE",
"344 533 OFFCURVE",
"370 507 CURVE",
"410 535 OFFCURVE",
"440 545 OFFCURVE",
"468 550 CURVE",
"496 525 OFFCURVE",
"527 483 OFFCURVE",
"541 473 CURVE",
"581 485 OFFCURVE",
"655 526 OFFCURVE",
"691 579 CURVE",
"678 601 LINE",
"634 550 OFFCURVE",
"601 536 OFFCURVE",
"580 540 CURVE SMOOTH",
"552 545 OFFCURVE",
"528 592 OFFCURVE",
"518 625 CURVE",
"507 629 LINE",
"471 594 OFFCURVE",
"441 567 OFFCURVE",
"427 570 CURVE SMOOTH",
"407 574 OFFCURVE",
"373 625 OFFCURVE",
"356 655 CURVE",
"348 659 LINE",
"323 637 OFFCURVE",
"276 598 OFFCURVE",
"264 585 CURVE",
"280 563 LINE",
"285 569 OFFCURVE",
"295 579 OFFCURVE",
"307 580 CURVE"
);
},
{
closed = 1;
nodes = (
"722 146 OFFCURVE",
"657 186 OFFCURVE",
"610 201 CURVE",
"643 227 OFFCURVE",
"677 258 OFFCURVE",
"707 295 CURVE",
"707 334 OFFCURVE",
"610 412 OFFCURVE",
"595 412 CURVE SMOOTH",
"583 412 OFFCURVE",
"533 376 OFFCURVE",
"493 341 CURVE",
"499 370 OFFCURVE",
"506 395 OFFCURVE",
"514 422 CURVE",
"485 431 LINE",
"465 404 OFFCURVE",
"441 378 OFFCURVE",
"414 342 CURVE",
"356 382 OFFCURVE",
"313 410 OFFCURVE",
"242 410 CURVE SMOOTH",
"152 410 OFFCURVE",
"30 331 OFFCURVE",
"30 201 CURVE SMOOTH",
"30 71 OFFCURVE",
"117 -10 OFFCURVE",
"267 -10 CURVE SMOOTH",
"276 -10 OFFCURVE",
"335 26 OFFCURVE",
"390 49 CURVE",
"384 -207 LINE SMOOTH",
"383 -238 OFFCURVE",
"366 -244 OFFCURVE",
"339 -253 CURVE",
"339 -283 LINE",
"374 -282 OFFCURVE",
"415 -280 OFFCURVE",
"434 -280 CURVE SMOOTH",
"451 -280 OFFCURVE",
"498 -281 OFFCURVE",
"513 -283 CURVE",
"513 -253 LINE",
"490 -242 OFFCURVE",
"481 -231 OFFCURVE",
"479 -195 CURVE SMOOTH",
"478 -179 OFFCURVE",
"477 -158 OFFCURVE",
"477 -133 CURVE",
"577 -94 OFFCURVE",
"722 8 OFFCURVE",
"722 90 CURVE SMOOTH"
);
},
{
closed = 1;
nodes = (
"390 118 LINE",
"345 60 OFFCURVE",
"301 45 OFFCURVE",
"278 45 CURVE SMOOTH",
"178 45 OFFCURVE",
"130 120 OFFCURVE",
"130 211 CURVE SMOOTH",
"130 290 OFFCURVE",
"179 360 OFFCURVE",
"262 360 CURVE SMOOTH",
"369 360 OFFCURVE",
"408 241 OFFCURVE",
"390 119 CURVE SMOOTH"
);
},
{
closed = 1;
nodes = (
"588 225 OFFCURVE",
"528 174 OFFCURVE",
"478 156 CURVE",
"479 195 OFFCURVE",
"480 228 OFFCURVE",
"482 250 CURVE SMOOTH",
"483 267 OFFCURVE",
"484 282 OFFCURVE",
"486 296 CURVE",
"528 338 OFFCURVE",
"588 313 OFFCURVE",
"588 259 CURVE SMOOTH"
);
},
{
closed = 1;
nodes = (
"476 -28 OFFCURVE",
"476 50 OFFCURVE",
"477 117 CURVE",
"481 119 OFFCURVE",
"485 121 OFFCURVE",
"489 124 CURVE",
"512 136 OFFCURVE",
"528 139 OFFCURVE",
"550 139 CURVE SMOOTH",
"583 139 OFFCURVE",
"619 108 OFFCURVE",
"619 57 CURVE SMOOTH",
"619 7 OFFCURVE",
"566 -58 OFFCURVE",
"476 -92 CURVE"
);
}
);
width = 737;
}
);
leftMetricsKey = q;
},
{
color = 4;
glyphname = q_etfin_ring;
lastChange = "2020-02-04 08:32:44 +0000";
layers = (
{
layerId = "31E65565-C22C-4792-86EE-013C6F95D489";
paths = (
{
closed = 1;
nodes = (
"475 489 OFFCURVE",
"546 532 OFFCURVE",
"546 603 CURVE SMOOTH",
"546 683 OFFCURVE",
"475 711 OFFCURVE",
"405 711 CURVE SMOOTH",
"334 711 OFFCURVE",
"266 674 OFFCURVE",
"266 600 CURVE SMOOTH",
"266 530 OFFCURVE",
"334 489 OFFCURVE",
"405 489 CURVE SMOOTH"
);
},
{
closed = 1;
nodes = (
"448 675 OFFCURVE",
"472 636 OFFCURVE",
"472 600 CURVE SMOOTH",
"472 564 OFFCURVE",
"448 526 OFFCURVE",
"406 526 CURVE SMOOTH",
"363 526 OFFCURVE",
"339 564 OFFCURVE",
"339 600 CURVE SMOOTH",
"339 636 OFFCURVE",
"363 675 OFFCURVE",
"406 675 CURVE SMOOTH"
);
},
{
closed = 1;
nodes = (
"772 188 OFFCURVE",
"705 206 OFFCURVE",
"658 210 CURVE",
"695 234 OFFCURVE",
"730 261 OFFCURVE",
"757 295 CURVE",
"757 334 OFFCURVE",
"660 412 OFFCURVE",
"645 412 CURVE SMOOTH",
"632 412 OFFCURVE",
"543 374 OFFCURVE",
"493 338 CURVE",
"498 368 OFFCURVE",
"505 394 OFFCURVE",
"514 422 CURVE",
"485 431 LINE",
"465 404 OFFCURVE",
"441 378 OFFCURVE",
"414 342 CURVE",
"356 382 OFFCURVE",
"313 410 OFFCURVE",
"242 410 CURVE SMOOTH",
"152 410 OFFCURVE",
"30 331 OFFCURVE",
"30 201 CURVE SMOOTH",
"30 71 OFFCURVE",
"117 -10 OFFCURVE",
"267 -10 CURVE SMOOTH",
"276 -10 OFFCURVE",
"335 26 OFFCURVE",
"390 49 CURVE",
"384 -207 LINE SMOOTH",
"383 -238 OFFCURVE",
"366 -244 OFFCURVE",
"339 -253 CURVE",
"339 -283 LINE",
"374 -282 OFFCURVE",
"415 -280 OFFCURVE",
"434 -280 CURVE SMOOTH",
"451 -280 OFFCURVE",
"498 -281 OFFCURVE",
"513 -283 CURVE",
"513 -253 LINE",
"490 -242 OFFCURVE",
"481 -231 OFFCURVE",
"479 -195 CURVE SMOOTH",
"478 -180 OFFCURVE",
"478 -160 OFFCURVE",
"477 -137 CURVE",
"593 -103 OFFCURVE",
"772 28 OFFCURVE",
"772 128 CURVE SMOOTH"
);
},
{
closed = 1;
nodes = (
"390 118 LINE",
"345 60 OFFCURVE",
"301 45 OFFCURVE",
"278 45 CURVE SMOOTH",
"178 45 OFFCURVE",
"130 120 OFFCURVE",
"130 211 CURVE SMOOTH",
"130 290 OFFCURVE",
"179 360 OFFCURVE",
"262 360 CURVE SMOOTH",
"369 360 OFFCURVE",
"408 241 OFFCURVE",
"390 119 CURVE SMOOTH"
);
},
{
closed = 1;
nodes = (
"638 225 OFFCURVE",
"538 172 OFFCURVE",
"478 155 CURVE",
"479 194 OFFCURVE",
"480 228 OFFCURVE",
"482 250 CURVE SMOOTH",
"485 290 LINE",
"567 363 OFFCURVE",
"638 317 OFFCURVE",
"638 259 CURVE SMOOTH"
);
},
{
closed = 1;
nodes = (
"476 -28 OFFCURVE",
"476 48 OFFCURVE",
"477 115 CURVE",
"580 156 LINE",
"630 156 OFFCURVE",
"656 126 OFFCURVE",
"656 85 CURVE SMOOTH",
"656 20 OFFCURVE",
"575 -56 OFFCURVE",
"476 -92 CURVE"
);
}
);
width = 787;
}
);
leftMetricsKey = q;
rightMetricsKey = etfin;
},
{
color = 4;
glyphname = q_macr;
lastChange = "2020-02-04 08:32:55 +0000";
layers = (
{
anchors = (
{
name = _top;
position = "{351, 361}";
},
{
name = top;
position = "{342, 634}";
}
);
layerId = "31E65565-C22C-4792-86EE-013C6F95D489";
paths = (
{
closed = 1;
nodes = (
"267 482 OFFCURVE",
"301 481 OFFCURVE",
"362 475 CURVE",
"463 580 LINE",
"435 588 LINE",
"381 569 OFFCURVE",
"325 576 OFFCURVE",
"277 576 CURVE",
"194 481 LINE",
"218 468 LINE"
);
},
{
closed = 1;
nodes = (
"374 -282 OFFCURVE",
"415 -280 OFFCURVE",
"434 -280 CURVE SMOOTH",
"451 -280 OFFCURVE",
"498 -281 OFFCURVE",
"513 -283 CURVE",
"513 -253 LINE",
"490 -242 OFFCURVE",
"481 -231 OFFCURVE",
"479 -195 CURVE SMOOTH",
"474 -106 OFFCURVE",
"476 163 OFFCURVE",
"482 250 CURVE SMOOTH",
"487 326 OFFCURVE",
"498 370 OFFCURVE",
"514 422 CURVE",
"485 431 LINE",
"465 404 OFFCURVE",
"441 378 OFFCURVE",
"414 342 CURVE",
"356 382 OFFCURVE",
"313 410 OFFCURVE",
"242 410 CURVE SMOOTH",
"152 410 OFFCURVE",
"30 331 OFFCURVE",
"30 201 CURVE SMOOTH",
"30 71 OFFCURVE",
"117 -10 OFFCURVE",
"267 -10 CURVE SMOOTH",
"276 -10 OFFCURVE",
"335 26 OFFCURVE",
"390 49 CURVE",
"384 -207 LINE SMOOTH",
"383 -238 OFFCURVE",
"366 -244 OFFCURVE",
"339 -253 CURVE",
"339 -283 LINE"
);
},
{
closed = 1;
nodes = (
"178 45 OFFCURVE",
"130 120 OFFCURVE",
"130 211 CURVE SMOOTH",
"130 290 OFFCURVE",
"179 360 OFFCURVE",
"262 360 CURVE SMOOTH",
"369 360 OFFCURVE",
"408 241 OFFCURVE",
"390 119 CURVE SMOOTH",
"390 118 LINE",
"345 60 OFFCURVE",
"301 45 OFFCURVE",
"278 45 CURVE SMOOTH"
);
}
);
width = 534;
}
);
leftMetricsKey = q;
rightMetricsKey = q;
unicode = E681;
},
{
color = 4;
glyphname = q_ra;
lastChange = "2020-02-04 08:32:59 +0000";
layers = (
{
layerId = "31E65565-C22C-4792-86EE-013C6F95D489";
paths = (
{
closed = 1;
nodes = (
"185 558 OFFCURVE",
"208 525 OFFCURVE",
"239 506 CURVE",
"268 539 OFFCURVE",
"292 556 OFFCURVE",
"315 567 CURVE",
"345 549 OFFCURVE",
"401 519 OFFCURVE",
"413 514 CURVE",
"449 536 OFFCURVE",
"501 593 OFFCURVE",
"523 644 CURVE",
"496 662 LINE",
"466 612 OFFCURVE",
"456 590 OFFCURVE",
"435 589 CURVE SMOOTH",
"407 588 OFFCURVE",
"372 627 OFFCURVE",
"354 656 CURVE",
"343 658 LINE",
"316 615 OFFCURVE",
"294 582 OFFCURVE",
"279 581 CURVE SMOOTH",
"259 580 OFFCURVE",
"214 621 OFFCURVE",
"190 646 CURVE",
"181 648 LINE",
"162 621 OFFCURVE",
"126 572 OFFCURVE",
"118 556 CURVE",
"138 539 LINE",
"142 546 OFFCURVE",
"149 558 OFFCURVE",
"161 562 CURVE"
);
},
{
closed = 1;
nodes = (
"485 431 LINE",
"465 404 OFFCURVE",
"441 378 OFFCURVE",
"414 342 CURVE",
"356 382 OFFCURVE",
"313 410 OFFCURVE",
"242 410 CURVE SMOOTH",
"152 410 OFFCURVE",
"30 331 OFFCURVE",
"30 201 CURVE SMOOTH",
"30 71 OFFCURVE",
"117 -10 OFFCURVE",
"267 -10 CURVE SMOOTH",
"276 -10 OFFCURVE",
"335 26 OFFCURVE",
"390 49 CURVE",
"384 -207 LINE SMOOTH",
"383 -238 OFFCURVE",
"366 -244 OFFCURVE",
"339 -253 CURVE",
"339 -283 LINE",
"374 -282 OFFCURVE",
"415 -280 OFFCURVE",
"434 -280 CURVE SMOOTH",
"451 -280 OFFCURVE",
"498 -281 OFFCURVE",
"513 -283 CURVE",
"513 -253 LINE",
"490 -242 OFFCURVE",
"481 -231 OFFCURVE",
"479 -195 CURVE SMOOTH",
"474 -106 OFFCURVE",
"476 163 OFFCURVE",
"482 250 CURVE SMOOTH",
"487 326 OFFCURVE",
"498 370 OFFCURVE",
"514 422 CURVE"
);
},
{
closed = 1;
nodes = (
"390 118 LINE",
"345 60 OFFCURVE",
"301 45 OFFCURVE",
"278 45 CURVE SMOOTH",
"178 45 OFFCURVE",
"130 120 OFFCURVE",
"130 211 CURVE SMOOTH",
"130 290 OFFCURVE",
"179 360 OFFCURVE",
"262 360 CURVE SMOOTH",
"369 360 OFFCURVE",
"408 241 OFFCURVE",
"390 119 CURVE SMOOTH"
);
}
);
width = 543;
}
);
leftMetricsKey = q;
rightMetricsKey = q;
},
{
color = 4;
glyphname = q_ring;
lastChange = "2020-02-04 08:33:06 +0000";
layers = (
{
layerId = "31E65565-C22C-4792-86EE-013C6F95D489";
paths = (
{
closed = 1;
nodes = (
"445 439 OFFCURVE",
"503 489 OFFCURVE",
"503 550 CURVE SMOOTH",
"503 611 OFFCURVE",
"445 661 OFFCURVE",
"375 661 CURVE SMOOTH",
"304 661 OFFCURVE",
"247 611 OFFCURVE",
"247 550 CURVE SMOOTH",
"247 489 OFFCURVE",
"304 439 OFFCURVE",
"375 439 CURVE SMOOTH"
);
},
{
closed = 1;
nodes = (
"333 485 OFFCURVE",
"301 514 OFFCURVE",
"301 550 CURVE SMOOTH",
"301 586 OFFCURVE",
"333 615 OFFCURVE",
"376 615 CURVE SMOOTH",
"418 615 OFFCURVE",
"450 586 OFFCURVE",
"450 550 CURVE SMOOTH",
"450 514 OFFCURVE",
"418 485 OFFCURVE",
"376 485 CURVE SMOOTH"
);
},
{
closed = 1;
nodes = (
"374 -242 OFFCURVE",
"415 -240 OFFCURVE",
"434 -240 CURVE SMOOTH",
"451 -240 OFFCURVE",
"498 -241 OFFCURVE",
"513 -243 CURVE",
"513 -213 LINE",
"490 -202 OFFCURVE",
"481 -191 OFFCURVE",
"479 -155 CURVE SMOOTH",
"474 -66 OFFCURVE",
"476 163 OFFCURVE",
"482 250 CURVE SMOOTH",
"487 326 OFFCURVE",
"498 370 OFFCURVE",
"514 422 CURVE",
"485 431 LINE",
"465 404 OFFCURVE",
"441 371 OFFCURVE",
"414 335 CURVE",
"357 369 OFFCURVE",
"313 390 OFFCURVE",
"242 390 CURVE SMOOTH",
"142 390 OFFCURVE",
"30 331 OFFCURVE",
"30 181 CURVE SMOOTH",
"30 71 OFFCURVE",
"117 -10 OFFCURVE",
"267 -10 CURVE SMOOTH",
"276 -10 OFFCURVE",
"335 26 OFFCURVE",
"390 39 CURVE",
"384 -167 LINE SMOOTH",
"383 -198 OFFCURVE",
"366 -204 OFFCURVE",
"339 -213 CURVE",
"339 -243 LINE"
);
},
{
closed = 1;
nodes = (
"178 45 OFFCURVE",
"130 121 OFFCURVE",
"130 192 CURVE SMOOTH",
"130 273 OFFCURVE",
"184 340 OFFCURVE",
"262 340 CURVE SMOOTH",
"369 340 OFFCURVE",
"427 259 OFFCURVE",
"390 100 CURVE SMOOTH",
"390 99 LINE",
"345 61 OFFCURVE",
"301 45 OFFCURVE",
"278 45 CURVE SMOOTH"
);
}
);
width = 534;
}
);
leftMetricsKey = q;
rightMetricsKey = q;
},
{
color = 4;
glyphname = q_strok;
lastChange = "2020-02-04 08:33:10 +0000";
layers = (
{
layerId = "31E65565-C22C-4792-86EE-013C6F95D489";
paths = (
{
closed = 1;
nodes = (
"728 330 OFFCURVE",
"707 413 OFFCURVE",
"630 413 CURVE SMOOTH",
"589 413 OFFCURVE",
"546 368 OFFCURVE",
"509 321 CURVE",
"514 359 OFFCURVE",
"520 389 OFFCURVE",
"524 422 CURVE",
"495 431 LINE",
"481 405 OFFCURVE",
"461 378 OFFCURVE",
"434 342 CURVE",
"376 382 OFFCURVE",
"323 410 OFFCURVE",
"252 410 CURVE SMOOTH",
"152 410 OFFCURVE",
"30 331 OFFCURVE",
"30 201 CURVE SMOOTH",
"30 71 OFFCURVE",
"109 -10 OFFCURVE",
"259 -10 CURVE SMOOTH",
"268 -10 OFFCURVE",
"355 26 OFFCURVE",
"410 49 CURVE",
"404 -207 LINE SMOOTH",
"403 -238 OFFCURVE",
"386 -244 OFFCURVE",
"359 -253 CURVE",
"359 -283 LINE",
"394 -282 OFFCURVE",
"435 -280 OFFCURVE",
"454 -280 CURVE SMOOTH",
"471 -280 OFFCURVE",
"518 -281 OFFCURVE",
"533 -283 CURVE",
"533 -253 LINE",
"510 -242 OFFCURVE",
"501 -231 OFFCURVE",
"499 -195 CURVE SMOOTH",
"497 -167 OFFCURVE",
"497 -121 OFFCURVE",
"496 -69 CURVE",
"589 18 OFFCURVE",
"728 168 OFFCURVE",
"728 264 CURVE SMOOTH"
);
},
{
closed = 1;
nodes = (
"410 108 LINE",
"365 60 OFFCURVE",
"313 40 OFFCURVE",
"270 40 CURVE SMOOTH",
"170 40 OFFCURVE",
"130 120 OFFCURVE",
"130 201 CURVE SMOOTH",
"130 290 OFFCURVE",
"188 360 OFFCURVE",
"268 360 CURVE SMOOTH",
"391 360 OFFCURVE",
"428 241 OFFCURVE",
"410 109 CURVE SMOOTH"
);
},
{
closed = 1;
nodes = (
"617 311 OFFCURVE",
"640 273 OFFCURVE",
"640 232 CURVE SMOOTH",
"640 160 OFFCURVE",
"560 46 OFFCURVE",
"496 -23 CURVE",
"496 81 OFFCURVE",
"498 198 OFFCURVE",
"502 250 CURVE SMOOTH",
"503 258 OFFCURVE",
"503 267 OFFCURVE",
"504 274 CURVE",
"525 295 OFFCURVE",
"542 311 OFFCURVE",
"571 311 CURVE SMOOTH"
);
}
);
width = 753;
}
);
leftMetricsKey = q;
rightMetricsKey = p;
unicode = A759;
},
{
color = 4;
glyphname = q_urrot;
lastChange = "2020-02-04 08:33:19 +0000";
layers = (
{
layerId = "31E65565-C22C-4792-86EE-013C6F95D489";
paths = (
{
closed = 1;
nodes = (
"393 504 LINE",
"340 518 OFFCURVE",
"339 518 OFFCURVE",
"346 556 CURVE SMOOTH",
"363 644 LINE",
"359 649 LINE",
"229 644 LINE",
"228 613 LINE",
"264 613 OFFCURVE",
"278 613 OFFCURVE",
"273 566 CURVE SMOOTH",
"265 495 LINE",
"270 489 LINE",
"382 479 LINE"
);
},
{
closed = 1;
nodes = (
"374 -282 OFFCURVE",
"415 -280 OFFCURVE",
"434 -280 CURVE SMOOTH",
"451 -280 OFFCURVE",
"498 -281 OFFCURVE",
"513 -283 CURVE",
"513 -253 LINE",
"490 -242 OFFCURVE",
"481 -231 OFFCURVE",
"479 -195 CURVE SMOOTH",
"474 -106 OFFCURVE",
"476 163 OFFCURVE",
"482 250 CURVE SMOOTH",
"487 326 OFFCURVE",
"498 370 OFFCURVE",
"514 422 CURVE",
"485 431 LINE",
"465 404 OFFCURVE",
"441 378 OFFCURVE",
"414 342 CURVE",
"356 382 OFFCURVE",
"313 410 OFFCURVE",
"242 410 CURVE SMOOTH",
"152 410 OFFCURVE",
"30 331 OFFCURVE",
"30 201 CURVE SMOOTH",
"30 71 OFFCURVE",
"117 -10 OFFCURVE",
"267 -10 CURVE SMOOTH",
"276 -10 OFFCURVE",
"335 26 OFFCURVE",
"390 49 CURVE",
"384 -207 LINE SMOOTH",
"383 -238 OFFCURVE",
"366 -244 OFFCURVE",
"339 -253 CURVE",
"339 -283 LINE"
);
},
{
closed = 1;
nodes = (
"178 45 OFFCURVE",
"130 120 OFFCURVE",
"130 211 CURVE SMOOTH",
"130 290 OFFCURVE",
"179 360 OFFCURVE",
"262 360 CURVE SMOOTH",
"369 360 OFFCURVE",
"408 241 OFFCURVE",
"390 119 CURVE SMOOTH",
"390 118 LINE",
"345 60 OFFCURVE",
"301 45 OFFCURVE",
"278 45 CURVE SMOOTH"
);
}
);
width = 534;
}
);
leftMetricsKey = q;
rightMetricsKey = q;
},
{
color = 4;
glyphname = r;
lastChange = "2020-02-04 08:33:27 +0000";
layers = (
{
layerId = "31E65565-C22C-4792-86EE-013C6F95D489";
paths = (
{
closed = 1;
nodes = (
"209 370 OFFCURVE",
"193 351 OFFCURVE",
"158 313 CURVE",
"158 324 LINE",
"163 399 LINE",
"144 409 LINE",
"100 393 OFFCURVE",
"64 377 OFFCURVE",
"25 363 CURVE",
"25 333 LINE",
"56 327 OFFCURVE",
"64 321 OFFCURVE",
"64 282 CURVE SMOOTH",
"64 212 OFFCURVE",
"62 105 OFFCURVE",
"59 78 CURVE SMOOTH",
"56 53 OFFCURVE",
"51 40 OFFCURVE",
"36 27 CURVE",
"36 -3 LINE",
"56 -1 OFFCURVE",
"90 0 OFFCURVE",
"121 0 CURVE SMOOTH",
"147 0 OFFCURVE",
"179 -1 OFFCURVE",
"207 -3 CURVE",
"207 27 LINE",
"181 40 OFFCURVE",
"163 43 OFFCURVE",
"160 76 CURVE SMOOTH",
"158 98 OFFCURVE",
"157 201 OFFCURVE",
"157 269 CURVE",
"206 324 OFFCURVE",
"241 305 OFFCURVE",
"281 268 CURVE",
"285 268 LINE",
"345 365 LINE",
"323 381 OFFCURVE",
"252 409 OFFCURVE",
"238 409 CURVE"
);
}
);
width = 350;
}
);
leftMetricsKey = n;
unicode = 0072;
},
{
color = 4;
glyphname = r_hook;
lastChange = "2020-02-04 08:33:37 +0000";
layers = (
{
layerId = "31E65565-C22C-4792-86EE-013C6F95D489";
paths = (
{
closed = 1;
nodes = (
"355 606 OFFCURVE",
"328 637 OFFCURVE",
"288 653 CURVE",
"196 612 LINE",
"196 601 LINE",
"302 569 OFFCURVE",
"287 504 OFFCURVE",
"230 504 CURVE SMOOTH",
"178 504 OFFCURVE",
"113 537 OFFCURVE",
"85 554 CURVE",
"66 535 LINE",
"99 509 OFFCURVE",
"161 477 OFFCURVE",
"225 476 CURVE SMOOTH",
"294 475 OFFCURVE",
"357 497 OFFCURVE",
"356 553 CURVE SMOOTH"
);
},
{
closed = 1;
nodes = (
"158 324 LINE",
"163 399 LINE",
"144 409 LINE",
"100 393 OFFCURVE",
"64 377 OFFCURVE",
"25 363 CURVE",
"25 333 LINE",
"56 327 OFFCURVE",
"64 321 OFFCURVE",
"64 282 CURVE SMOOTH",
"64 212 OFFCURVE",
"62 105 OFFCURVE",
"59 78 CURVE SMOOTH",
"56 53 OFFCURVE",
"51 40 OFFCURVE",
"36 27 CURVE",
"36 -3 LINE",
"56 -1 OFFCURVE",
"90 0 OFFCURVE",
"121 0 CURVE SMOOTH",
"147 0 OFFCURVE",
"179 -1 OFFCURVE",
"207 -3 CURVE",
"207 27 LINE",
"181 40 OFFCURVE",
"163 43 OFFCURVE",
"160 76 CURVE SMOOTH",
"158 98 OFFCURVE",
"157 201 OFFCURVE",
"157 269 CURVE",
"206 324 OFFCURVE",
"241 305 OFFCURVE",
"281 268 CURVE",
"285 268 LINE",
"345 365 LINE",
"323 381 OFFCURVE",
"252 409 OFFCURVE",
"238 409 CURVE",
"209 370 OFFCURVE",
"193 351 OFFCURVE",
"158 313 CURVE"
);
}
);
width = 361;
}
);
leftMetricsKey = r;
rightMetricsKey = r;
},
{
color = 4;
glyphname = r_macr;
lastChange = "2020-02-04 08:33:52 +0000";
layers = (
{
anchors = (
{
name = _top;
position = "{201, 398}";
},
{
name = top;
position = "{192, 641}";
}
);
layerId = "31E65565-C22C-4792-86EE-013C6F95D489";
paths = (
{
closed = 1;
nodes = (
"383 604 LINE",
"355 611 LINE",
"281 565 OFFCURVE",
"245 582 OFFCURVE",
"167 582 CURVE",
"84 497 LINE",
"108 486 LINE",
"157 507 OFFCURVE",
"192 499 OFFCURVE",
"253 494 CURVE"
);
},
{
closed = 1;
nodes = (
"158 324 LINE",
"163 399 LINE",
"144 409 LINE",
"100 393 OFFCURVE",
"64 377 OFFCURVE",
"25 363 CURVE",
"25 333 LINE",
"56 327 OFFCURVE",
"64 321 OFFCURVE",
"64 282 CURVE SMOOTH",
"64 212 OFFCURVE",
"62 105 OFFCURVE",
"59 78 CURVE SMOOTH",
"56 53 OFFCURVE",
"51 40 OFFCURVE",
"36 27 CURVE",
"36 -3 LINE",
"56 -1 OFFCURVE",
"90 0 OFFCURVE",
"121 0 CURVE SMOOTH",
"147 0 OFFCURVE",
"179 -1 OFFCURVE",
"207 -3 CURVE",
"207 27 LINE",
"181 40 OFFCURVE",
"163 43 OFFCURVE",
"160 76 CURVE SMOOTH",
"158 98 OFFCURVE",
"157 201 OFFCURVE",
"157 269 CURVE",
"206 324 OFFCURVE",
"241 305 OFFCURVE",
"281 268 CURVE",
"285 268 LINE",
"345 365 LINE",
"323 381 OFFCURVE",
"252 409 OFFCURVE",
"238 409 CURVE",
"209 370 OFFCURVE",
"193 351 OFFCURVE",
"158 313 CURVE"
);
}
);
width = 378;
}
);
leftMetricsKey = r;
},
{
color = 4;
glyphname = r_ra;
lastChange = "2020-02-04 08:34:15 +0000";
layers = (
{
layerId = "31E65565-C22C-4792-86EE-013C6F95D489";
paths = (
{
closed = 1;
nodes = (
"384 595 OFFCURVE",
"365 576 OFFCURVE",
"344 576 CURVE SMOOTH",
"316 576 OFFCURVE",
"283 616 OFFCURVE",
"267 646 CURVE",
"257 648 LINE",
"228 607 OFFCURVE",
"204 575 OFFCURVE",
"189 575 CURVE SMOOTH",
"170 575 OFFCURVE",
"127 619 OFFCURVE",
"105 644 CURVE",
"96 647 LINE",
"76 621 OFFCURVE",
"38 574 OFFCURVE",
"28 559 CURVE",
"48 540 LINE",
"52 547 OFFCURVE",
"60 559 OFFCURVE",
"72 562 CURVE",
"95 558 OFFCURVE",
"116 524 OFFCURVE",
"146 504 CURVE",
"181 539 OFFCURVE",
"207 554 OFFCURVE",
"234 563 CURVE",
"260 546 OFFCURVE",
"284 519 OFFCURVE",
"299 512 CURVE",
"336 532 OFFCURVE",
"409 576 OFFCURVE",
"435 614 CURVE",
"418 633 LINE"
);
},
{
closed = 1;
nodes = (
"183 401 LINE",
"174 408 LINE",
"130 402 OFFCURVE",
"84 400 OFFCURVE",
"15 398 CURVE",
"15 368 LINE",
"76 362 OFFCURVE",
"84 326 OFFCURVE",
"84 287 CURVE SMOOTH",
"84 217 OFFCURVE",
"82 105 OFFCURVE",
"79 78 CURVE SMOOTH",
"76 53 OFFCURVE",
"71 40 OFFCURVE",
"56 27 CURVE",
"56 -3 LINE",
"76 -1 OFFCURVE",
"110 0 OFFCURVE",
"141 0 CURVE SMOOTH",
"167 0 OFFCURVE",
"199 -1 OFFCURVE",
"257 -3 CURVE",
"257 27 LINE",
"201 40 OFFCURVE",
"183 43 OFFCURVE",
"180 76 CURVE SMOOTH",
"178 99 OFFCURVE",
"176 219 OFFCURVE",
"177 288 CURVE",
"216 331 OFFCURVE",
"290 343 OFFCURVE",
"331 274 CURVE",
"352 274 LINE",
"395 383 LINE",
"373 399 OFFCURVE",
"292 409 OFFCURVE",
"278 409 CURVE",
"253 383 OFFCURVE",
"213 357 OFFCURVE",
"178 331 CURVE"
);
}
);
width = 415;
}
);
},
{
color = 4;
glyphname = r_strok;
lastChange = "2020-02-04 08:34:27 +0000";
layers = (
{
layerId = "31E65565-C22C-4792-86EE-013C6F95D489";
paths = (
{
closed = 1;
nodes = (
"485 379 LINE",
"464 377 OFFCURVE",
"433 376 OFFCURVE",
"402 374 CURVE",
"404 401 OFFCURVE",
"407 426 OFFCURVE",
"410 447 CURVE",
"343 447 LINE",
"341 428 OFFCURVE",
"340 402 OFFCURVE",
"341 371 CURVE",
"335 371 LINE",
"307 387 OFFCURVE",
"250 409 OFFCURVE",
"238 409 CURVE",
"209 370 OFFCURVE",
"193 351 OFFCURVE",
"158 313 CURVE",
"158 324 LINE",
"163 399 LINE",
"144 409 LINE",
"100 393 OFFCURVE",
"64 377 OFFCURVE",
"25 363 CURVE",
"25 333 LINE",
"56 327 OFFCURVE",
"64 321 OFFCURVE",
"64 282 CURVE SMOOTH",
"64 212 OFFCURVE",
"62 105 OFFCURVE",
"59 78 CURVE SMOOTH",
"56 53 OFFCURVE",
"51 40 OFFCURVE",
"36 27 CURVE",
"36 -3 LINE",
"56 -1 OFFCURVE",
"90 0 OFFCURVE",
"121 0 CURVE SMOOTH",
"147 0 OFFCURVE",
"179 -1 OFFCURVE",
"237 -3 CURVE",
"237 27 LINE",
"181 40 OFFCURVE",
"163 43 OFFCURVE",
"160 76 CURVE SMOOTH",
"158 98 OFFCURVE",
"157 201 OFFCURVE",
"157 269 CURVE",
"206 324 OFFCURVE",
"241 305 OFFCURVE",
"281 268 CURVE",
"285 268 LINE",
"310 309 LINE",
"320 310 OFFCURVE",
"330 310 OFFCURVE",
"342 311 CURVE",
"348 156 OFFCURVE",
"368 -66 OFFCURVE",
"381 -186 CURVE",
"421 -177 LINE",
"404 -59 OFFCURVE",
"394 154 OFFCURVE",
"399 313 CURVE",
"439 315 OFFCURVE",
"476 315 OFFCURVE",
"487 313 CURVE"
);
}
);
width = 492;
}
);
leftMetricsKey = r;
unicode = A776;
},
{
color = 4;
glyphname = r.ss01;
lastChange = "2020-02-04 08:34:35 +0000";
layers = (
{
layerId = "31E65565-C22C-4792-86EE-013C6F95D489";
paths = (
{
closed = 1;
nodes = (
"290 61 OFFCURVE",
"196 58 OFFCURVE",
"103 54 CURVE",
"167 112 OFFCURVE",
"296 230 OFFCURVE",
"296 306 CURVE SMOOTH",
"296 387 OFFCURVE",
"200 411 OFFCURVE",
"169 411 CURVE SMOOTH",
"149 411 OFFCURVE",
"70 376 OFFCURVE",
"37 341 CURVE",
"48 311 LINE",
"124 373 OFFCURVE",
"200 334 OFFCURVE",
"200 254 CURVE SMOOTH",
"200 188 OFFCURVE",
"92 75 OFFCURVE",
"5 14 CURVE",
"9 -2 LINE",
"119 -1 OFFCURVE",
"216 -1 OFFCURVE",
"366 -3 CURVE",
"391 55 LINE",
"389 67 LINE"
);
}
);
width = 396;
}
);
},
{
color = 4;
glyphname = r_ring;
lastChange = "2020-01-30 18:16:42 +0000";
layers = (
{
layerId = "31E65565-C22C-4792-86EE-013C6F95D489";
paths = (
{
closed = 1;
nodes = (
"313 485 OFFCURVE",
"376 530 OFFCURVE",
"375 600 CURVE SMOOTH",
"374 664 OFFCURVE",
"331 715 OFFCURVE",
"255 715 CURVE SMOOTH",
"188 715 OFFCURVE",
"134 663 OFFCURVE",
"134 600 CURVE SMOOTH",
"134 528 OFFCURVE",
"188 487 OFFCURVE",
"255 486 CURVE SMOOTH"
);
},
{
closed = 1;
nodes = (
"291 663 OFFCURVE",
"327 638 OFFCURVE",
"327 596 CURVE SMOOTH",
"327 556 OFFCURVE",
"300 526 OFFCURVE",
"258 526 CURVE SMOOTH",
"218 526 OFFCURVE",
"187 556 OFFCURVE",
"187 596 CURVE SMOOTH",
"187 633 OFFCURVE",
"215 663 OFFCURVE",
"254 663 CURVE SMOOTH"
);
},
{
closed = 1;
nodes = (
"143 93 OFFCURVE",
"361 244 OFFCURVE",
"361 328 CURVE SMOOTH",
"361 399 OFFCURVE",
"227 411 OFFCURVE",
"196 411 CURVE SMOOTH",
"176 411 OFFCURVE",
"70 377 OFFCURVE",
"27 361 CURVE",
"38 331 LINE",
"146 358 OFFCURVE",
"257 336 OFFCURVE",
"257 283 CURVE SMOOTH",
"257 217 OFFCURVE",
"92 85 OFFCURVE",
"5 14 CURVE",
"9 -2 LINE",
"119 -1 OFFCURVE",
"176 -1 OFFCURVE",
"326 -3 CURVE",
"388 56 LINE",
"389 68 LINE",
"289 54 OFFCURVE",
"192 51 OFFCURVE",
"98 48 CURVE"
);
}
);
width = 394;
}
);
leftMetricsKey = r.ss01;
},
{
color = 4;
glyphname = s;
lastChange = "2020-02-04 08:34:47 +0000";
layers = (
{
layerId = "31E65565-C22C-4792-86EE-013C6F95D489";
paths = (
{
closed = 1;
nodes = (
"300 -10 OFFCURVE",
"375 35 OFFCURVE",
"375 118 CURVE SMOOTH",
"375 182 OFFCURVE",
"330 229 OFFCURVE",
"238 245 CURVE SMOOTH",
"153 260 OFFCURVE",
"90 273 OFFCURVE",
"90 311 CURVE SMOOTH",
"90 340 OFFCURVE",
"121 358 OFFCURVE",
"163 358 CURVE SMOOTH",
"217 358 OFFCURVE",
"263 333 OFFCURVE",
"305 287 CURVE",
"332 287 LINE",
"380 394 LINE",
"358 408 LINE",
"343 398 OFFCURVE",
"334 389 OFFCURVE",
"318 389 CURVE SMOOTH",
"285 389 OFFCURVE",
"250 410 OFFCURVE",
"195 410 CURVE SMOOTH",
"105 410 OFFCURVE",
"36 359 OFFCURVE",
"36 289 CURVE SMOOTH",
"36 221 OFFCURVE",
"83 178 OFFCURVE",
"176 164 CURVE SMOOTH",
"263 151 OFFCURVE",
"303 132 OFFCURVE",
"303 88 CURVE SMOOTH",
"303 46 OFFCURVE",
"269 27 OFFCURVE",
"232 27 CURVE SMOOTH",
"175 27 OFFCURVE",
"97 81 OFFCURVE",
"88 164 CURVE",
"61 170 LINE",
"20 7 LINE",
"44 -1 LINE",
"74 44 LINE",
"118 11 OFFCURVE",
"174 -10 OFFCURVE",
"233 -10 CURVE SMOOTH"
);
}
);
width = 400;
}
);
unicode = 0073;
},
{
color = 4;
glyphname = longs;
lastChange = "2020-02-04 08:35:17 +0000";
layers = (
{
layerId = "31E65565-C22C-4792-86EE-013C6F95D489";
paths = (
{
closed = 0;
nodes = (
"123 355 LINE"
);
},
{
closed = 1;
nodes = (
"222 28 LINE",
"171 37 OFFCURVE",
"166 47 OFFCURVE",
"160 75 CURVE SMOOTH",
"156 95 OFFCURVE",
"153 390 OFFCURVE",
"152 499 CURVE SMOOTH",
"151 608 OFFCURVE",
"187 665 OFFCURVE",
"258 665 CURVE SMOOTH",
"292 665 OFFCURVE",
"339 637 OFFCURVE",
"369 598 CURVE",
"374 598 LINE",
"426 662 LINE",
"426 666 LINE",
"374 691 OFFCURVE",
"330 710 OFFCURVE",
"272 710 CURVE SMOOTH",
"134 710 OFFCURVE",
"86 581 OFFCURVE",
"72 485 CURVE SMOOTH",
"63 421 OFFCURVE",
"47 401 OFFCURVE",
"26 373 CURVE",
"25 342 LINE",
"70 343 LINE",
"69 232 OFFCURVE",
"66 77 OFFCURVE",
"66 69 CURVE SMOOTH",
"66 50 OFFCURVE",
"56 40 OFFCURVE",
"35 28 CURVE",
"35 -6 LINE",
"104 2 OFFCURVE",
"164 -2 OFFCURVE",
"222 -7 CURVE"
);
}
);
width = 256;
}
);
leftMetricsKey = n;
unicode = 017F;
},
{
color = 4;
glyphname = longs_strok;
lastChange = "2020-02-04 08:35:22 +0000";
layers = (
{
layerId = "31E65565-C22C-4792-86EE-013C6F95D489";
paths = (
{
closed = 0;
nodes = (
"132 355 LINE"
);
},
{
closed = 1;
nodes = (
"301 665 OFFCURVE",
"348 638 OFFCURVE",
"378 608 CURVE",
"383 608 LINE",
"435 682 LINE",
"435 686 LINE",
"383 701 OFFCURVE",
"339 710 OFFCURVE",
"281 710 CURVE SMOOTH",
"143 710 OFFCURVE",
"100 580 OFFCURVE",
"81 485 CURVE SMOOTH",
"71 434 OFFCURVE",
"56 401 OFFCURVE",
"35 373 CURVE",
"34 342 LINE",
"79 343 LINE",
"78 263 OFFCURVE",
"77 160 OFFCURVE",
"76 106 CURVE",
"59 101 OFFCURVE",
"42 95 OFFCURVE",
"25 90 CURVE",
"45 63 LINE",
"75 72 LINE",
"75 69 LINE SMOOTH",
"75 50 OFFCURVE",
"63 40 OFFCURVE",
"42 28 CURVE",
"42 -6 LINE",
"112 0 OFFCURVE",
"163 0 OFFCURVE",
"241 -7 CURVE",
"238 28 LINE",
"177 37 OFFCURVE",
"175 47 OFFCURVE",
"169 75 CURVE SMOOTH",
"168 78 OFFCURVE",
"168 88 OFFCURVE",
"167 104 CURVE",
"277 144 OFFCURVE",
"398 204 OFFCURVE",
"398 272 CURVE SMOOTH",
"398 360 OFFCURVE",
"287 414 OFFCURVE",
"164 446 CURVE",
"164 499 LINE SMOOTH",
"163 598 OFFCURVE",
"196 665 OFFCURVE",
"267 665 CURVE SMOOTH"
);
},
{
closed = 1;
nodes = (
"319 221 OFFCURVE",
"257 177 OFFCURVE",
"167 139 CURVE",
"165 210 OFFCURVE",
"165 325 OFFCURVE",
"165 413 CURVE",
"246 394 OFFCURVE",
"319 342 OFFCURVE",
"319 279 CURVE SMOOTH"
);
}
);
width = 405;
}
);
leftMetricsKey = longs;
},
{
color = 4;
glyphname = longs_longs;
lastChange = "2020-02-04 08:35:27 +0000";
layers = (
{
layerId = "31E65565-C22C-4792-86EE-013C6F95D489";
paths = (
{
closed = 0;
nodes = (
"423 355 LINE"
);
},
{
closed = 1;
nodes = (
"524 710 OFFCURVE",
"487 694 OFFCURVE",
"458 670 CURVE",
"406 693 OFFCURVE",
"327 710 OFFCURVE",
"272 710 CURVE SMOOTH",
"134 710 OFFCURVE",
"83 582 OFFCURVE",
"72 485 CURVE SMOOTH",
"64 413 OFFCURVE",
"47 401 OFFCURVE",
"26 373 CURVE",
"25 342 LINE",
"70 343 LINE",
"69 232 OFFCURVE",
"66 127 OFFCURVE",
"66 69 CURVE SMOOTH",
"66 40 OFFCURVE",
"64 40 OFFCURVE",
"33 28 CURVE",
"33 -6 LINE",
"75 -1 OFFCURVE",
"186 -5 OFFCURVE",
"222 -7 CURVE",
"219 27 LINE",
"168 36 OFFCURVE",
"163 35 OFFCURVE",
"160 75 CURVE SMOOTH",
"158 95 OFFCURVE",
"156 390 OFFCURVE",
"155 499 CURVE SMOOTH",
"154 598 OFFCURVE",
"197 665 OFFCURVE",
"268 665 CURVE SMOOTH",
"328 665 OFFCURVE",
"374 640 OFFCURVE",
"404 596 CURVE",
"387 560 OFFCURVE",
"377 520 OFFCURVE",
"372 485 CURVE SMOOTH",
"363 421 OFFCURVE",
"347 401 OFFCURVE",
"326 373 CURVE",
"325 342 LINE",
"370 343 LINE",
"369 232 OFFCURVE",
"366 77 OFFCURVE",
"366 69 CURVE SMOOTH",
"366 50 OFFCURVE",
"356 40 OFFCURVE",
"335 28 CURVE",
"335 -6 LINE",
"404 2 OFFCURVE",
"464 -2 OFFCURVE",
"522 -7 CURVE",
"522 28 LINE",
"471 37 OFFCURVE",
"466 47 OFFCURVE",
"460 75 CURVE SMOOTH",
"456 95 OFFCURVE",
"453 390 OFFCURVE",
"452 499 CURVE SMOOTH",
"451 608 OFFCURVE",
"487 665 OFFCURVE",
"558 665 CURVE SMOOTH",
"592 665 OFFCURVE",
"639 637 OFFCURVE",
"669 598 CURVE",
"674 598 LINE",
"726 662 LINE",
"726 666 LINE",
"674 691 OFFCURVE",
"630 710 OFFCURVE",
"572 710 CURVE SMOOTH"
);
}
);
width = 556;
}
);
leftMetricsKey = longs;
rightMetricsKey = longs;
},
{
color = 4;
glyphname = longs_t;
lastChange = "2020-02-07 10:25:17 +0000";
layers = (
{
layerId = "31E65565-C22C-4792-86EE-013C6F95D489";
paths = (
{
closed = 0;
nodes = (
"125 355 LINE"
);
},
{
closed = 1;
nodes = (
"444 33 OFFCURVE",
"434 62 OFFCURVE",
"429 155 CURVE SMOOTH",
"428 174 OFFCURVE",
"428 251 OFFCURVE",
"429 330 CURVE",
"561 330 LINE",
"561 400 LINE",
"430 400 LINE",
"436 527 LINE SMOOTH",
"441 641 OFFCURVE",
"382 710 OFFCURVE",
"294 710 CURVE SMOOTH",
"156 710 OFFCURVE",
"92 580 OFFCURVE",
"74 485 CURVE SMOOTH",
"65 437 OFFCURVE",
"49 401 OFFCURVE",
"28 373 CURVE",
"27 342 LINE",
"72 343 LINE",
"71 232 OFFCURVE",
"69 75 OFFCURVE",
"68 67 CURVE SMOOTH",
"66 48 OFFCURVE",
"56 38 OFFCURVE",
"25 26 CURVE",
"25 -6 LINE",
"103 0 OFFCURVE",
"127 -1 OFFCURVE",
"224 -7 CURVE",
"224 26 LINE",
"203 35 OFFCURVE",
"168 45 OFFCURVE",
"162 73 CURVE SMOOTH",
"158 93 OFFCURVE",
"150 361 OFFCURVE",
"157 470 CURVE SMOOTH",
"163 569 OFFCURVE",
"199 637 OFFCURVE",
"270 635 CURVE SMOOTH",
"351 633 OFFCURVE",
"373 562 OFFCURVE",
"354 423 CURVE",
"340 404 OFFCURVE",
"325 386 OFFCURVE",
"308 370 CURVE",
"308 330 LINE",
"340 330 LINE",
"340 103 LINE SMOOTH",
"340 37 OFFCURVE",
"386 -11 OFFCURVE",
"439 -11 CURVE SMOOTH",
"487 -11 OFFCURVE",
"543 8 OFFCURVE",
"564 19 CURVE",
"559 50 LINE"
);
}
);
width = 574;
}
);
leftMetricsKey = longs;
rightMetricsKey = t;
},
{
color = 4;
glyphname = t;
lastChange = "2020-02-04 08:35:58 +0000";
layers = (
{
layerId = "31E65565-C22C-4792-86EE-013C6F95D489";
paths = (
{
closed = 1;
nodes = (
"156 33 OFFCURVE",
"146 62 OFFCURVE",
"141 155 CURVE SMOOTH",
"140 174 OFFCURVE",
"140 251 OFFCURVE",
"141 330 CURVE",
"273 330 LINE",
"273 400 LINE",
"142 400 LINE",
"143 441 OFFCURVE",
"144 478 OFFCURVE",
"146 503 CURVE",
"115 503 LINE",
"91 453 OFFCURVE",
"59 408 OFFCURVE",
"20 370 CURVE",
"20 330 LINE",
"52 330 LINE",
"52 103 LINE SMOOTH",
"52 37 OFFCURVE",
"98 -11 OFFCURVE",
"151 -11 CURVE SMOOTH",
"199 -11 OFFCURVE",
"255 8 OFFCURVE",
"276 19 CURVE",
"271 50 LINE"
);
}
);
width = 286;
}
);
unicode = 0074;
},
{
color = 4;
glyphname = t_acute;
lastChange = "2020-02-04 08:36:21 +0000";
layers = (
{
anchors = (
{
name = _top;
position = "{85, 456}";
},
{
name = top;
position = "{146, 766}";
}
);
layerId = "31E65565-C22C-4792-86EE-013C6F95D489";
paths = (
{
closed = 1;
nodes = (
"267 467 OFFCURVE",
"307 521 OFFCURVE",
"307 597 CURVE SMOOTH",
"307 649 OFFCURVE",
"264 675 OFFCURVE",
"239 696 CURVE",
"158 651 LINE",
"221 602 OFFCURVE",
"268 506 OFFCURVE",
"193 506 CURVE SMOOTH",
"160 506 OFFCURVE",
"143 540 OFFCURVE",
"120 562 CURVE",
"97 546 LINE",
"116 515 OFFCURVE",
"150 469 OFFCURVE",
"200 468 CURVE SMOOTH"
);
},
{
closed = 1;
nodes = (
"62 448 LINE",
"58 398 LINE",
"20 397 LINE",
"20 341 LINE",
"52 330 LINE",
"52 103 LINE SMOOTH",
"52 37 OFFCURVE",
"108 -11 OFFCURVE",
"161 -11 CURVE SMOOTH",
"209 -11 OFFCURVE",
"265 18 OFFCURVE",
"296 39 CURVE",
"291 70 LINE",
"190 38 OFFCURVE",
"146 62 OFFCURVE",
"141 155 CURVE SMOOTH",
"140 177 OFFCURVE",
"139 255 OFFCURVE",
"141 330 CURVE",
"233 330 LINE",
"302 384 LINE",
"303 400 LINE",
"143 400 LINE",
"143 418 OFFCURVE",
"144 434 OFFCURVE",
"145 448 CURVE"
);
}
);
width = 312;
}
);
leftMetricsKey = t;
},
{
color = 4;
glyphname = t_ra;
lastChange = "2020-02-04 08:36:42 +0000";
layers = (
{
layerId = "31E65565-C22C-4792-86EE-013C6F95D489";
paths = (
{
closed = 1;
nodes = (
"360 606 OFFCURVE",
"327 592 OFFCURVE",
"316 596 CURVE SMOOTH",
"289 606 OFFCURVE",
"264 648 OFFCURVE",
"254 681 CURVE",
"243 685 LINE",
"207 650 OFFCURVE",
"188 636 OFFCURVE",
"174 639 CURVE SMOOTH",
"154 643 OFFCURVE",
"129 681 OFFCURVE",
"112 711 CURVE",
"104 715 LINE",
"79 693 OFFCURVE",
"32 654 OFFCURVE",
"20 641 CURVE",
"36 619 LINE",
"41 625 OFFCURVE",
"51 635 OFFCURVE",
"63 636 CURVE",
"86 627 OFFCURVE",
"100 589 OFFCURVE",
"126 563 CURVE",
"158 585 OFFCURVE",
"183 602 OFFCURVE",
"207 610 CURVE",
"234 575 OFFCURVE",
"262 540 OFFCURVE",
"277 529 CURVE",
"317 541 OFFCURVE",
"381 582 OFFCURVE",
"417 635 CURVE",
"404 657 LINE"
);
},
{
closed = 1;
nodes = (
"123 503 LINE",
"99 453 OFFCURVE",
"67 408 OFFCURVE",
"28 370 CURVE",
"28 339 LINE",
"60 330 LINE",
"60 103 LINE SMOOTH",
"60 37 OFFCURVE",
"106 -11 OFFCURVE",
"159 -11 CURVE SMOOTH",
"207 -11 OFFCURVE",
"302 30 OFFCURVE",
"323 41 CURVE",
"319 70 LINE",
"204 53 OFFCURVE",
"154 62 OFFCURVE",
"149 155 CURVE SMOOTH",
"148 175 OFFCURVE",
"148 255 OFFCURVE",
"149 337 CURVE",
"345 358 LINE",
"345 400 LINE",
"150 400 LINE",
"151 441 OFFCURVE",
"152 478 OFFCURVE",
"154 503 CURVE"
);
}
);
width = 372;
}
);
leftMetricsKey = t;
},
{
color = 4;
glyphname = t_stroke;
lastChange = "2020-02-04 08:37:08 +0000";
layers = (
{
layerId = "31E65565-C22C-4792-86EE-013C6F95D489";
paths = (
{
closed = 1;
nodes = (
"581 425 LINE",
"563 440 LINE",
"521 423 OFFCURVE",
"472 416 OFFCURVE",
"410 412 CURVE",
"413 568 LINE",
"351 560 LINE",
"354 410 LINE",
"298 409 OFFCURVE",
"232 409 OFFCURVE",
"153 407 CURVE",
"154 441 OFFCURVE",
"157 472 OFFCURVE",
"163 509 CURVE",
"138 518 LINE",
"107 457 OFFCURVE",
"65 430 OFFCURVE",
"12 385 CURVE",
"10 351 LINE",
"36 347 LINE SMOOTH",
"51 345 OFFCURVE",
"55 330 OFFCURVE",
"55 314 CURVE SMOOTH",
"55 184 LINE SMOOTH",
"55 61 OFFCURVE",
"67 -9 OFFCURVE",
"182 -9 CURVE SMOOTH",
"263 -9 OFFCURVE",
"321 37 OFFCURVE",
"354 67 CURVE",
"351 -123 LINE",
"413 -105 LINE",
"409 44 OFFCURVE",
"408 193 OFFCURVE",
"409 342 CURVE",
"439 338 OFFCURVE",
"471 333 OFFCURVE",
"507 327 CURVE"
);
},
{
closed = 1;
nodes = (
"350 98 LINE",
"311 76 OFFCURVE",
"268 62 OFFCURVE",
"219 62 CURVE SMOOTH",
"154 62 OFFCURVE",
"145 108 OFFCURVE",
"149 224 CURVE SMOOTH",
"151 280 OFFCURVE",
"151 322 OFFCURVE",
"152 359 CURVE",
"228 361 OFFCURVE",
"286 358 OFFCURVE",
"354 349 CURVE",
"355 262 OFFCURVE",
"355 175 OFFCURVE",
"354 88 CURVE"
);
}
);
width = 566;
}
);
unicode = A777;
},
{
color = 4;
glyphname = t_tilde;
lastChange = "2020-02-04 08:37:03 +0000";
layers = (
{
layerId = "31E65565-C22C-4792-86EE-013C6F95D489";
paths = (
{
closed = 1;
nodes = (
"158 569 OFFCURVE",
"184 497 OFFCURVE",
"248 497 CURVE SMOOTH",
"312 497 OFFCURVE",
"327 590 OFFCURVE",
"294 621 CURVE",
"261 633 LINE",
"257 630 LINE",
"281 610 OFFCURVE",
"288 562 OFFCURVE",
"257 562 CURVE SMOOTH",
"207 562 OFFCURVE",
"204 646 OFFCURVE",
"104 646 CURVE SMOOTH",
"62 646 OFFCURVE",
"23 597 OFFCURVE",
"5 545 CURVE",
"13 524 LINE",
"17 524 LINE",
"38 556 OFFCURVE",
"58 569 OFFCURVE",
"94 569 CURVE SMOOTH"
);
},
{
closed = 1;
nodes = (
"153 174 OFFCURVE",
"153 251 OFFCURVE",
"154 330 CURVE",
"286 330 LINE",
"286 400 LINE",
"155 400 LINE",
"156 441 OFFCURVE",
"157 478 OFFCURVE",
"159 503 CURVE",
"128 503 LINE",
"104 453 OFFCURVE",
"72 408 OFFCURVE",
"33 370 CURVE",
"33 330 LINE",
"65 330 LINE",
"65 103 LINE SMOOTH",
"65 37 OFFCURVE",
"111 -11 OFFCURVE",
"164 -11 CURVE SMOOTH",
"212 -11 OFFCURVE",
"268 8 OFFCURVE",
"289 19 CURVE",
"284 50 LINE",
"169 33 OFFCURVE",
"159 62 OFFCURVE",
"154 155 CURVE SMOOTH"
);
}
);
width = 306;
}
);
},
{
color = 4;
glyphname = u;
lastChange = "2020-02-04 08:37:47 +0000";
layers = (
{
layerId = "31E65565-C22C-4792-86EE-013C6F95D489";
paths = (
{
closed = 1;
nodes = (
"418 158 OFFCURVE",
"415 248 OFFCURVE",
"414 311 CURVE SMOOTH",
"413 339 OFFCURVE",
"425 376 OFFCURVE",
"430 399 CURVE",
"420 409 LINE",
"376 403 OFFCURVE",
"320 400 OFFCURVE",
"254 399 CURVE",
"254 369 LINE",
"292 369 OFFCURVE",
"325 353 OFFCURVE",
"325 313 CURVE SMOOTH",
"325 119 LINE",
"323 101 LINE",
"300 66 OFFCURVE",
"267 49 OFFCURVE",
"234 49 CURVE SMOOTH",
"166 49 OFFCURVE",
"151 98 OFFCURVE",
"146 153 CURVE SMOOTH",
"142 199 OFFCURVE",
"142 283 OFFCURVE",
"145 326 CURVE SMOOTH",
"147 354 OFFCURVE",
"152 361 OFFCURVE",
"170 373 CURVE",
"171 403 LINE",
"147 401 OFFCURVE",
"127 400 OFFCURVE",
"97 400 CURVE SMOOTH",
"75 400 OFFCURVE",
"44 402 OFFCURVE",
"21 403 CURVE",
"20 373 LINE",
"41 363 OFFCURVE",
"44 354 OFFCURVE",
"46 326 CURVE SMOOTH",
"49 280 OFFCURVE",
"52 185 OFFCURVE",
"51 119 CURVE SMOOTH",
"50 41 OFFCURVE",
"77 -10 OFFCURVE",
"196 -10 CURVE SMOOTH",
"221 -10 OFFCURVE",
"266 13 OFFCURVE",
"320 45 CURVE",
"320 0 LINE",
"450 0 LINE",
"450 35 LINE",
"431 45 OFFCURVE",
"424 60 OFFCURVE",
"421 105 CURVE SMOOTH"
);
}
);
width = 475;
}
);
unicode = 0075;
},
{
color = 4;
glyphname = u_macr;
lastChange = "2020-02-04 08:38:01 +0000";
layers = (
{
anchors = (
{
name = _top;
position = "{244, 380}";
},
{
name = top;
position = "{235, 653}";
}
);
layerId = "31E65565-C22C-4792-86EE-013C6F95D489";
paths = (
{
closed = 1;
nodes = (
"426 656 LINE",
"398 664 LINE",
"324 613 OFFCURVE",
"268 632 OFFCURVE",
"190 632 CURVE",
"107 537 LINE",
"131 524 LINE",
"180 548 OFFCURVE",
"255 528 OFFCURVE",
"316 522 CURVE"
);
},
{
closed = 1;
nodes = (
"418 158 OFFCURVE",
"415 248 OFFCURVE",
"414 311 CURVE SMOOTH",
"413 339 OFFCURVE",
"425 376 OFFCURVE",
"430 399 CURVE",
"420 409 LINE",
"376 403 OFFCURVE",
"320 400 OFFCURVE",
"254 399 CURVE",
"254 369 LINE",
"292 369 OFFCURVE",
"325 353 OFFCURVE",
"325 313 CURVE SMOOTH",
"325 119 LINE",
"323 101 LINE",
"300 66 OFFCURVE",
"267 49 OFFCURVE",
"234 49 CURVE SMOOTH",
"166 49 OFFCURVE",
"151 98 OFFCURVE",
"146 153 CURVE SMOOTH",
"142 199 OFFCURVE",
"142 283 OFFCURVE",
"145 326 CURVE SMOOTH",
"147 354 OFFCURVE",
"152 361 OFFCURVE",
"170 373 CURVE",
"171 403 LINE",
"147 401 OFFCURVE",
"127 400 OFFCURVE",
"97 400 CURVE SMOOTH",
"75 400 OFFCURVE",
"44 402 OFFCURVE",
"21 403 CURVE",
"20 373 LINE",
"41 363 OFFCURVE",
"44 354 OFFCURVE",
"46 326 CURVE SMOOTH",
"49 280 OFFCURVE",
"52 185 OFFCURVE",
"51 119 CURVE SMOOTH",
"50 41 OFFCURVE",
"77 -10 OFFCURVE",
"196 -10 CURVE SMOOTH",
"221 -10 OFFCURVE",
"266 13 OFFCURVE",
"320 45 CURVE",
"320 0 LINE",
"450 0 LINE",
"450 35 LINE",
"431 45 OFFCURVE",
"424 60 OFFCURVE",
"421 105 CURVE SMOOTH"
);
}
);
width = 475;
}
);
leftMetricsKey = u;
rightMetricsKey = u;
unicode = 016B;
},
{
color = 4;
glyphname = v;
lastChange = "2020-01-30 18:16:42 +0000";
layers = (
{
layerId = "31E65565-C22C-4792-86EE-013C6F95D489";
paths = (
{
closed = 1;
nodes = (
"307 372 LINE",
"347 366 OFFCURVE",
"370 343 OFFCURVE",
"351 296 CURVE SMOOTH",
"261 74 LINE",
"164 300 LINE SMOOTH",
"146 342 OFFCURVE",
"162 356 OFFCURVE",
"192 373 CURVE",
"182 402 LINE",
"130 389 OFFCURVE",
"61 374 OFFCURVE",
"5 362 CURVE",
"13 332 LINE",
"31 315 OFFCURVE",
"49 300 OFFCURVE",
"71 263 CURVE SMOOTH",
"124 175 OFFCURVE",
"170 88 OFFCURVE",
"204 0 CURVE",
"268 0 LINE",
"310 95 OFFCURVE",
"345 190 OFFCURVE",
"400 285 CURVE SMOOTH",
"419 318 OFFCURVE",
"438 354 OFFCURVE",
"467 372 CURVE",
"467 402 LINE",
"413 400 OFFCURVE",
"352 399 OFFCURVE",
"307 402 CURVE"
);
}
);
width = 472;
}
);
unicode = 0076;
},
{
color = 6;
glyphname = w;
lastChange = "2020-01-30 18:16:42 +0000";
layers = (
{
layerId = "31E65565-C22C-4792-86EE-013C6F95D489";
paths = (
{
closed = 1;
nodes = (
"585 372 LINE",
"645 366 OFFCURVE",
"669 342 OFFCURVE",
"649 296 CURVE SMOOTH",
"553 74 LINE",
"465 300 LINE SMOOTH",
"449 342 OFFCURVE",
"453 365 OFFCURVE",
"493 372 CURVE",
"493 402 LINE",
"484 402 OFFCURVE",
"475 401 OFFCURVE",
"466 401 CURVE",
"466 402 LINE",
"426 401 OFFCURVE",
"383 400 OFFCURVE",
"337 400 CURVE SMOOTH",
"326 401 OFFCURVE",
"315 401 OFFCURVE",
"304 402 CURVE",
"304 401 LINE",
"298 401 OFFCURVE",
"292 402 OFFCURVE",
"286 402 CURVE",
"286 372 LINE",
"300 371 OFFCURVE",
"313 368 OFFCURVE",
"323 365 CURVE",
"337 355 OFFCURVE",
"346 339 OFFCURVE",
"356 316 CURVE",
"355 310 OFFCURVE",
"353 303 OFFCURVE",
"350 296 CURVE SMOOTH",
"254 74 LINE",
"166 300 LINE SMOOTH",
"150 342 OFFCURVE",
"154 365 OFFCURVE",
"194 372 CURVE",
"194 402 LINE",
"132 399 OFFCURVE",
"71 398 OFFCURVE",
"5 402 CURVE",
"5 372 LINE",
"35 366 OFFCURVE",
"46 342 OFFCURVE",
"63 303 CURVE SMOOTH",
"196 0 LINE",
"260 0 LINE",
"386 248 LINE",
"495 0 LINE",
"559 0 LINE",
"704 285 LINE SMOOTH",
"721 319 OFFCURVE",
"736 354 OFFCURVE",
"765 372 CURVE",
"765 402 LINE",
"711 400 OFFCURVE",
"650 399 OFFCURVE",
"585 402 CURVE"
);
}
);
width = 770;
}
);
unicode = 0077;
},
{
color = 4;
glyphname = x;
lastChange = "2020-02-04 08:38:12 +0000";
layers = (
{
layerId = "31E65565-C22C-4792-86EE-013C6F95D489";
paths = (
{
closed = 1;
nodes = (
"523 403 LINE",
"469 401 OFFCURVE",
"410 401 OFFCURVE",
"332 403 CURVE",
"332 373 LINE",
"368 359 OFFCURVE",
"400 352 OFFCURVE",
"400 327 CURVE SMOOTH",
"400 306 OFFCURVE",
"365 256 OFFCURVE",
"319 205 CURVE",
"273 252 OFFCURVE",
"226 302 OFFCURVE",
"182 348 CURVE SMOOTH",
"165 366 OFFCURVE",
"154 382 OFFCURVE",
"142 401 CURVE",
"96 400 OFFCURVE",
"51 400 OFFCURVE",
"5 401 CURVE",
"5 371 LINE",
"29 366 OFFCURVE",
"37 359 OFFCURVE",
"54 344 CURVE SMOOTH",
"108 296 OFFCURVE",
"190 214 OFFCURVE",
"256 142 CURVE",
"207 98 OFFCURVE",
"157 64 OFFCURVE",
"125 64 CURVE SMOOTH",
"86 64 OFFCURVE",
"75 86 OFFCURVE",
"62 112 CURVE",
"11 112 LINE",
"6 9 LINE",
"33 -3 OFFCURVE",
"56 -8 OFFCURVE",
"85 -8 CURVE SMOOTH",
"139 -8 OFFCURVE",
"212 45 OFFCURVE",
"283 111 CURVE",
"312 77 LINE SMOOTH",
"334 50 OFFCURVE",
"355 28 OFFCURVE",
"372 0 CURVE",
"417 1 OFFCURVE",
"468 1 OFFCURVE",
"513 0 CURVE",
"513 30 LINE",
"480 42 OFFCURVE",
"462 57 OFFCURVE",
"434 85 CURVE SMOOTH",
"347 175 LINE",
"395 226 OFFCURVE",
"437 276 OFFCURVE",
"465 312 CURVE SMOOTH",
"487 341 OFFCURVE",
"498 352 OFFCURVE",
"523 373 CURVE"
);
}
);
width = 533;
}
);
unicode = 0078;
},
{
color = 4;
glyphname = y;
lastChange = "2020-01-30 18:16:42 +0000";
layers = (
{
layerId = "31E65565-C22C-4792-86EE-013C6F95D489";
paths = (
{
closed = 1;
nodes = (
"288 373 LINE",
"353 348 OFFCURVE",
"366 327 OFFCURVE",
"341 286 CURVE SMOOTH",
"220 91 LINE",
"155 301 LINE SMOOTH",
"141 346 OFFCURVE",
"153 365 OFFCURVE",
"186 373 CURVE",
"186 403 LINE",
"124 401 OFFCURVE",
"63 400 OFFCURVE",
"-3 403 CURVE",
"-3 373 LINE",
"27 365 OFFCURVE",
"43 354 OFFCURVE",
"55 314 CURVE SMOOTH",
"150 -3 LINE",
"69 -103 OFFCURVE",
"11 -164 OFFCURVE",
"-25 -184 CURVE",
"-25 -280 LINE",
"9 -280 LINE",
"413 300 LINE SMOOTH",
"430 324 OFFCURVE",
"444 349 OFFCURVE",
"469 373 CURVE",
"469 403 LINE",
"415 400 OFFCURVE",
"353 400 OFFCURVE",
"288 403 CURVE"
);
}
);
width = 474;
}
);
unicode = 0079;
},
{
color = 4;
glyphname = z;
lastChange = "2020-01-30 18:16:42 +0000";
layers = (
{
layerId = "31E65565-C22C-4792-86EE-013C6F95D489";
paths = (
{
closed = 1;
nodes = (
"244 162 OFFCURVE",
"204 152 OFFCURVE",
"169 134 CURVE",
"418 387 LINE",
"400 411 LINE",
"314 381 OFFCURVE",
"191 403 OFFCURVE",
"92 410 CURVE",
"14 330 LINE",
"27 308 LINE",
"76 322 OFFCURVE",
"214 307 OFFCURVE",
"279 302 CURVE",
"12 33 LINE",
"28 0 LINE",
"78 33 OFFCURVE",
"140 63 OFFCURVE",
"212 63 CURVE SMOOTH",
"268 63 OFFCURVE",
"303 41 OFFCURVE",
"303 -17 CURVE SMOOTH",
"303 -97 OFFCURVE",
"202 -230 OFFCURVE",
"112 -230 CURVE SMOOTH",
"87 -230 OFFCURVE",
"78 -224 OFFCURVE",
"70 -202 CURVE",
"47 -199 LINE",
"10 -267 LINE",
"10 -272 LINE",
"31 -284 OFFCURVE",
"50 -290 OFFCURVE",
"82 -290 CURVE SMOOTH",
"212 -290 OFFCURVE",
"398 -78 OFFCURVE",
"398 53 CURVE SMOOTH",
"398 132 OFFCURVE",
"328 162 OFFCURVE",
"280 162 CURVE SMOOTH"
);
}
);
width = 433;
}
);
unicode = 007A;
},
{
color = 6;
glyphname = z.ss01;
lastChange = "2020-11-04 14:30:54 +0000";
layers = (
{
layerId = "31E65565-C22C-4792-86EE-013C6F95D489";
paths = (
{
closed = 1;
nodes = (
"151 39 LINE",
"386 377 LINE",
"385 404 LINE",
"303 400 OFFCURVE",
"152 401 OFFCURVE",
"35 400 CURVE",
"20 276 LINE",
"57 276 LINE",
"74 307 OFFCURVE",
"82 332 OFFCURVE",
"125 337 CURVE SMOOTH",
"252 353 LINE",
"30 27 LINE",
"29 0 LINE",
"142 2 OFFCURVE",
"255 3 OFFCURVE",
"368 1 CURVE",
"370 121 LINE",
"335 121 LINE",
"320 85 OFFCURVE",
"299 55 OFFCURVE",
"260 51 CURVE SMOOTH"
);
}
);
width = 406;
}
);
},
{
color = 10;
glyphname = ampersand;
lastChange = "2020-02-04 08:38:33 +0000";
layers = (
{
layerId = "31E65565-C22C-4792-86EE-013C6F95D489";
paths = (
{
closed = 1;
nodes = (
"595 119 OFFCURVE",
"586 134 OFFCURVE",
"577 149 CURVE",
"623 190 OFFCURVE",
"662 231 OFFCURVE",
"690 257 CURVE SMOOTH",
"741 305 OFFCURVE",
"785 335 OFFCURVE",
"836 375 CURVE",
"833 402 LINE",
"780 398 OFFCURVE",
"728 398 OFFCURVE",
"675 402 CURVE",
"673 375 LINE",
"699 358 OFFCURVE",
"708 333 OFFCURVE",
"663 289 CURVE SMOOTH",
"627 254 OFFCURVE",
"593 218 OFFCURVE",
"557 186 CURVE",
"521 258 OFFCURVE",
"493 337 OFFCURVE",
"476 400 CURVE",
"566 421 OFFCURVE",
"652 458 OFFCURVE",
"652 549 CURVE SMOOTH",
"652 609 OFFCURVE",
"577 659 OFFCURVE",
"498 659 CURVE SMOOTH",
"432 659 OFFCURVE",
"377 614 OFFCURVE",
"379 525 CURVE SMOOTH",
"379 505 OFFCURVE",
"384 469 OFFCURVE",
"394 423 CURVE",
"376 420 OFFCURVE",
"359 419 OFFCURVE",
"345 419 CURVE SMOOTH",
"237 416 OFFCURVE",
"60 383 OFFCURVE",
"60 197 CURVE SMOOTH",
"60 72 OFFCURVE",
"148 -8 OFFCURVE",
"283 -4 CURVE SMOOTH",
"365 -2 OFFCURVE",
"446 44 OFFCURVE",
"516 98 CURVE",
"524 84 OFFCURVE",
"533 71 OFFCURVE",
"542 58 CURVE SMOOTH",
"584 -2 OFFCURVE",
"669 -35 OFFCURVE",
"787 0 CURVE",
"827 68 LINE",
"810 82 LINE",
"734 49 OFFCURVE",
"645 43 OFFCURVE",
"604 105 CURVE SMOOTH"
);
},
{
closed = 1;
nodes = (
"458 567 OFFCURVE",
"488 590 OFFCURVE",
"515 590 CURVE SMOOTH",
"546 590 OFFCURVE",
"559 574 OFFCURVE",
"559 542 CURVE SMOOTH",
"559 486 OFFCURVE",
"517 455 OFFCURVE",
"467 438 CURVE",
"461 465 OFFCURVE",
"458 487 OFFCURVE",
"458 502 CURVE SMOOTH"
);
},
{
closed = 1;
nodes = (
"252 71 OFFCURVE",
"175 120 OFFCURVE",
"175 217 CURVE SMOOTH",
"175 332 OFFCURVE",
"282 365 OFFCURVE",
"402 386 CURVE",
"421 311 OFFCURVE",
"451 218 OFFCURVE",
"496 134 CURVE",
"444 96 OFFCURVE",
"391 71 OFFCURVE",
"330 71 CURVE SMOOTH"
);
}
);
width = 896;
}
);
unicode = 0026;
},
{
color = 10;
glyphname = ampersand.ss01;
lastChange = "2020-02-04 08:38:43 +0000";
layers = (
{
layerId = "31E65565-C22C-4792-86EE-013C6F95D489";
paths = (
{
closed = 1;
nodes = (
"184 106 OFFCURVE",
"190 140 OFFCURVE",
"199 182 CURVE",
"226 181 OFFCURVE",
"252 180 OFFCURVE",
"275 180 CURVE",
"292 223 LINE",
"290 232 LINE",
"264 230 OFFCURVE",
"238 230 OFFCURVE",
"212 230 CURVE",
"226 284 OFFCURVE",
"247 346 OFFCURVE",
"270 401 CURVE",
"251 411 LINE",
"210 361 OFFCURVE",
"162 388 OFFCURVE",
"92 429 CURVE",
"5 371 LINE",
"18 349 LINE",
"74 361 OFFCURVE",
"130 334 OFFCURVE",
"170 313 CURVE",
"168 294 OFFCURVE",
"159 264 OFFCURVE",
"149 231 CURVE",
"120 232 OFFCURVE",
"92 233 OFFCURVE",
"63 233 CURVE",
"47 188 LINE",
"51 181 LINE",
"70 185 OFFCURVE",
"100 186 OFFCURVE",
"134 185 CURVE",
"119 138 OFFCURVE",
"105 91 OFFCURVE",
"105 60 CURVE SMOOTH",
"105 10 OFFCURVE",
"144 -8 OFFCURVE",
"186 -8 CURVE SMOOTH",
"220 -8 OFFCURVE",
"251 10 OFFCURVE",
"278 23 CURVE",
"280 45 LINE",
"230 43 OFFCURVE",
"184 52 OFFCURVE",
"184 89 CURVE SMOOTH"
);
}
);
width = 307;
}
);
},
{
color = 10;
glyphname = con;
lastChange = "2020-01-30 18:16:42 +0000";
layers = (
{
layerId = "31E65565-C22C-4792-86EE-013C6F95D489";
paths = (
{
closed = 1;
nodes = (
"312 -9 OFFCURVE",
"385 69 OFFCURVE",
"385 199 CURVE SMOOTH",
"385 329 OFFCURVE",
"311 410 OFFCURVE",
"181 410 CURVE SMOOTH",
"103 410 OFFCURVE",
"52 380 OFFCURVE",
"17 340 CURVE",
"10 318 LINE",
"37 306 OFFCURVE",
"80 293 OFFCURVE",
"109 282 CURVE",
"118 287 LINE",
"125 314 OFFCURVE",
"132 343 OFFCURVE",
"138 365 CURVE",
"214 365 OFFCURVE",
"283 305 OFFCURVE",
"283 209 CURVE SMOOTH",
"283 106 OFFCURVE",
"214 45 OFFCURVE",
"134 45 CURVE SMOOTH",
"102 45 OFFCURVE",
"65 54 OFFCURVE",
"42 61 CURVE",
"31 33 LINE",
"70 14 OFFCURVE",
"121 -9 OFFCURVE",
"192 -9 CURVE SMOOTH"
);
}
);
width = 415;
}
);
unicode = A76F;
},
{
color = 10;
glyphname = etfin;
lastChange = "2020-01-30 18:16:42 +0000";
layers = (
{
layerId = "31E65565-C22C-4792-86EE-013C6F95D489";
paths = (
{
closed = 1;
nodes = (
"244 162 OFFCURVE",
"204 152 OFFCURVE",
"169 134 CURVE",
"418 387 LINE",
"400 411 LINE",
"314 381 OFFCURVE",
"201 403 OFFCURVE",
"102 410 CURVE",
"23 312 LINE",
"52 297 LINE",
"101 344 OFFCURVE",
"218 311 OFFCURVE",
"280 303 CURVE",
"12 33 LINE",
"28 0 LINE",
"78 33 OFFCURVE",
"140 63 OFFCURVE",
"212 63 CURVE SMOOTH",
"268 63 OFFCURVE",
"303 41 OFFCURVE",
"303 -17 CURVE SMOOTH",
"303 -117 OFFCURVE",
"202 -230 OFFCURVE",
"112 -230 CURVE SMOOTH",
"87 -230 OFFCURVE",
"78 -224 OFFCURVE",
"70 -202 CURVE",
"47 -199 LINE",
"10 -267 LINE",
"10 -272 LINE",
"31 -284 OFFCURVE",
"50 -290 OFFCURVE",
"82 -290 CURVE SMOOTH",
"212 -290 OFFCURVE",
"398 -78 OFFCURVE",
"398 53 CURVE SMOOTH",
"398 132 OFFCURVE",
"328 162 OFFCURVE",
"280 162 CURVE SMOOTH"
);
}
);
width = 433;
}
);
unicode = A76B;
},
{
color = 10;
glyphname = rum;
lastChange = "2020-02-04 08:39:06 +0000";
layers = (
{
layerId = "31E65565-C22C-4792-86EE-013C6F95D489";
paths = (
{
closed = 1;
nodes = (
"588 88 LINE",
"552 74 OFFCURVE",
"547 66 OFFCURVE",
"507 66 CURVE SMOOTH",
"461 66 OFFCURVE",
"438 76 OFFCURVE",
"397 81 CURVE",
"426 162 OFFCURVE",
"447 234 OFFCURVE",
"466 275 CURVE SMOOTH",
"490 329 OFFCURVE",
"500 339 OFFCURVE",
"585 330 CURVE",
"594 362 LINE",
"564 372 OFFCURVE",
"475 401 OFFCURVE",
"444 409 CURVE",
"423 347 OFFCURVE",
"403 219 OFFCURVE",
"358 83 CURVE",
"357 83 LINE SMOOTH",
"277 83 OFFCURVE",
"167 80 OFFCURVE",
"120 76 CURVE",
"172 128 OFFCURVE",
"257 207 OFFCURVE",
"257 300 CURVE SMOOTH",
"257 369 OFFCURVE",
"203 410 OFFCURVE",
"146 410 CURVE SMOOTH",
"124 410 OFFCURVE",
"74 397 OFFCURVE",
"36 364 CURVE",
"39 333 LINE",
"92 368 OFFCURVE",
"175 331 OFFCURVE",
"175 253 CURVE SMOOTH",
"175 166 OFFCURVE",
"106 93 OFFCURVE",
"5 22 CURVE",
"9 -12 LINE",
"46 9 OFFCURVE",
"90 15 OFFCURVE",
"177 15 CURVE SMOOTH",
"229 15 OFFCURVE",
"281 9 OFFCURVE",
"329 4 CURVE",
"300 -69 OFFCURVE",
"263 -141 OFFCURVE",
"213 -203 CURVE",
"248 -223 LINE",
"297 -155 OFFCURVE",
"335 -76 OFFCURVE",
"366 -1 CURVE",
"398 -4 OFFCURVE",
"426 -7 OFFCURVE",
"449 -7 CURVE SMOOTH",
"496 -7 OFFCURVE",
"580 56 OFFCURVE",
"600 65 CURVE"
);
}
);
width = 605;
}
);
unicode = A775;
},
{
color = 10;
glyphname = usmod;
lastChange = "2020-01-30 18:16:42 +0000";
layers = (
{
layerId = "31E65565-C22C-4792-86EE-013C6F95D489";
paths = (
{
closed = 1;
nodes = (
"241 66 OFFCURVE",
"458 264 OFFCURVE",
"458 495 CURVE SMOOTH",
"458 600 OFFCURVE",
"392 713 OFFCURVE",
"234 713 CURVE SMOOTH",
"92 713 OFFCURVE",
"15 596 OFFCURVE",
"15 489 CURVE SMOOTH",
"15 389 OFFCURVE",
"86 310 OFFCURVE",
"185 310 CURVE SMOOTH",
"222 310 OFFCURVE",
"255 331 OFFCURVE",
"274 352 CURVE",
"268 373 LINE",
"199 342 OFFCURVE",
"116 404 OFFCURVE",
"116 499 CURVE SMOOTH",
"116 591 OFFCURVE",
"152 661 OFFCURVE",
"222 661 CURVE SMOOTH",
"297 661 OFFCURVE",
"355 591 OFFCURVE",
"355 449 CURVE SMOOTH",
"355 301 OFFCURVE",
"255 90 OFFCURVE",
"83 10 CURVE",
"85 -11 LINE",
"149 -20 LINE"
);
}
);
width = 473;
}
);
unicode = A770;
},
{
color = 10;
glyphname = usmod.ss01;
lastChange = "2020-01-30 18:16:42 +0000";
layers = (
{
layerId = "31E65565-C22C-4792-86EE-013C6F95D489";
paths = (
{
closed = 1;
nodes = (
"241 -241 OFFCURVE",
"458 -43 OFFCURVE",
"458 188 CURVE SMOOTH",
"458 293 OFFCURVE",
"392 406 OFFCURVE",
"234 406 CURVE SMOOTH",
"92 406 OFFCURVE",
"15 289 OFFCURVE",
"15 182 CURVE SMOOTH",
"15 82 OFFCURVE",
"86 3 OFFCURVE",
"185 3 CURVE SMOOTH",
"222 3 OFFCURVE",
"255 24 OFFCURVE",
"274 45 CURVE",
"268 66 LINE",
"199 35 OFFCURVE",
"116 97 OFFCURVE",
"116 192 CURVE SMOOTH",
"116 284 OFFCURVE",
"152 354 OFFCURVE",
"222 354 CURVE SMOOTH",
"297 354 OFFCURVE",
"355 284 OFFCURVE",
"355 142 CURVE SMOOTH",
"355 -6 OFFCURVE",
"255 -217 OFFCURVE",
"83 -297 CURVE",
"85 -318 LINE",
"149 -327 LINE"
);
}
);
width = 473;
}
);
},
